<?xml version="1.0" encoding="UTF-8"?>
<svg id="uuid-6379d10b-ca14-4d17-82dc-8f4fa402273f" data-name="Livello 1" xmlns="http://www.w3.org/2000/svg" width="30" height="30" viewBox="0 0 30 30">
  <defs>
    <style>
      .uuid-aedeea9a-a732-4f53-836c-bdb2952da62a {
        fill: #e93223;
      }
    </style>
  </defs>
  <path class="uuid-aedeea9a-a732-4f53-836c-bdb2952da62a" d="M22.0087,7.9206l6.5865,2.2487c1.3715,.4683,1.903,2.1269,1.0589,3.3051l-4.0533,5.6579c-.2566,.3582-.3977,.7864-.4042,1.227l-.1034,6.9592c-.0215,1.4492-1.4348,2.4672-2.8161,2.0285l-6.6334-2.1065c-.42-.1334-.8707-.1352-1.2918-.0053l-6.6504,2.0523c-1.3848,.4274-2.7897-.6021-2.7994-2.0514l-.0464-6.9598c-.0029-.4407-.1405-.8699-.3942-1.2303L.4549,13.3554c-.8344-1.185-.2894-2.8393,1.086-3.2964l6.6047-2.1949c.4182-.139,.7839-.4024,1.0482-.7551L13.3679,1.5396c.8692-1.1598,2.6109-1.1527,3.4705,.0141l4.1283,5.6033c.2614,.3548,.625,.6212,1.042,.7636Z"/>
  <path d="M10.3479,23.1536c-.0883-1.8538,1.5142-2.4634,2.8675-3.444,.6119-.4435,2.763-.8227,3.7782-.315,.6299,.315,1.5424,.8699,2.0013,1.5803,.4819,.7459,.9062,1.6983,.5023,2.4892-.3129,.6123-1.0443,.9098-1.7316,.9251-.6873,.015-1.3557-.1979-2.0241-.3585-.5098-.1225-1.0575-.1907-1.5878-.1246-.27,.0336-.5348,.1018-.7858,.2066-.2579,.1078-.4843,.2681-.7471,.3651-.4531,.1672-.9882,.1766-1.4407-.0168-.4609-.1964-.7543-.6104-.8152-1.1052-.0081-.0679-.0138-.1351-.0171-.2021"/>
  <path d="M10.1187,14.0292c-.0195-.6735,.5107-1.2353,1.1842-1.2548,.6735-.0192,1.2353,.5108,1.2548,1.1846,.0195,.6735-.5107,1.235-1.1843,1.2545-.6735,.0195-1.2353-.5108-1.2548-1.1843"/>
  <path d="M17.7127,14.0975c-.0195-.6735,.5107-1.2353,1.1842-1.2548,.6735-.0195,1.2353,.5108,1.2548,1.1842,.0195,.6738-.5107,1.2353-1.1843,1.2548-.6735,.0195-1.2353-.5108-1.2548-1.1843"/>
  <path d="M17.4912,12.3078c-.0844,.0465-.1895,.0201-.2438-.0618-.1456-.2201-.2477-.4711-.2973-.733-.0526-.2789,3.2551-1.3809,3.5954-1.4887,.8155-.2576,1.7097-.5417,2.594-.702,.2258-.0408,.3165,.2919,.1024,.3768-.8008,.318-1.6358,.5861-2.4096,.9353-1.1341,.5123-2.249,1.0705-3.341,1.6734"/>
  <path d="M12.6764,12.1592c.0871,.0417,.1904,.0093,.2399-.0759,.1324-.2279,.2201-.4843,.2543-.7489,.0366-.2814-3.3293-1.1908-3.6752-1.2785-.829-.2102-1.7382-.4423-2.63-.5513-.2279-.0276-.2991,.3096-.0805,.3822,.8176,.2712,1.6668,.4906,2.4594,.7948,1.1617,.4456,2.3069,.9386,3.432,1.4776"/>
</svg>