<?xml version="1.0" encoding="UTF-8"?>
<svg id="uuid-540271bc-219b-4b17-99b0-e77bcbef16ae" data-name="Livello 1" xmlns="http://www.w3.org/2000/svg" width="30" height="30" viewBox="0 0 30 30">
  <defs>
    <style>
      .uuid-5f80f1aa-6a08-4594-a471-2bc3158864f3 {
        fill: #fff;
      }

      .uuid-5950c600-c0f4-4ca8-a861-9646b104ec49 {
        fill: #6c3310;
      }
    </style>
  </defs>
  <path class="uuid-5950c600-c0f4-4ca8-a861-9646b104ec49" d="M21.9491,7.9206l6.5865,2.2487c1.3715,.4683,1.903,2.1269,1.0589,3.3051l-4.0533,5.6579c-.2566,.3582-.3977,.7864-.4042,1.227l-.1034,6.9592c-.0215,1.4492-1.4348,2.4672-2.8161,2.0285l-6.6334-2.1065c-.42-.1334-.8707-.1352-1.2918-.0053l-6.6504,2.0523c-1.3848,.4274-2.7897-.6021-2.7994-2.0514l-.0464-6.9598c-.0029-.4407-.1405-.8699-.3942-1.2303L.3953,13.3554c-.8344-1.185-.2894-2.8393,1.086-3.2964l6.6047-2.1949c.4182-.139,.7839-.4024,1.0482-.7551L13.3082,1.5396c.8692-1.1598,2.6109-1.1527,3.4705,.0141l4.1283,5.6033c.2614,.3548,.625,.6212,1.042,.7636Z"/>
  <path class="uuid-5f80f1aa-6a08-4594-a471-2bc3158864f3" d="M7.4918,13.8221c0-1.6175,1.3112-2.9287,2.9288-2.9287s2.9291,1.3112,2.9291,2.9287-1.3115,2.9288-2.9291,2.9288-2.9288-1.3112-2.9288-2.9288"/>
  <path d="M9.11,13.8221c0-.7239,.5867-1.3106,1.3106-1.3106s1.3106,.5867,1.3106,1.3106-.5867,1.3107-1.3106,1.3107-1.3106-.5867-1.3106-1.3107"/>
  <path class="uuid-5f80f1aa-6a08-4594-a471-2bc3158864f3" d="M17.0203,13.8221c0-1.6175,1.3112-2.9287,2.9288-2.9287s2.9291,1.3112,2.9291,2.9287-1.3115,2.9288-2.9291,2.9288-2.9288-1.3112-2.9288-2.9288"/>
  <path d="M18.6386,13.8221c0-.7239,.5867-1.3106,1.3106-1.3106s1.3106,.5867,1.3106,1.3106-.5867,1.3107-1.3106,1.3107-1.3106-.5867-1.3106-1.3107"/>
  <path class="uuid-5f80f1aa-6a08-4594-a471-2bc3158864f3" d="M18.2498,22.1687c-.2979,0-.6387-.1381-1.0191-.4137-.3258-.2363-.5897-.3246-.705-.2369-.0372,.0282-.0787,.0877-.1228,.1508-.0622,.0889-.1324,.19-.2375,.2789-.3883,.3288-.9233,.2387-1.2944,.045-.1426-.0745-.2696-.1615-.3921-.2453-.1399-.0958-.2717-.1862-.4069-.2432-.3252-.1372-.7315-.0835-1.0098,.1342-.0381,.0297-.0772,.0646-.1186,.1015-.118,.1051-.2513,.224-.4354,.297-.5441,.2162-1.002-.1138-1.3698-.3792-.2057-.1483-.4003-.2886-.5873-.3378-.2811-.0739-.6288,.1174-.7164,.3936-.058,.1826-.2528,.2838-.4357,.2258-.1829-.0582-.2838-.2531-.2258-.436,.2012-.6323,.9134-1.0236,1.5545-.8545,.3117,.0823,.5801,.2756,.8167,.4462,.3516,.2534,.5357,.3654,.7077,.297,.07-.0276,.1477-.097,.23-.17,.0477-.0426,.0973-.0868,.1525-.13,.478-.3738,1.1482-.463,1.7073-.227,.1997,.0844,.3672,.1991,.5291,.3099,.1108,.076,.2153,.1474,.3213,.2027,.176,.0922,.4129,.1354,.5249,.0405,.036-.0306,.0751-.0868,.1168-.1465,.066-.0943,.148-.212,.272-.3063,.2714-.206,.7573-.3336,1.5319,.2276,.3348,.2426,.5957,.3339,.7146,.2498,.0363-.0258,.0784-.0792,.1231-.1357,.0321-.0408,.0649-.0817,.0994-.1201,.3114-.3471,.8197-.4931,1.3272-.3808s.9071,.4591,1.0428,.9053c.0559,.1832-.0474,.3771-.2309,.433-.1838,.0562-.3771-.0478-.433-.2309-.0754-.2471-.3225-.384-.5288-.4297-.2063-.046-.4885-.0261-.6609,.1663-.0249,.0279-.0481,.0574-.0712,.0868-.0667,.0844-.1492,.1892-.2678,.2727-.1504,.1063-.3183,.1591-.5026,.1591"/>
</svg>