<?xml version="1.0" encoding="UTF-8"?>
<svg id="uuid-766479e9-ba2d-43e0-a3bc-06acda2f3a18" data-name="Livello 1" xmlns="http://www.w3.org/2000/svg" width="30" height="30" viewBox="0 0 30 30">
  <defs>
    <style>
      .uuid-985fff11-79c0-4efd-b296-213a5f5e5231 {
        fill: #fff;
      }

      .uuid-47e27665-7ebf-4517-b45c-f45e809f8da2 {
        fill: #2d5421;
      }
    </style>
  </defs>
  <path class="uuid-47e27665-7ebf-4517-b45c-f45e809f8da2" d="M22.165,7.9564l6.5535,2.2374c1.3647,.4659,1.8934,2.1163,1.0536,3.2885l-4.0329,5.6296c-.2554,.3565-.3957,.7824-.4022,1.2209l-.1028,6.9243c-.0214,1.4419-1.4276,2.4548-2.802,2.0184l-6.6001-2.0959c-.4179-.1327-.8664-.1345-1.2854-.0052l-6.617,2.042c-1.3779,.4252-2.7757-.5991-2.7853-2.0411l-.0461-6.9249c-.0029-.4385-.1398-.8656-.3922-1.2241L.7193,13.364c-.8302-1.1791-.2879-2.8251,1.0805-3.2798l6.5716-2.1839c.4161-.1383,.78-.4004,1.043-.7513L13.5675,1.6074c.8648-1.1539,2.5978-1.1469,3.4531,.0141l4.1076,5.5752c.2601,.353,.6218,.6181,1.0368,.7598Z"/>
  <path d="M7.0151,15.1915c-.2266,0-.4688-.0215-.7275-.0713-.1699-.0322-.2812-.1963-.249-.3662s.1973-.2822,.3662-.249c1.8672,.3564,2.6328-.9824,2.6641-1.0391,.084-.1523,.2725-.2061,.4248-.125,.1514,.082,.208,.2705,.127,.4229-.0088,.0156-.792,1.4277-2.6055,1.4277Z"/>
  <path d="M22.7895,14.003c-2.0449,0-2.9248-1.5879-2.9346-1.6055-.0811-.1523-.0244-.3408,.127-.4229,.1523-.083,.3408-.0273,.4248,.125,.0361,.0664,.9131,1.6172,3.0859,1.208,.1631-.0352,.334,.0781,.3662,.249,.0322,.1699-.0791,.334-.249,.3662-.292,.0557-.5654,.0801-.8203,.0801Z"/>
  <path d="M11.5024,17.5c-.123,0-.2461-.042-.3467-.127-1.1514-.9707-3.0586-.2832-3.0771-.2773-.2744,.1064-.5859-.0381-.6904-.3154-.1035-.2773,.0371-.5859,.3145-.6904,.1016-.0381,2.5098-.9189,4.1465,.4629,.2266,.1914,.2549,.5303,.0635,.7568-.1064,.126-.2578,.1904-.4102,.1904Z"/>
  <path d="M16.6792,17.5c-.1523,0-.3037-.0645-.4102-.1904-.1914-.2266-.1631-.5654,.0635-.7568,1.6387-1.3818,4.0449-.501,4.1465-.4629,.2773,.1045,.418,.4131,.3145,.6904-.1035,.2783-.4141,.4219-.6904,.3154-.0186-.0059-1.9248-.6934-3.0771,.2773-.1006,.085-.2236,.127-.3467,.127Z"/>
  <path class="uuid-985fff11-79c0-4efd-b296-213a5f5e5231" d="M19.8683,9.4821c-.0003,.6278-.2401,.8062-.5702,.806-.3299,0-.6253-.1784-.625-.8064,.0003-.6278,.2459-1.9255,.576-1.9255,.3299,.0002,.6194,1.2982,.6192,1.926"/>
  <path class="uuid-985fff11-79c0-4efd-b296-213a5f5e5231" d="M11.8457,9.4821c-.0003,.6278-.2401,.8062-.5702,.806-.3299,0-.6253-.1784-.625-.8064,.0003-.6278,.2459-1.9255,.576-1.9255,.3299,.0002,.6194,1.2982,.6192,1.926"/>
  <path class="uuid-985fff11-79c0-4efd-b296-213a5f5e5231" d="M25.8382,12.1378c-.0003,.6594-.2769,.8467-.6579,.8467s-.7215-.1876-.7212-.847c0-.6593,.2835-2.0226,.6644-2.0226,.3809,.0003,.7149,1.3636,.7146,2.0229"/>
  <path class="uuid-985fff11-79c0-4efd-b296-213a5f5e5231" d="M5.3443,11.8316c0,.5276,.2217,.6776,.5264,.6776,.305,0,.5778-.15,.5778-.6776s-.2268-1.6184-.5318-1.6184c-.3047,0-.5724,1.0908-.5724,1.6184"/>
  <path class="uuid-985fff11-79c0-4efd-b296-213a5f5e5231" d="M14.8148,11.1598c0,.6567,.2757,.8431,.6552,.8431,.3791,0,.7185-.1864,.7185-.8431s-.282-2.0139-.6615-2.0139c-.3791,0-.7122,1.3573-.7122,2.0139"/>
  <path d="M16.0884,23.8526c-.5986,0-1.2793-.1699-2.0156-.624-1.7178-1.0586-3.1562-.0645-3.2168-.0215-.2412,.1709-.5762,.1162-.749-.1221-.1729-.2402-.1201-.5732,.1182-.7471,.082-.0605,2.0625-1.4707,4.4121-.0234,1.7578,1.083,2.7959-.0342,2.9082-.165,.1914-.2227,.5303-.252,.7559-.0615,.2246,.1904,.2559,.5254,.0674,.752-.374,.4482-1.1895,1.0127-2.2803,1.0127Z"/>
</svg>