<?xml version="1.0" encoding="UTF-8"?>
<svg id="uuid-1ae5e23b-66aa-447f-b81f-ccb984750883" data-name="Livello 1" xmlns="http://www.w3.org/2000/svg" width="30" height="30" viewBox="0 0 30 30">
  <defs>
    <style>
      .uuid-34069bbb-01ea-45c5-b002-b58e4e0a5efc {
        fill: #e7e6e6;
      }

      .uuid-9bff7468-d541-435f-b6f8-d4d2008571bb {
        fill: #891910;
      }

      .uuid-fa81c405-41b1-485d-a55a-89a1cf296216 {
        fill: #040605;
      }
    </style>
  </defs>
  <path class="uuid-9bff7468-d541-435f-b6f8-d4d2008571bb" d="M20.8206,27.2365H9.1775c-3.546,0-6.421-2.875-6.421-6.421V9.1845c0-3.546,2.875-6.421,6.421-6.421h11.636c3.5441,0,6.418,2.872,6.42,6.417l.0079,11.631c.0021,3.548-2.8739,6.425-6.4209,6.425"/>
  <path class="uuid-34069bbb-01ea-45c5-b002-b58e4e0a5efc" d="M10.1265,13.5823c0-.839,.6809-1.52,1.5199-1.52s1.52,.681,1.52,1.52-.681,1.52-1.52,1.52-1.5199-.681-1.5199-1.52"/>
  <path class="uuid-34069bbb-01ea-45c5-b002-b58e4e0a5efc" d="M16.7722,13.5823c0-.839,.6809-1.52,1.5199-1.52s1.52,.681,1.52,1.52-.681,1.52-1.52,1.52-1.5199-.681-1.5199-1.52"/>
  <path class="uuid-fa81c405-41b1-485d-a55a-89a1cf296216" d="M21.8564,20.2154H7.9343c-.2529,0-.4579-.205-.4579-.458s.205-.459,.4579-.459h13.9221c.2529,0,.4579,.206,.4579,.459s-.205,.458-.4579,.458"/>
  <path d="M10.5895,13.5823c0-.759,.615-1.375,1.375-1.375,.7589,0,1.3739,.616,1.3739,1.375s-.615,1.375-1.3739,1.375c-.76,0-1.375-.616-1.375-1.375"/>
  <path d="M16.6,13.5823c0-.759,.615-1.375,1.375-1.375,.7589,0,1.3739,.616,1.3739,1.375s-.615,1.375-1.3739,1.375c-.76,0-1.375-.616-1.375-1.375"/>
</svg>