<?xml version="1.0" encoding="UTF-8"?>
<svg id="uuid-72fe1456-b7ea-40d5-8bd4-974cc66a301a" data-name="Livello 1" xmlns="http://www.w3.org/2000/svg" width="30" height="30" viewBox="0 0 30 30">
  <defs>
    <style>
      .uuid-2f4383a7-2e5c-4dcd-8282-96b73cf4e6ff {
        fill: #fdff54;
      }

      .uuid-39546a65-d99f-41c1-aad9-b87bdea301f2 {
        fill: #040605;
      }
    </style>
  </defs>
  <path class="uuid-2f4383a7-2e5c-4dcd-8282-96b73cf4e6ff" d="M20.8215,27.2365H9.1785c-3.546,0-6.421-2.875-6.421-6.421V9.1845c0-3.546,2.875-6.421,6.421-6.421h11.636c3.544,0,6.418,2.872,6.42,6.417l.008,11.631c.002,3.548-2.873,6.425-6.421,6.425"/>
  <path class="uuid-39546a65-d99f-41c1-aad9-b87bdea301f2" d="M10.1688,17.0842c3.024,1.04,6.5389,.977,9.556-.065,1.094-.377,2.14-.908,3.058-1.616,.286-.221,.811-.685,1.146-.253,.193,.247,.031,.659-.101,.896-.321,.575-.888,.98-1.407,1.364-.68,.503-1.436,.904-2.218,1.225-1.329,.548-2.7581,.833-4.189,.929-.539,.036-1.08,.045-1.62,.029l-.046-.002c-.769-.024-1.536-.104-2.294-.237-1.443-.253-2.85-.748-4.127-1.468-.139-.078-.277-.159-.414-.243-.458-.279-.899-.56-1.161-1.048-.096-.177-.149-.388-.093-.581,.096-.328,.45-.448,.758-.382,.486,.104,.879,.384,1.304,.621,.449,.251,.914,.472,1.392,.662,.152,.06,.304,.117,.4561,.169"/>
  <path d="M13.1686,11.9403c-.1387,0-.2764-.0557-.3789-.165-.4805-.5176-.9668-.751-1.4385-.7529-.7539,.0273-1.3135,.7158-1.3193,.7227-.1768,.2207-.502,.2578-.7246,.082-.2227-.1768-.2617-.499-.0859-.7227,.0342-.043,.8486-1.0625,2.0811-1.1133,.8115-.0537,1.5488,.332,2.2451,1.0811,.1934,.209,.1816,.5361-.0273,.7305-.0996,.0918-.2256,.1377-.3516,.1377Z"/>
  <path d="M20.693,11.9403c-.1387,0-.2764-.0557-.3789-.165-.4785-.5156-.9746-.751-1.4375-.7529-.7539,.0273-1.3135,.7148-1.3193,.7227-.1768,.2207-.5029,.2578-.7246,.082-.2227-.1768-.2617-.499-.0859-.7227,.0342-.043,.8486-1.0625,2.0801-1.1133,.792-.0537,1.5469,.3291,2.2451,1.0811,.1934,.209,.1816,.5361-.0273,.7305-.0996,.0918-.2256,.1377-.3516,.1377Z"/>
</svg>