<?xml version="1.0" encoding="UTF-8"?>
<svg id="uuid-ad61072c-72d9-42b4-9177-9a1049350cb4" data-name="Livello 1" xmlns="http://www.w3.org/2000/svg" width="30" height="30" viewBox="0 0 30 30">
  <defs>
    <style>
      .uuid-be140f7f-7693-448d-a5d7-bb68be278da8 {
        fill: #fff;
      }

      .uuid-b252d6f5-794a-42c5-885a-f8a4eb6fac77 {
        fill: #040603;
      }

      .uuid-4d466928-3d94-4cf0-b80a-86b8f37fc990 {
        fill: #143165;
      }
    </style>
  </defs>
  <path class="uuid-4d466928-3d94-4cf0-b80a-86b8f37fc990" d="M20.8205,27.2365H9.1775c-3.546,0-6.421-2.875-6.421-6.421V9.1845c0-3.546,2.875-6.421,6.421-6.421h11.636c3.544,0,6.418,2.872,6.42,6.417l.008,11.631c.002,3.548-2.873,6.425-6.421,6.425"/>
  <path class="uuid-b252d6f5-794a-42c5-885a-f8a4eb6fac77" d="M11.0371,14.3959c0,.843-.445,1.527-.993,1.527-.549,0-.993-.684-.993-1.527s.444-1.527,.993-1.527c.548,0,.993,.684,.993,1.527"/>
  <path class="uuid-b252d6f5-794a-42c5-885a-f8a4eb6fac77" d="M20.969,14.3959c0,.843-.445,1.527-.993,1.527-.549,0-.993-.684-.993-1.527s.444-1.527,.993-1.527c.548,0,.993,.684,.993,1.527"/>
  <path class="uuid-b252d6f5-794a-42c5-885a-f8a4eb6fac77" d="M19.2769,21.3902c1.037,0,1.749-.98,1.312-1.838-.888-1.743-3.002-2.969-5.468-2.969s-4.58,1.226-5.469,2.969c-.437,.858,.2759,1.838,1.312,1.838h8.313Z"/>
  <path class="uuid-b252d6f5-794a-42c5-885a-f8a4eb6fac77" d="M8.0534,12.5194c-.4688,0-.9717-.126-1.5029-.3779-.2578-.1221-.3682-.4297-.2461-.6875s.4307-.3682,.6875-.2461c.6387,.3027,1.1816,.3564,1.6152,.165,.6895-.3057,.9551-1.1514,.957-1.1602,.083-.2715,.3721-.4268,.6426-.3447,.2725,.0811,.4287,.3662,.3477,.6387-.0156,.0527-.3936,1.3018-1.5195,1.8057-.3076,.1377-.6357,.207-.9814,.207Z"/>
  <path class="uuid-b252d6f5-794a-42c5-885a-f8a4eb6fac77" d="M21.9079,12.5194c-.3457,0-.6738-.0693-.9814-.207-1.126-.5039-1.5039-1.7529-1.5195-1.8057-.0811-.2734,.0762-.5605,.3496-.6406,.2754-.082,.5586,.0752,.6406,.3467h0c.002,.0088,.2676,.8545,.957,1.1602,.4336,.1914,.9775,.1377,1.6152-.165,.2559-.123,.5654-.0127,.6875,.2461,.1221,.2578,.0117,.5654-.2461,.6875-.5312,.252-1.0342,.3779-1.5029,.3779Z"/>
  <path class="uuid-be140f7f-7693-448d-a5d7-bb68be278da8" d="M21.7537,17.4107c.108,.341,.326,.718,.65,.894,.292,.159,.657,.056,.846-.212,.287-.407,.07-.959-.15-1.342-.266-.464-.697-.91-1.228-1.051-.26-.07-.533-.051-.776,.065-.214,.102-.056,.294,.047,.417,.182,.219,.334,.466,.444,.729,.067,.162,.114,.332,.1671,.5"/>
  <path class="uuid-be140f7f-7693-448d-a5d7-bb68be278da8" d="M8.1632,17.4107c-.108,.341-.326,.718-.65,.894-.292,.159-.657,.056-.846-.212-.287-.407-.07-.959,.15-1.342,.266-.464,.697-.91,1.229-1.051,.259-.07,.532-.051,.775,.065,.214,.102,.056,.294-.047,.417-.182,.219-.334,.466-.444,.729-.067,.162-.114,.332-.167,.5"/>
</svg>