<?xml version="1.0" encoding="UTF-8"?>
<svg id="uuid-7a73d4dd-abbc-4bc5-8eda-48cf7a376d4e" data-name="Livello 1" xmlns="http://www.w3.org/2000/svg" width="30" height="30" viewBox="0 0 30 30">
  <defs>
    <style>
      .uuid-14ff410e-43e6-4d7f-a6b8-ab10cacaad92 {
        fill: #4faeee;
      }

      .uuid-c3c599b9-c3ea-4e60-900a-13408b675dad {
        fill: #040605;
      }
    </style>
  </defs>
  <path class="uuid-14ff410e-43e6-4d7f-a6b8-ab10cacaad92" d="M20.8205,27.2365H9.1775c-3.546,0-6.421-2.875-6.421-6.421V9.1845c0-3.546,2.875-6.421,6.421-6.421h11.636c3.544,0,6.418,2.872,6.42,6.417l.008,11.631c.002,3.548-2.873,6.425-6.421,6.425"/>
  <path d="M8.9567,12.5194c-.4688,0-.9717-.126-1.5029-.3779-.2578-.1221-.3682-.4297-.2461-.6875,.1211-.2578,.4307-.3682,.6875-.2461,.6396,.3027,1.1875,.3574,1.6211,.1621,.6855-.3076,.9482-1.1455,.9512-1.1543,.0791-.2744,.3633-.4346,.6406-.3496,.2734,.0801,.4307,.3672,.3496,.6406-.0146,.0527-.3926,1.3008-1.5186,1.8057-.3076,.1377-.6357,.207-.9824,.207Z"/>
  <path d="M21.3053,12.5194c-.3457,0-.6738-.0693-.9814-.207-1.126-.5039-1.5039-1.7529-1.5195-1.8057-.0811-.2734,.0762-.5605,.3496-.6406,.2773-.082,.5586,.0762,.6406,.3477,.0078,.0264,.2744,.8574,.957,1.1592,.4346,.1914,.9775,.1377,1.6152-.165,.2568-.123,.5654-.0127,.6875,.2461,.1221,.2578,.0117,.5654-.2461,.6875-.5312,.252-1.0342,.3779-1.5029,.3779Z"/>
  <path d="M9.2104,14.1588c0-.71,.575-1.285,1.285-1.285s1.285,.575,1.285,1.285-.575,1.285-1.285,1.285-1.285-.575-1.285-1.285"/>
  <path d="M18.2088,14.1588c0-.71,.575-1.285,1.285-1.285s1.285,.575,1.285,1.285-.575,1.285-1.285,1.285-1.285-.575-1.285-1.285"/>
  <path class="uuid-c3c599b9-c3ea-4e60-900a-13408b675dad" d="M10.7245,19.9158c2.827-.973,6.113-.914,8.934,.06,1.022,.354,2.001,.85,2.858,1.512,.268,.206,.758,.64,1.072,.237,.18-.232,.029-.617-.095-.838-.299-.538-.83-.917-1.314-1.276-.636-.47-1.343-.845-2.074-1.145-1.243-.512-2.579-.778-3.916-.868-.504-.034-1.01-.043-1.515-.027-.015,0-.029,0-.044,.001-.718,.023-1.435,.098-2.143,.222-1.35,.236-2.665,.699-3.8589,1.372-.13,.074-.259,.149-.387,.227-.428,.261-.84,.524-1.086,.98-.089,.166-.139,.363-.086,.543,.089,.307,.42,.419,.709,.358,.454-.097,.821-.359,1.218-.581,.42-.235,.855-.442,1.302-.619,.142-.056,.284-.109,.426-.158"/>
</svg>