<?xml version="1.0" encoding="UTF-8"?>
<svg id="uuid-85babf8d-9fcb-4d8e-8b1e-6f28013c163b" data-name="Livello 1" xmlns="http://www.w3.org/2000/svg" width="30" height="30" viewBox="0 0 30 30">
  <defs>
    <style>
      .uuid-71cc9fdf-076b-49e7-a1a7-c1f98711d57d {
        fill: #0f0000;
      }

      .uuid-fb5902b8-d9e8-44dd-989b-532320e9a53a {
        fill: #ea449f;
      }
    </style>
  </defs>
  <path class="uuid-fb5902b8-d9e8-44dd-989b-532320e9a53a" d="M21.9142,7.9564l6.5535,2.2374c1.3647,.4659,1.8934,2.1163,1.0536,3.2885l-4.0329,5.6296c-.2554,.3565-.3957,.7824-.4022,1.2209l-.1028,6.9243c-.0214,1.4419-1.4276,2.4548-2.802,2.0184l-6.6001-2.0959c-.4179-.1327-.8664-.1345-1.2854-.0052l-6.617,2.042c-1.3779,.4252-2.7757-.5991-2.7853-2.0411l-.0461-6.9249c-.0029-.4385-.1398-.8656-.3922-1.2241L.4685,13.364c-.8302-1.1791-.2879-2.8251,1.0805-3.2798l6.5716-2.1839c.4161-.1383,.78-.4004,1.043-.7513L13.3167,1.6074c.8648-1.1539,2.5978-1.1469,3.4531,.0141l4.1076,5.5752c.2601,.353,.6218,.6181,1.0368,.7598Z"/>
  <g>
    <path d="M11.8086,13.5871c0,.8129-.4628,1.472-1.0337,1.472-.5706,0-1.0334-.659-1.0334-1.472s.4628-1.4717,1.0334-1.4717c.5709,0,1.0337,.6587,1.0337,1.4717"/>
    <path d="M20.5274,13.5871c0,.8129-.4628,1.472-1.0337,1.472-.5706,0-1.0334-.659-1.0334-1.472s.4628-1.4717,1.0334-1.4717c.5709,0,1.0337,.6587,1.0337,1.4717"/>
    <path class="uuid-71cc9fdf-076b-49e7-a1a7-c1f98711d57d" d="M6.2927,18.8459c-.0481,0-.0971-.0107-.1434-.034-.1583-.0792-.2226-.2719-.1434-.4302l.8556-1.7113c.0795-.1583,.2719-.2226,.4305-.1434,.1584,.0792,.2226,.2719,.1434,.4305l-.8556,1.711c-.0562,.1124-.1694,.1775-.2871,.1775"/>
    <path class="uuid-71cc9fdf-076b-49e7-a1a7-c1f98711d57d" d="M7.683,18.8459c-.0484,0-.0971-.0107-.1431-.034-.1586-.0792-.2229-.2719-.1437-.4302l.8556-1.7113c.0792-.1583,.2722-.2226,.4302-.1434,.1586,.0792,.2229,.2719,.1437,.4305l-.8556,1.711c-.0562,.1124-.1694,.1775-.2871,.1775"/>
    <path class="uuid-71cc9fdf-076b-49e7-a1a7-c1f98711d57d" d="M9.0733,18.8459c-.0481,0-.0971-.0107-.1434-.034-.1583-.0792-.2226-.2719-.1434-.4302l.8556-1.7113c.0795-.1583,.2722-.2226,.4305-.1434s.2226,.2719,.1434,.4305l-.8556,1.711c-.0562,.1124-.1694,.1775-.2871,.1775"/>
    <path class="uuid-71cc9fdf-076b-49e7-a1a7-c1f98711d57d" d="M20.2489,18.8459c-.0481,0-.0971-.0107-.1434-.034-.1583-.0792-.2226-.2719-.1434-.4302l.8556-1.7113c.0795-.1583,.2722-.2226,.4305-.1434s.2226,.2719,.1434,.4305l-.8556,1.711c-.0562,.1124-.1694,.1775-.2871,.1775"/>
    <path class="uuid-71cc9fdf-076b-49e7-a1a7-c1f98711d57d" d="M21.6392,18.8459c-.0481,0-.0971-.0107-.1434-.034-.1583-.0792-.2226-.2719-.1434-.4302l.8556-1.7113c.0795-.1583,.2722-.2226,.4305-.1434s.2226,.2719,.1434,.4305l-.8556,1.711c-.0562,.1124-.1694,.1775-.2871,.1775"/>
    <path class="uuid-71cc9fdf-076b-49e7-a1a7-c1f98711d57d" d="M23.0294,18.8459c-.0481,0-.0971-.0107-.1434-.034-.1583-.0792-.2226-.2719-.1434-.4302l.8556-1.7113c.0795-.1583,.2722-.2226,.4305-.1434s.2226,.2719,.1434,.4305l-.8556,1.711c-.0562,.1124-.1694,.1775-.2871,.1775"/>
  </g>
</svg>