<?xml version="1.0" encoding="UTF-8"?>
<svg id="uuid-143b5243-aa13-44e2-a9e4-72ba2634ec63" data-name="Livello 1" xmlns="http://www.w3.org/2000/svg" width="30" height="30" viewBox="0 0 30 30">
  <defs>
    <style>
      .uuid-5d04eadc-4f97-42b1-ab23-5dd9bc3ca720 {
        fill: #4faeee;
      }
    </style>
  </defs>
  <path class="uuid-5d04eadc-4f97-42b1-ab23-5dd9bc3ca720" d="M22.0684,7.9206l6.5865,2.2487c1.3715,.4683,1.903,2.1269,1.0589,3.3051l-4.0533,5.6579c-.2566,.3582-.3977,.7864-.4042,1.227l-.1034,6.9592c-.0215,1.4492-1.4348,2.4672-2.8161,2.0285l-6.6334-2.1065c-.42-.1334-.8707-.1352-1.2918-.0053l-6.6504,2.0523c-1.3848,.4274-2.7897-.6021-2.7994-2.0514l-.0464-6.9598c-.0029-.4407-.1405-.8699-.3942-1.2303L.5146,13.3554c-.8344-1.185-.2894-2.8393,1.086-3.2964l6.6047-2.1949c.4182-.139,.7839-.4024,1.0482-.7551L13.4276,1.5396c.8692-1.1598,2.6109-1.1527,3.4705,.0141l4.1283,5.6033c.2614,.3548,.625,.6212,1.042,.7636Z"/>
  <path d="M8.4547,13.357c-.49,0-1.0152-.132-1.5711-.395-.2692-.1276-.3844-.4495-.2569-.719,.1278-.2692,.4492-.3838,.719-.2569,.6689,.3173,1.2392,.3742,1.6943,.1695,.7161-.3208,.9914-1.1981,.994-1.2069,.0842-.2862,.3841-.4495,.67-.3657,.2859,.0842,.4498,.3841,.3657,.67-.0164,.0554-.4117,1.3603-1.5881,1.8875-.3217,.1443-.6647,.2164-1.0269,.2164Z"/>
  <path d="M21.3626,13.357c-.3621,0-.7049-.0721-1.0269-.2164-1.1764-.5272-1.5717-1.8321-1.5881-1.8875-.0842-.2859,.0798-.5859,.3657-.67,.2847-.0842,.5844,.0789,.6694,.3633,.0065,.0208,.2844,.8952,1.0008,1.2119,.4542,.2014,1.0222,.1431,1.6881-.1721,.2695-.1273,.5911-.0123,.719,.2569,.1276,.2695,.0123,.5914-.2569,.719-.556,.263-1.0811,.395-1.5711,.395Z"/>
  <path d="M8.7201,15.0703c0-.7419,.6014-1.3434,1.3434-1.3434s1.3431,.6014,1.3431,1.3434-.6014,1.3434-1.3431,1.3434-1.3434-.6014-1.3434-1.3434"/>
  <path d="M18.1251,15.0703c0-.7419,.6014-1.3434,1.3434-1.3434s1.3431,.6014,1.3431,1.3434-.6014,1.3434-1.3431,1.3434-1.3434-.6014-1.3434-1.3434"/>
  <path d="M10.9126,21.0627c2.5826-.8887,5.5845-.8349,8.1616,.0551,.9346,.3228,1.828,.7761,2.612,1.381,.2441,.1884,.6924,.585,.9792,.216,.1643-.2113,.0262-.5627-.0866-.7653-.274-.4913-.7588-.8378-1.2013-1.1653-.5811-.4299-1.227-.7719-1.8944-1.0467-1.1354-.4672-2.3558-.7107-3.5781-.7926-.4603-.0309-.9225-.0394-1.3839-.0252l-.0396,.0013c-.6564,.0212-1.3115,.0892-1.9585,.2026-1.233,.216-2.4345,.6388-3.5251,1.2537-.1189,.0672-.237,.1362-.3538,.2074-.3908,.2388-.7677,.4787-.9921,.8958-.0814,.1512-.1273,.3312-.079,.496,.0819,.2803,.3842,.3827,.6477,.3265,.4147-.0887,.7504-.3281,1.1133-.531,.3834-.2144,.7811-.4031,1.1894-.5653,.1291-.0515,.2588-.0992,.389-.1441"/>
</svg>