<?xml version="1.0" encoding="UTF-8"?>
<svg id="uuid-ccbfba28-2b99-4627-a8da-32730fac384f" data-name="Livello 1" xmlns="http://www.w3.org/2000/svg" width="30" height="30" viewBox="0 0 30 30">
  <defs>
    <style>
      .uuid-dfaa99c2-a8c8-45a2-b2e1-c343458b2e83 {
        fill: #fff;
      }

      .uuid-820ff0ca-2e65-40da-9b91-629be08b5ea3 {
        fill: #143165;
      }
    </style>
  </defs>
  <path class="uuid-820ff0ca-2e65-40da-9b91-629be08b5ea3" d="M21.9491,7.9206l6.5865,2.2487c1.3715,.4683,1.903,2.1269,1.0589,3.3051l-4.0533,5.6579c-.2566,.3582-.3977,.7864-.4042,1.227l-.1034,6.9592c-.0215,1.4492-1.4348,2.4672-2.8161,2.0285l-6.6334-2.1065c-.42-.1334-.8707-.1352-1.2918-.0053l-6.6504,2.0523c-1.3848,.4274-2.7897-.6021-2.7994-2.0514l-.0464-6.9598c-.0029-.4407-.1405-.8699-.3942-1.2303L.3953,13.3554c-.8344-1.185-.2894-2.8393,1.086-3.2964l6.6047-2.1949c.4182-.139,.7839-.4024,1.0482-.7551L13.3082,1.5396c.8692-1.1598,2.6109-1.1527,3.4705,.0141l4.1283,5.6033c.2614,.3548,.625,.6212,1.042,.7636Z"/>
  <path d="M19.5282,22.8181c1.0836,0,1.828-1.0245,1.3713-1.9208-.9284-1.8217-3.1378-3.1035-5.7155-3.1035s-4.7868,1.2818-5.7152,3.1035c-.457,.8963,.2877,1.9208,1.3713,1.9208h8.6882Z"/>
  <path d="M7.7968,13.3208c-.4571,0-.9501-.1243-1.4749-.373-.1569-.0742-.224-.2621-.1495-.4193,.0742-.1569,.2621-.2243,.4193-.1495,.7287,.3451,1.3609,.4032,1.8784,.1733,.8175-.3636,1.1192-1.3418,1.1222-1.3518,.0496-.1663,.2258-.2613,.3912-.2117,.1666,.0496,.2616,.2237,.2126,.3903-.015,.0513-.3815,1.2606-1.4644,1.7459-.2918,.1308-.6038,.1959-.9348,.1959Z"/>
  <path d="M22.2789,13.3208c-.3311,0-.643-.0651-.9348-.1959-1.0829-.4853-1.4494-1.6946-1.4644-1.7459-.049-.1668,.0463-.3419,.2132-.3909,.1671-.049,.3416,.0463,.3906,.2123h0c.0029,.01,.3047,.9882,1.1222,1.3518,.5178,.2299,1.15,.1715,1.8784-.1733,.1583-.0748,.3451-.0073,.4193,.1495,.0745,.1572,.0073,.3451-.1495,.4193-.5249,.2487-1.0178,.373-1.4749,.373Z"/>
  <path d="M8.2762,15.4728c-.1613,0-.3205-.0718-.4269-.2088-.1824-.2352-.1405-.5733,.0944-.7562,.0968-.0757,2.3974-1.8371,4.6201-.9017,.2748,.1158,.4038,.4322,.2882,.707s-.4328,.4032-.707,.2882c-1.6362-.6885-3.5202,.7442-3.539,.7586-.0982,.0759-.2146,.1129-.3299,.1129Z"/>
  <path d="M22.0092,15.5716c-.1516,0-.3023-.0636-.4091-.1874-1.1588-1.3444-3.4832-.9002-3.507-.8955-.2929,.0569-.5765-.1314-.6351-.4231s.1296-.5759,.4214-.6351c.1205-.024,2.9645-.5768,4.5383,1.2489,.1947,.2258,.1695,.5668-.0563,.7612-.102,.088-.2275,.1311-.3522,.1311Z"/>
  <path class="uuid-dfaa99c2-a8c8-45a2-b2e1-c343458b2e83" d="M22.0081,16.7108c.0713,.4432,.2724,.9505,.641,1.229,.3333,.2515,.8053,.1917,1.0889-.1059,.4313-.4522,.2641-1.1768,.0623-1.6928-.2447-.6255-.6969-1.2575-1.3303-1.5317-.3088-.1337-.6507-.1614-.9739-.0623-.2843,.0868-.1236,.3549-.0191,.5268,.1852,.3045,.329,.6396,.4162,.9855,.0541,.2133,.08,.4339,.115,.6514"/>
  <path class="uuid-dfaa99c2-a8c8-45a2-b2e1-c343458b2e83" d="M8.3965,16.7108c-.0714,.4432-.2724,.9505-.641,1.229-.3333,.2515-.8053,.1917-1.0889-.1059-.4313-.4522-.2641-1.1768-.0623-1.6928,.2447-.6255,.6968-1.2575,1.3303-1.5317,.3088-.1337,.6507-.1614,.9739-.0623,.2843,.0868,.1236,.3549,.0191,.5268-.1852,.3045-.329,.6396-.4162,.9855-.0541,.2133-.08,.4339-.1149,.6514"/>
</svg>