<?xml version="1.0" encoding="UTF-8"?>
<svg id="uuid-aed3166e-6da6-447e-b037-40f02b66a111" data-name="Livello 1" xmlns="http://www.w3.org/2000/svg" width="30" height="30" viewBox="0 0 30 30">
  <defs>
    <style>
      .uuid-d5f3e1f5-5cc0-4535-8a4e-e888267fbaba {
        fill: #f5c342;
      }
    </style>
  </defs>
  <path class="uuid-d5f3e1f5-5cc0-4535-8a4e-e888267fbaba" d="M20.8215,27.2365H9.1785c-3.546,0-6.421-2.875-6.421-6.421V9.1845c0-3.546,2.875-6.421,6.421-6.421h11.636c3.544,0,6.418,2.872,6.42,6.417l.008,11.631c.002,3.548-2.873,6.425-6.421,6.425"/>
  <path d="M19.9279,15.7352c1.067,0,1.79,1.082,1.3879,2.07-.95,2.332-3.459,3.998-6.405,3.998s-5.455-1.666-6.405-3.998c-.403-.988,.32-2.07,1.387-2.07h10.035Z"/>
  <path d="M12.8776,11.9403c-.1387,0-.2764-.0557-.3789-.165-.4805-.5176-.9688-.751-1.4385-.7529-.7539,.0273-1.3135,.7158-1.3193,.7227-.1777,.2207-.5029,.2578-.7246,.082-.2227-.1768-.2617-.499-.0859-.7227,.0342-.043,.8486-1.0625,2.0811-1.1133,.8037-.0537,1.5488,.332,2.2451,1.0811,.1934,.209,.1816,.5361-.0273,.7305-.0996,.0918-.2256,.1377-.3516,.1377Z"/>
  <path d="M20.403,11.9403c-.1387,0-.2764-.0557-.3789-.165-.4795-.5176-.9746-.751-1.4385-.7529-.7539,.0273-1.3135,.7158-1.3193,.7227-.1768,.2207-.502,.2578-.7246,.082-.2227-.1768-.2617-.499-.0859-.7227,.0342-.043,.8486-1.0625,2.0811-1.1133,.8193-.0537,1.5479,.332,2.2451,1.0811,.1934,.209,.1816,.5361-.0273,.7305-.0996,.0918-.2256,.1377-.3516,.1377Z"/>
</svg>