<?xml version="1.0" encoding="UTF-8"?>
<svg id="uuid-2dd5c0fd-a7f6-4a1b-b98a-32a7234967b7" data-name="Livello 1" xmlns="http://www.w3.org/2000/svg" width="30" height="30" viewBox="0 0 30 30">
  <defs>
    <style>
      .uuid-8ff44eca-7bf4-4158-9329-0b688a14e080 {
        fill: #1d1e1b;
      }

      .uuid-913bd764-eb57-4824-a24d-a9ca95b5cd86 {
        fill: #f5c342;
      }
    </style>
  </defs>
  <path class="uuid-913bd764-eb57-4824-a24d-a9ca95b5cd86" d="M21.9145,7.9564l6.5535,2.2374c1.3647,.4659,1.8934,2.1163,1.0536,3.2885l-4.0329,5.6296c-.2554,.3565-.3957,.7824-.4022,1.2209l-.1028,6.9243c-.0214,1.4419-1.4276,2.4548-2.802,2.0184l-6.6001-2.0959c-.4179-.1327-.8664-.1345-1.2854-.0052l-6.617,2.042c-1.3779,.4252-2.7757-.5991-2.7853-2.0411l-.0461-6.9249c-.0029-.4385-.1398-.8656-.3922-1.2241L.4688,13.364c-.8302-1.1791-.2879-2.8251,1.0805-3.2798l6.5716-2.1839c.4161-.1383,.78-.4004,1.043-.7513L13.317,1.6074c.8648-1.1539,2.5978-1.1469,3.4531,.0141l4.1076,5.5752c.2601,.353,.6218,.6181,1.0368,.7598Z"/>
  <g>
    <path d="M20.1061,16.8486c1.1096,0,1.8619,1.1252,1.4433,2.1526-.988,2.425-3.5974,4.1575-6.6611,4.1575s-5.6731-1.7325-6.6611-4.1575c-.4186-1.0274,.3337-2.1526,1.4433-2.1526h10.4356Z"/>
    <path class="uuid-8ff44eca-7bf4-4158-9329-0b688a14e080" d="M12.7741,12.9014c-.1436,0-.2881-.0576-.3936-.1719-.498-.5361-.9893-.7783-1.4961-.7822-.7842,.0283-1.3662,.7441-1.3721,.751-.1865,.2305-.5244,.2695-.7539,.085-.2314-.1836-.2715-.5186-.0889-.751,.0352-.0449,.8828-1.1045,2.1641-1.1572,.8369-.0498,1.6104,.3447,2.334,1.124,.2021,.2168,.1895,.5566-.0283,.7588-.1035,.0957-.2344,.1436-.3652,.1436Z"/>
    <path class="uuid-8ff44eca-7bf4-4158-9329-0b688a14e080" d="M16.9176,12.9014c-.1162,0-.2334-.0371-.332-.1152-.2334-.1826-.2734-.5205-.0898-.7539,.0352-.0449,.8818-1.1045,2.1631-1.1572,.8076-.0469,1.6104,.3428,2.335,1.124,.2021,.2168,.1895,.5566-.0283,.7588-.2168,.2012-.5576,.1904-.7588-.0283-.5-.5381-.9971-.8008-1.5029-.7812-.7803,.0322-1.3584,.7402-1.3643,.748-.1055,.1348-.2627,.2051-.4219,.2051Z"/>
  </g>
</svg>