<?xml version="1.0" encoding="UTF-8"?>
<svg id="uuid-c32ddc9a-08e9-407e-ba3c-e9032a1bf893" data-name="Livello 1" xmlns="http://www.w3.org/2000/svg" width="30" height="30" viewBox="0 0 30 30">
  <defs>
    <style>
      .uuid-069c1507-b669-4a76-86dc-4a4ce9e0c107 {
        fill: #4eac58;
      }

      .uuid-fca29428-ebff-44f5-90db-7fc73d618c65 {
        fill: #1d1e1b;
      }
    </style>
  </defs>
  <path class="uuid-069c1507-b669-4a76-86dc-4a4ce9e0c107" d="M21.9867,7.9206l6.5865,2.2487c1.3715,.4683,1.903,2.1269,1.0589,3.3051l-4.0533,5.6579c-.2566,.3582-.3977,.7864-.4042,1.227l-.1034,6.9592c-.0215,1.4492-1.4348,2.4672-2.8161,2.0285l-6.6334-2.1065c-.42-.1334-.8707-.1352-1.2918-.0053l-6.6504,2.0523c-1.3848,.4274-2.7897-.6021-2.7994-2.0514l-.0464-6.9598c-.0029-.4407-.1405-.8699-.3942-1.2303L.4329,13.3554c-.8344-1.185-.2894-2.8393,1.086-3.2964l6.6047-2.1949c.4182-.139,.7839-.4024,1.0482-.7551L13.3458,1.5396c.8692-1.1598,2.6109-1.1527,3.4705,.0141l4.1283,5.6033c.2614,.3548,.625,.6212,1.042,.7636Z"/>
  <path d="M20.4374,16.9075c1.1152,0,1.8712,1.1308,1.4506,2.1634-.993,2.4372-3.6155,4.1785-6.6947,4.1785s-5.7017-1.7413-6.6947-4.1785c-.4207-1.0326,.3354-2.1634,1.4506-2.1634h10.4882Z"/>
  <path class="uuid-fca29428-ebff-44f5-90db-7fc73d618c65" d="M19.0808,12.9405c-.7914,0-1.5459-.3803-2.2438-1.1321-.2029-.2182-.19-.5598,.0284-.7627,.2179-.2026,.5595-.1903,.7627,.0284,.5032,.5416,1.0037,.8026,1.5104,.7858,.7841-.0323,1.365-.7451,1.3708-.7521,.1841-.2343,.5237-.2748,.7577-.0909,.2346,.1841,.275,.5234,.0909,.7577-.0355,.0455-.887,1.1107-2.1749,1.1638-.0343,.0015-.0686,.0021-.1023,.0021Z"/>
  <path class="uuid-fca29428-ebff-44f5-90db-7fc73d618c65" d="M11.2159,12.9405c-.7914,0-1.5459-.3803-2.2438-1.1321-.2029-.2182-.19-.5598,.0284-.7627,.2179-.2026,.5595-.1903,.7627,.0284,.5032,.5416,1.0052,.8026,1.5104,.7858,.7841-.0323,1.365-.7451,1.3708-.7521,.1841-.2343,.5234-.2748,.7577-.0909,.2346,.1841,.275,.5234,.0909,.7577-.0355,.0455-.887,1.1107-2.1749,1.1638-.0343,.0015-.0686,.0021-.1023,.0021Z"/>
</svg>