<?xml version="1.0" encoding="UTF-8"?>
<svg id="uuid-973d7b4b-9575-4060-8bec-c6b1cf8f842d" data-name="Livello 1" xmlns="http://www.w3.org/2000/svg" width="16" height="16" viewBox="0 0 16 16">
  <defs>
    <style>
      .uuid-e3ea2690-7b8e-4ff6-8566-1df1d9974a34 {
        fill: none;
        stroke: #f1b300;
        stroke-miterlimit: 10;
        stroke-width: .3647px;
      }
    </style>
  </defs>
  <path class="uuid-e3ea2690-7b8e-4ff6-8566-1df1d9974a34" d="M5.7297,6.5367c.9417,1.5668,2.1688,2.7991,3.734,3.7336,.1613-.221,.3067-.423,.455-.6228,.3887-.5236,.8732-.6162,1.4206-.2572,.7409,.4859,1.4782,.9775,2.2116,1.4746,.4655,.3155,.5773,.8316,.2975,1.3247-.1291,.2275-.288,.4398-.4007,.6747-.3944,.8219-1.0942,1.107-1.9454,1.1329-.9511,.0289-1.8462-.2221-2.659-.6824-2.6922-1.5245-4.818-3.6265-6.2594-6.377-.4733-.9031-.6984-1.8825-.526-2.921,.0982-.5915,.3668-1.0546,.9026-1.3518,.2903-.161,.5669-.3466,.8548-.5122,.4889-.2813,1.006-.1678,1.3235,.3002,.5032,.7417,1.002,1.4865,1.4915,2.2372,.3347,.5133,.2378,1.0064-.2532,1.3787-.2001,.1517-.4069,.2946-.6472,.4679Z"/>
</svg>