<?xml version="1.0" encoding="UTF-8"?>
<svg id="uuid-f9787253-7949-4f0d-baa6-7d2d5907595d" data-name="Livello 1" xmlns="http://www.w3.org/2000/svg" width="20" height="20" viewBox="0 0 20 20">
  <defs>
    <style>
      .uuid-adfb211d-556f-4de1-a0b1-1df864dfff56 {
        fill: #fff;
      }
    </style>
  </defs>
  <path class="uuid-adfb211d-556f-4de1-a0b1-1df864dfff56" d="M15.9916,16.7388H4.0099c-.0077-.0044-.015-.0113-.0236-.0133-.7246-.1798-1.053-.5828-1.053-1.2928v-5.8372c0-1.7047-.0016-3.4095,.0007-5.1142,.0009-.6734,.532-1.2014,1.2224-1.2069,.8602-.0071,1.7206-.013,2.5804,.0024,.7038,.0128,1.2683,.3103,1.6595,.8679,.1475,.2105,.2381,.4572,.3637,.7054h2.6042c1.4766,.0002,2.9532-.0022,4.4296,.0013,.551,.0013,.9452,.2489,1.1751,.7259,.0453,.0941,.0669,.1988,.0994,.2986V15.7129c-.0099,.0333-.021,.0665-.0298,.1-.1117,.4159-.3757,.7036-.7977,.856-.0808,.0289-.1661,.0468-.2491,.0698m.2485-7.9338H3.7615v6.661c0,.3414,.1511,.4837,.5135,.4837H15.7293c.3598,0,.5106-.1436,.5106-.4863,.0002-2.1694,.0002-4.3388,.0002-6.5082v-.1502Zm0-.8046l-.0002-.1009c0-.6091,.0009-1.2182-.0002-1.8273-.0007-.2719-.1698-.4318-.4556-.4327-.3726-.0013-.7451-.0004-1.1177-.0004-2.0883,0-4.1765,.0002-6.2646,0-.2816-.0002-.4565-.1466-.4715-.3918-.0442-.7257-.5541-1.1857-1.3163-1.1862-.7865-.0004-1.5731-.0002-2.3596,0-.3339,0-.4927,.1493-.4929,.4633-.0002,1.1131,0,2.2262,0,3.3392v.1354h.8282v-1.0687c0-.364,.1436-.5022,.5212-.5022H14.894c.0415,0,.083-.0016,.1243,.0011,.2133,.0137,.3777,.1696,.392,.3732,.004,.0568,.0013,.1137,.0013,.1707,.0002,.3405,0,.6809,0,1.0272h.8284Zm-1.6634-.7743H5.4287v.7741H14.5767v-.7741Z"/>
  <path class="uuid-adfb211d-556f-4de1-a0b1-1df864dfff56" d="M10.4148,10.9658c0,.7282,.0002,1.4243-.0004,2.1206,0,.0523,.0011,.1062-.0106,.1568-.0468,.2001-.2425,.3337-.4479,.3107-.214-.0239-.3677-.1895-.3684-.4081-.0022-.6528-.0009-1.3059-.0009-1.9587v-.2184c-.0521,.0455-.0855,.0722-.1162,.1014-.2703,.2568-.5387,.5155-.811,.7705-.1862,.1747-.434,.1824-.6038,.025-.1736-.1608-.1674-.4042,.021-.5846,.5353-.5126,1.072-1.0239,1.61-1.5338,.1928-.1824,.4313-.1855,.6235-.0042,.5424,.5122,1.0822,1.0267,1.6199,1.5431,.1831,.1758,.1871,.4154,.0199,.5753-.1707,.1634-.4225,.1546-.6137-.0258-.2683-.2527-.5338-.508-.8006-.7617-.0316-.03-.0652-.0583-.1208-.108"/>
  <path class="uuid-adfb211d-556f-4de1-a0b1-1df864dfff56" d="M12.0714,14.3358c0-.1307-.0022-.2529,.0004-.375,.0053-.2325,.1846-.4055,.4159-.4044,.2312,.0016,.4081,.1745,.411,.409,.0031,.254,.0033,.5082-.0002,.7624-.0033,.2387-.1765,.4053-.4276,.4055-1.6464,.0018-3.2928,.0018-4.9393,.0002-.2518-.0002-.4256-.1665-.4289-.4046-.0033-.2542-.0029-.5082,0-.7624,.0024-.2345,.1785-.4079,.4097-.4101,.2363-.002,.4134,.1738,.4174,.4163,.0018,.1179,.0002,.2359,.0002,.3631h4.1414Z"/>
</svg>