<?xml version="1.0" encoding="UTF-8"?>
<svg id="uuid-0db8bbfa-0611-4815-9231-3659e1c5beb2" data-name="Livello 1" xmlns="http://www.w3.org/2000/svg" width="36" height="36" viewBox="0 0 36 36">
  <defs>
    <style>
      .uuid-b8223945-fc86-4d16-878b-b48736a2b19a {
        fill: #f0b300;
      }
    </style>
  </defs>
  <path class="uuid-b8223945-fc86-4d16-878b-b48736a2b19a" d="M17.629,32.1217c-.529-.126-1.034-.302-1.459-.663-.697-.592-1.074-1.335-1.083-2.256-.001-.082-.004-.165-.009-.247-.001-.016-.014-.032-.037-.08H7.206c-.615,0-.816-.211-.756-.824,.11-1.114,.617-2.006,1.531-2.655,.16-.114,.223-.227,.223-.424-.007-2.803-.004-5.607-.005-8.41-.001-3.194,1.222-5.817,3.698-7.836,.985-.803,2.102-1.377,3.334-1.709,.232-.063,.321-.156,.3069-.411-.047-.899,.243-1.669,.983-2.218,.753-.56,1.595-.66,2.449-.296,.8651,.369,1.371,1.049,1.476,2.001,.013,.119,.028,.237,.031,.357,.015,.527,.018,.514,.5,.684,3.044,1.076,5.1,3.143,6.159,6.192,.359,1.034,.487,2.106,.486,3.198-.005,2.776,.001,5.551-.007,8.327-.001,.211,.066,.324,.242,.438,1.067,.691,1.646,1.674,1.702,2.951,.0179,.423-.207,.634-.675,.634-2.527,.002-5.055,.001-7.582,.001h-.352c-.019,.231-.029,.447-.054,.662-.147,1.255-1.106,2.287-2.345,2.531-.051,.01-.1,.035-.15,.053h-.772Zm10.77-4.358c-.222-.782-.66-1.35-1.365-1.675-.38-.175-.524-.423-.523-.835,.011-2.922,.001-5.845,.008-8.767,.004-1.528-.317-2.979-1.079-4.304-1.393-2.42-3.465-3.902-6.238-4.34-2.232-.352-4.31,.116-6.152,1.41-2.498,1.755-3.733,4.205-3.746,7.257-.01,2.73-.002,5.459-.002,8.188v.314h9.622c.101,0,.203-.004,.303,.01,.325,.049,.52,.28,.5,.584-.019,.289-.232,.486-.552,.507-.092,.006-.184,.002-.276,.002-3.161,0-6.323,.013-9.483-.012-.541-.005-.911,.203-1.237,.575-.271,.311-.482,.654-.554,1.086H28.399Zm-8.581,1.127h-3.613c-.076,.745,.145,1.361,.754,1.786,.628,.439,1.305,.468,1.97,.074,.691-.409,.921-1.056,.889-1.86m-.457-22.276c.046-.595-.113-1.081-.61-1.4-.494-.316-1.016-.314-1.506,.006-.492,.322-.659,.805-.595,1.394h2.7111Z"/>
  <path class="uuid-b8223945-fc86-4d16-878b-b48736a2b19a" d="M17.9965,17.4535c.287,0,.546,.259,.548,.548,.001,.29-.254,.544-.547,.545-.295,.001-.542-.246-.542-.544-.001-.294,.25-.549,.541-.549"/>
</svg>