<?xml version="1.0" encoding="UTF-8"?>
<svg id="uuid-946796b3-4de5-419a-a5a6-6bf6e5240871" data-name="Livello 1" xmlns="http://www.w3.org/2000/svg" width="16" height="16" viewBox="0 0 16 16">
  <defs>
    <style>
      .uuid-a9747d6c-d3c7-43a4-9d12-2d6ae0896368 {
        fill: #fff;
      }

      .uuid-ab49b6a9-dd4a-46bb-b41a-a70460b75a2e {
        fill: #573d6b;
      }
    </style>
  </defs>
  <path class="uuid-ab49b6a9-dd4a-46bb-b41a-a70460b75a2e" d="M12.974,8c0,2.747-2.2271,4.974-4.9741,4.974S3.026,10.747,3.026,8,5.253,3.026,8,3.026s4.9741,2.227,4.9741,4.974"/>
  <path class="uuid-a9747d6c-d3c7-43a4-9d12-2d6ae0896368" d="M8.5731,6.8821v3.462c0,.222,.038,.374,.115,.453,.077,.08,.208,.12,.394,.12v.167c-.101-.006-.25-.012-.449-.02-.2-.008-.402-.012-.609-.012s-.417,.004-.629,.012c-.212,.008-.371,.014-.478,.02v-.167c.186,0,.318-.04,.394-.12,.077-.079,.116-.231,.116-.453v-2.507c0-.239-.036-.415-.107-.529-.072-.115-.206-.172-.403-.172v-.167c.17,.016,.335,.024,.494,.024,.223,0,.431-.009,.625-.028,.193-.018,.372-.046,.537-.083m-.621-1.966c.223,0,.399,.054,.529,.163,.13,.109,.195,.259,.195,.45s-.065,.341-.195,.449c-.13,.109-.306,.164-.529,.164s-.399-.055-.5291-.164c-.13-.108-.195-.258-.195-.449s.065-.341,.195-.45c.13-.109,.306-.163,.5291-.163"/>
</svg>