<?xml version="1.0" encoding="UTF-8"?>
<svg id="uuid-5f0ae27f-d1e0-4f78-ae24-fb4b651510c0" data-name="Livello 1" xmlns="http://www.w3.org/2000/svg" width="24" height="24" viewBox="0 0 24 24">
  <defs>
    <style>
      .uuid-fdc57ca6-c21b-4eb2-be3e-a5cd1c0a75e3 {
        fill: none;
        stroke: #fff;
        stroke-linecap: round;
        stroke-linejoin: round;
        stroke-width: .9211px;
      }

      .uuid-3c00ad8c-c96d-412f-8c06-0d435393bdc8 {
        fill: #573e6c;
      }
    </style>
  </defs>
  <path class="uuid-3c00ad8c-c96d-412f-8c06-0d435393bdc8" d="M13.2192,3.1026c.2092,.3613,.4417,.6912,.5981,1.049,.2571,.589,.2459,1.2051,.037,1.8045-.1425,.4085-.2275,.8204-.2983,1.2431-.271,1.6165-.9882,3.0386-2.2683,4.2035-.0471,.0432-.0734,.1446-.0545,.2042,.3435,1.0901,1.1449,1.7211,2.3515,1.9242,.6622,.1115,1.2843,.2958,1.7938,.7199,.7014,.5837,1.0387,1.3118,1.0351,2.1777-.0037,.8676,0,1.7353-.0011,2.6026-.0003,.3181-.0844,.3949-.4321,.3951-2.023,.0006-4.0459,.0003-6.0689,.0003H2.0981c-.4146,0-.4835-.0632-.4835-.4415,0-.8488-.0011-1.6979,.0003-2.547,.0023-1.483,1.0272-2.6038,2.62-2.8651,.4612-.0756,.914-.1724,1.3136-.4108,.6184-.3691,1.0421-.87,1.2428-1.5267,.0344-.1124,.0082-.1793-.0785-.2593-1.374-1.2689-2.1079-2.8095-2.3013-4.5764-.0539-.4928-.1106-.9861-.1344-1.4806-.0356-.7405,.011-1.476,.337-2.1701,.3302-.7037,.9128-1.1177,1.7393-1.2454,.0737-.0113,.166-.0342,.2094-.0823,.6255-.6898,1.45-.8998,2.391-.8755,.4872,.0127,.9221,.1634,1.3639,.3204,.5747,.2048,1.1615,.3699,1.7887,.3682,.3605-.0012,.6935-.0788,1.0001-.2578,.2563-.1501,.4491-.0721,.5281,.2028,.1719,.5962,.0878,1.1316-.4155,1.5229m-6.9987,1.027c-.1976,.6846-.4005,1.339-.571,2.0004-.0819,.3178-.1795,.5843-.6006,.6-.0048,.0003-.0093,.0078-.0192,.0165,0,.0568-.0082,.1191,.0011,.179,.269,1.6884,.956,3.1829,2.4229,4.3011,.4925,.3754,1.0689,.5759,1.7263,.5287,.7152-.0516,1.2803-.3853,1.7644-.832,1.124-1.0374,1.7396-2.3127,2.0024-3.7397,.0844-.4577,.0728-.4676-.4183-.5695-.2292-.0475-.3565-.1573-.4415-.3569-.245-.5765-.5157-1.1437-.763-1.7194-.0604-.1405-.1403-.1785-.2984-.1773-.9269,.007-1.8542,.0003-2.7811,.0043-.6774,.0032-1.3549,.0159-2.0241-.2352m3.1068,10.7577v3.968h6.4494c.0042-.0504,.0107-.0924,.0107-.1344,.0003-.7996,.0076-1.5991-.0023-2.3987-.0127-1.0447-.7881-1.9166-1.9016-2.1565-.3286-.071-.6684-.1139-.9834-.2187-.3621-.1208-.7028-.2961-1.0613-.4511-.5752,.8106-1.4082,1.2816-2.5116,1.3914m-7.0955,3.9668h6.4432c.0096-.0269,.0209-.0437,.0209-.0605,.0017-1.2645,.0017-2.5288,.0045-3.793,.0003-.0994-.0483-.1205-.1459-.1301-.4494-.0437-.8694-.1732-1.2614-.3795-.4728-.2489-.8442-.5945-1.1491-1.0186-.5603,.3966-1.2072,.553-1.8779,.6701-1.1386,.1987-1.9654,.996-2.0235,2.0175-.0505,.8894-.0107,1.7828-.0107,2.6942M4.9537,6.143l.0508,.007c.0209-.0634,.0435-.1266,.0618-.1906,.2173-.7599,.4324-1.5203,.6517-2.2796,.0824-.2859,.3017-.3445,.5634-.1683,.1011,.0684,.2188,.1379,.3384,.1576,.3511,.0576,.7065,.1228,1.061,.1275,1.2174,.0151,2.4354,.0084,3.6527,.0035,.2252-.0009,.3616,.0721,.4474,.2706,.2667,.615,.553,1.2228,.8225,1.837,.0514,.117,.118,.1834,.2569,.197,.0912,.009,.1801,.0379,.2659,.0571,.5064-.8563,.2665-2.0583-.5487-2.7999-.2693-.2451-.2464-.405,.0818-.5753,.3077-.1596,.4691-.4383,.4288-.7208-.2907,.0426-.5803,.1095-.8728,.1234-.8239,.0394-1.59-.1938-2.3326-.4829-.4245-.1654-.8558-.2132-1.3057-.195-.6743,.0272-1.2239,.2688-1.6354,.7706-.0644,.0782-.195,.1483-.3003,.155-.8482,.0556-1.3464,.4887-1.5781,1.2075-.2653,.8242-.1987,1.662-.1095,2.4989m6.4183,6.978c-.2693-.4392-.5143-.8384-.7618-1.2419-1.0619,.6029-2.1528,.5956-3.1887,.0119-.2351,.3633-.4409,.717-.6873,1.0452-.0954,.1275-.1027,.199-.0119,.3155,.5682,.7297,1.332,1.0829,2.3162,1.0742,1.05-.009,1.8133-.4395,2.3335-1.2049"/>
  <g>
    <ellipse class="uuid-3c00ad8c-c96d-412f-8c06-0d435393bdc8" cx="17.398" cy="17.9365" rx="4.9879" ry="5.1193"/>
    <g>
      <line class="uuid-fdc57ca6-c21b-4eb2-be3e-a5cd1c0a75e3" x1="17.398" y1="14.9701" x2="17.398" y2="20.9028"/>
      <line class="uuid-fdc57ca6-c21b-4eb2-be3e-a5cd1c0a75e3" x1="14.3577" y1="17.9365" x2="20.4383" y2="17.9365"/>
    </g>
  </g>
</svg>