<?xml version="1.0" encoding="UTF-8"?>
<svg id="uuid-a15ba16e-2f2d-4476-b462-e0e0b3a7156f" data-name="Livello 1" xmlns="http://www.w3.org/2000/svg" width="24" height="24" viewBox="0 0 24 24">
  <defs>
    <style>
      .uuid-6d7122fa-513d-43a8-97da-fee7f110e8ee {
        fill: #573e6c;
      }
    </style>
  </defs>
  <path class="uuid-6d7122fa-513d-43a8-97da-fee7f110e8ee" d="M16.3532,4.5477c.2165,.3801,.4573,.7273,.6191,1.1037,.2662,.6197,.2545,1.268,.0383,1.8986-.1476,.4298-.2355,.8632-.3088,1.3079-.2805,1.7008-1.0229,3.1971-2.348,4.4227-.0488,.0454-.076,.1521-.0564,.2149,.3556,1.147,1.1851,1.8108,2.4342,2.0245,.6855,.1174,1.3294,.3112,1.8568,.7574,.7261,.6142,1.0752,1.3802,1.0714,2.2912-.0038,.9129,0,1.8258-.0012,2.7384-.0003,.3347-.0874,.4154-.4473,.4158-2.0941,.0006-4.1882,.0003-6.2823,.0003H4.8411c-.4292,0-.5005-.0664-.5005-.4645,0-.8931-.0012-1.7865,.0003-2.6798,.0023-1.5603,1.0633-2.7396,2.7121-3.0145,.4774-.0796,.9461-.1814,1.3598-.4322,.6402-.3883,1.0788-.9153,1.2865-1.6063,.0356-.1183,.0085-.1887-.0812-.2728-1.4224-1.335-2.182-2.956-2.3822-4.815-.0558-.5185-.1145-1.0376-.1391-1.5579-.0368-.7791,.0114-1.553,.3489-2.2833,.3419-.7404,.9449-1.1759,1.8004-1.3104,.0763-.0119,.1718-.036,.2168-.0866,.6475-.7257,1.501-.9467,2.4751-.9211,.5043,.0134,.9546,.1719,1.4118,.3371,.5949,.2155,1.2023,.3892,1.8516,.3874,.3731-.0012,.7179-.0829,1.0352-.2713,.2653-.1579,.4649-.0759,.5467,.2134,.1779,.6273,.0909,1.1906-.4301,1.6024m-7.2448,1.0805c-.2045,.7203-.4146,1.4088-.5911,2.1047-.0847,.3344-.1858,.6148-.6218,.6313-.005,.0003-.0096,.0082-.0199,.0174,0,.0597-.0085,.1253,.0012,.1884,.2785,1.7764,.9896,3.3489,2.5081,4.5254,.5099,.395,1.1065,.606,1.787,.5563,.7404-.0543,1.3254-.4054,1.8265-.8754,1.1635-1.0915,1.8007-2.4333,2.0728-3.9347,.0874-.4816,.0754-.492-.433-.5992-.2373-.05-.369-.1655-.457-.3755-.2536-.6066-.5338-1.2034-.7898-1.809-.0625-.1478-.1452-.1878-.3088-.1865-.9595,.0073-1.9194,.0003-2.8789,.0046-.7012,.0034-1.4025,.0168-2.0953-.2475m3.2161,11.3186v4.1749h6.6762c.0044-.053,.0111-.0972,.0111-.1414,.0003-.8413,.0079-1.6825-.0023-2.5238-.0131-1.0991-.8158-2.0166-1.9685-2.269-.3401-.0747-.6919-.1198-1.018-.2301-.3749-.1271-.7275-.3115-1.0986-.4746-.5955,.8528-1.4577,1.3485-2.5999,1.464m-7.345,4.1737h6.6697c.0099-.0283,.0216-.046,.0216-.0637,.0018-1.3305,.0018-2.6606,.0047-3.9908,.0003-.1045-.05-.1268-.1511-.1369-.4652-.046-.8999-.1823-1.3058-.3993-.4894-.2618-.8739-.6255-1.1895-1.0717-.58,.4173-1.2497,.5819-1.9439,.705-1.1787,.2091-2.0345,1.0479-2.0947,2.1227-.0523,.9358-.0111,1.8758-.0111,2.8347M7.7971,7.7466l.0526,.0073c.0216-.0668,.045-.1332,.064-.2006,.225-.7995,.4476-1.5996,.6747-2.3985,.0853-.3008,.3123-.3624,.5832-.1771,.1046,.0719,.2264,.1451,.3503,.1658,.3635,.0607,.7313,.1292,1.0983,.1341,1.2602,.0159,2.521,.0088,3.7812,.0037,.2332-.0009,.3743,.0759,.4631,.2847,.2761,.6471,.5724,1.2866,.8514,1.9328,.0532,.1231,.1221,.1929,.2659,.2073,.0944,.0094,.1864,.0399,.2752,.06,.5242-.901,.2758-2.1656-.568-2.9459-.2787-.2579-.2551-.4261,.0847-.6053,.3185-.1679,.4856-.4612,.4438-.7584-.301,.0448-.6007,.1152-.9034,.1298-.8529,.0415-1.6459-.2039-2.4146-.5081-.4395-.174-.8859-.2243-1.3517-.2051-.698,.0287-1.2669,.2829-1.6929,.8108-.0666,.0823-.2019,.1561-.3109,.1631-.878,.0585-1.3937,.5142-1.6336,1.2704-.2747,.8672-.2057,1.7487-.1134,2.6293m6.644,7.3418c-.2787-.4621-.5324-.8821-.7886-1.3067-1.0992,.6343-2.2285,.6267-3.3008,.0125-.2434,.3822-.4564,.7544-.7115,1.0997-.0988,.1341-.1064,.2094-.0123,.3319,.5882,.7678,1.3788,1.1394,2.3977,1.1302,1.0869-.0094,1.877-.4624,2.4155-1.2677"/>
</svg>