<?xml version="1.0" encoding="UTF-8"?>
<svg id="uuid-8c94d2cb-f95b-496e-9464-829dd5f9205d" data-name="Livello 1" xmlns="http://www.w3.org/2000/svg" width="16" height="16" viewBox="0 0 16 16">
  <defs>
    <style>
      .uuid-7787ff53-8c4b-4bd5-8a59-3a5ce937fde3 {
        fill: #573d6b;
      }
    </style>
  </defs>
  <path class="uuid-7787ff53-8c4b-4bd5-8a59-3a5ce937fde3" d="M9.7575,9.279c.237,.236,.468,.466,.716,.712,.125-.128,.256-.264,.389-.397,.197-.196,.3589-.197,.5569,.002,1.098,1.099,2.197,2.197,3.2921,3.299,.414,.417,.52,.968,.2939,1.47-.218,.484-.697,.782-1.231,.759-.352-.016-.644-.166-.892-.416-.694-.699-1.391-1.396-2.088-2.093-.397-.399-.795-.797-1.193-1.196-.197-.199-.199-.361-.003-.558,.131-.132,.266-.26,.427-.416-.132-.121-.256-.229-.374-.344-.118-.116-.2289-.24-.347-.364-1.194,.995-2.542,1.387-4.055,1.118-1.234-.22-2.233-.853-2.987-1.8539-1.494-1.985-1.228-4.788,.605-6.462,1.836-1.679,4.6331-1.686,6.4771-.022,1.893,1.708,2.187,4.689,.413,6.762M1.9425,6.105c0,2.311,1.871,4.188,4.176,4.189,2.301,.001,4.178-1.88,4.179-4.189,0-2.308-1.875-4.186-4.1801-4.185-2.309,.001-4.175,1.872-4.175,4.185m8.308,5.047c.019,.0211,.0439,.05,.072,.078,1.004,1.007,2.009,2.014,3.014,3.02,.028,.029,.056,.057,.088,.082,.392,.314,.964,.094,1.043-.402,.039-.246-.065-.436-.234-.605-.999-.999-1.996-1.999-2.993-2.998-.031-.031-.065-.06-.086-.079l-.904,.904"/>
  <path class="uuid-7787ff53-8c4b-4bd5-8a59-3a5ce937fde3" d="M6.127,3.2053c-.763,.013-1.423,.265-1.98,.778-.211,.195-.394,.216-.536,.061-.145-.158-.112-.335,.099-.533,1.367-1.282,3.551-1.258,4.871,.052,.136,.136,.167,.299,.081,.435-.08,.126-.245,.187-.382,.127-.067-.029-.126-.082-.181-.133-.559-.52-1.223-.772-1.972-.787"/>
</svg>