<?xml version="1.0" encoding="UTF-8"?>
<svg id="uuid-1ec2a726-1ab1-4728-b8e6-4525fdfb6086" data-name="Livello 1" xmlns="http://www.w3.org/2000/svg" width="24" height="24" viewBox="0 0 24 24">
  <defs>
    <style>
      .uuid-34362dd8-4c87-4deb-9666-0353863316d4 {
        fill: #573e6c;
      }
    </style>
  </defs>
  <path class="uuid-34362dd8-4c87-4deb-9666-0353863316d4" d="M3.4331,19.2585V6.0768H1.8227v-1.4277H6.645v1.4277h-1.502v13.1816h-1.71Z"/>
  <path class="uuid-34362dd8-4c87-4deb-9666-0353863316d4" d="M8.0405,19.2585V4.6491h2.6396c.7471,0,1.3252,.1104,1.7354,.332,.4092,.2217,.6973,.5723,.8633,1.0547,.166,.4805,.251,1.1143,.2568,1.9004v.3154c0,.8135-.0762,1.4766-.2285,1.9883s-.4443,.8809-.876,1.1084c.3496,.1377,.6201,.3789,.8145,.7217,.1934,.3428,.3301,.7549,.4102,1.2373,.0801,.4805,.1211,.998,.1211,1.5518v.3076c-.0117,.9512-.1074,1.7285-.2871,2.332s-.4766,1.0469-.8926,1.332c-.4141,.2852-.9814,.4277-1.7012,.4277h-2.8555Zm1.7188-8.5078h.9707c.2324,0,.4209-.0264,.5645-.0791s.2559-.1592,.3359-.3193c.0801-.1611,.1348-.3984,.1621-.7148,.0273-.3145,.041-.7383,.041-1.2695v-.4062c0-.5537-.041-.9658-.124-1.2373s-.2148-.4512-.3945-.54c-.1797-.0879-.416-.1328-.71-.1328h-.8457v4.6992Zm0,7.1211h1.0537c.3262,0,.5781-.0801,.7549-.2402,.1777-.1602,.3018-.4414,.374-.8428s.1084-.958,.1084-1.6729v-.5059c0-.9023-.0723-1.5508-.2168-1.9463-.1436-.3955-.4531-.5938-.9297-.5938h-1.1445v5.8018Z"/>
  <path class="uuid-34362dd8-4c87-4deb-9666-0353863316d4" d="M15.6518,19.2585V4.6491h2.748c.7637,0,1.3584,.1592,1.7842,.4775s.7246,.7734,.8965,1.3652,.2568,1.3008,.2568,2.125l.0088,6.417c0,.9844-.0986,1.7881-.2949,2.4111-.1963,.6221-.5146,1.0801-.9541,1.374-.4404,.293-1.0254,.4395-1.7559,.4395h-2.6895Zm1.71-1.3867h.8799c.3096,0,.5674-.0674,.7715-.2031,.2051-.1357,.3584-.3887,.4609-.7598,.1025-.3701,.1543-.9072,.1543-1.6094v-6.7246c0-.918-.1084-1.5752-.3242-1.9707s-.5703-.5938-1.0625-.5938h-.8799v11.8613Z"/>
</svg>