<?xml version="1.0" encoding="UTF-8"?>
<svg id="uuid-1984fddf-42c3-44da-af4c-b624477cb574" data-name="Livello 1" xmlns="http://www.w3.org/2000/svg" width="36" height="36" viewBox="0 0 36 36">
  <defs>
    <style>
      .uuid-0c6d5a74-6682-4313-9c09-dcf949a504fc {
        fill: #f0b300;
      }
    </style>
  </defs>
  <path class="uuid-0c6d5a74-6682-4313-9c09-dcf949a504fc" d="M17.9805,33.4242c-7.873,.004-14.481-5.939-15.312-13.77C1.7885,11.3632,7.5755,3.9182,15.8225,2.7302c8.636-1.244,16.56,4.933,17.503,13.657,.385,3.558-.413,6.851-2.305,9.883-.085,.136-.171,.271-.265,.402-.23,.321-.573,.487-.86,.197-.166-.167-.134-.548-.149-.835-.005-.098,.121-.201,.186-.302,5.272-8.226,.978-19.107-8.49-21.514C13.1715,2.1152,4.7785,7.9342,3.8795,16.3942c-.816,7.677,4.393,14.493,12.027,15.665,3.418,.524,6.625-.165,9.581-1.973,.171-.105,.338-.217,.508-.324,.337-.21,.666-.212,.895,.135,.231,.352,.085,.651-.239,.873-1.318,.903-2.734,1.632-4.281,2.011-1.433,.351-4.381,.694-4.39,.643"/>
  <path class="uuid-0c6d5a74-6682-4313-9c09-dcf949a504fc" d="M18.0217,6.2014c6.5,.01,11.789,5.313,11.785,11.814-.004,6.522-5.333,11.819-11.865,11.795-6.495-.024-11.77-5.34-11.754-11.845,.015-6.493,5.329-11.775,11.834-11.764m-7.132,4.037c.291,.23,.609,.444,.88,.706,.268,.258,.284,.579,.006,.851-.279,.274-.59,.242-.854-.021-.265-.265-.5-.56-.782-.881-1.675,1.944-2.563,4.041-2.721,6.51,.404,0,.743-.002,1.081,0,.397,.002,.679,.181,.685,.593,.007,.412-.267,.603-.666,.61-.356,.006-.712,.002-1.107,.002,.182,2.484,1.052,4.593,2.757,6.53,.291-.348,.493-.703,.797-.909,.187-.127,.589-.128,.786-.007,.319,.195,.296,.565,.03,.831-.268,.269-.583,.491-.928,.776,1.95,1.703,4.06,2.575,6.54,2.757v-1.059c-.001-.422,.177-.724,.625-.713,.412,.01,.581,.302,.581,.697v1.077c2.491-.19,4.593-1.054,6.55-2.773-.339-.27-.656-.486-.926-.748-.267-.259-.284-.578-.005-.852,.279-.274,.59-.238,.855,.02,.268,.262,.505,.554,.788,.868,1.672-1.927,2.551-4.028,2.712-6.495-.405,0-.743,.002-1.081-.001-.397-.003-.679-.181-.684-.594-.005-.412,.269-.602,.668-.609,.356-.005,.712-.001,1.105-.001-.183-2.484-1.051-4.594-2.752-6.524-.294,.347-.497,.701-.801,.905-.188,.127-.59,.124-.788,.003-.32-.196-.293-.565-.028-.831,.268-.269,.581-.492,.921-.775-1.942-1.706-4.052-2.579-6.534-2.754,0,.381,0,.718,.001,1.055,0,.421-.177,.725-.624,.715-.412-.01-.583-.3-.583-.696v-1.056c-2.317,.08-5.056,1.235-6.504,2.793"/>
  <path class="uuid-0c6d5a74-6682-4313-9c09-dcf949a504fc" d="M28.3659,29.1779c-.161-.229-.467-.476-.443-.683,.026-.221,.344-.526,.574-.565,.159-.028,.526,.322,.542,.523,.018,.226-.254,.476-.4,.715l-.273,.01Z"/>
  <path class="uuid-0c6d5a74-6682-4313-9c09-dcf949a504fc" d="M17.3932,15.2751c0-.822,.007-1.643-.003-2.465-.004-.428,.102-.801,.59-.809,.529-.008,.625,.386,.623,.835-.007,1.463-.022,2.926,.014,4.388,.007,.3,.152,.662,.357,.878,1.008,1.06,2.065,2.074,3.086,3.122,.169,.173,.326,.428,.344,.657,.012,.157-.21,.457-.355,.475-.237,.029-.565-.045-.734-.204-.834-.78-1.568-1.678-2.452-2.391-1.182-.953-1.727-2.078-1.477-3.585,.048-.293,.007-.6,.007-.901"/>
</svg>