<?xml version="1.0" encoding="UTF-8"?>
<svg id="uuid-dbe82281-f944-4cf7-a9f7-d5de164d2bb7" data-name="Livello 1" xmlns="http://www.w3.org/2000/svg" width="16" height="16" viewBox="0 0 16 16">
  <defs>
    <style>
      .uuid-10268b55-4a31-46e3-b4d5-4627231fecd5 {
        fill: #f0b300;
      }
    </style>
  </defs>
  <path class="uuid-10268b55-4a31-46e3-b4d5-4627231fecd5" d="M15,7.9623c-.1414,.2017-.2695,.213-.441,.0339-.7482-.7859-1.5719-1.4776-2.5255-2.0072-1.2439-.6898-2.5726-1.0234-3.9974-.9442-1.308,.0716-2.5236,.4693-3.6771,1.0762-.9895,.5202-1.8922,1.1647-2.7158,1.9186-.1923,.1772-.2394,.3732-.1357,.5579,.1112,.196,.3656,.2959,.5937,.2167,.1451-.049,.2865-.115,.4222-.1885,.1527-.081,.2676-.0528,.3939,.0603,.7558,.6729,1.5775,1.2458,2.5029,1.6661,1.0177,.4599,2.0807,.686,3.1983,.6088,1.1836-.081,2.2635-.4787,3.2662-1.1007,.539-.3374,1.0366-.7256,1.4832-1.1798,.1263-.13,.2526-.1451,.3563-.0415,.1017,.0999,.0942,.2262-.0377,.3581-1.1666,1.1704-2.5405,1.9714-4.1708,2.2974-1.798,.36-3.4697-.0226-5.0416-.9197-.571-.328-1.1082-.703-1.602-1.1384-.1545-.1357-.2733-.1734-.4579-.0641-.2413,.1432-.5107,.1564-.7784,.0697-.6578-.2149-.8557-1.0158-.3525-1.4814,1.3193-1.2175,2.8006-2.1768,4.5157-2.7441,1.1648-.3845,2.3578-.539,3.5828-.3883,1.1478,.1414,2.2032,.5409,3.187,1.1421,.8669,.5315,1.6321,1.1892,2.3295,1.928,.0377,.0396,.0679,.0848,.1018,.1263v.1376Z"/>
  <path class="uuid-10268b55-4a31-46e3-b4d5-4627231fecd5" d="M10.9292,6.5816c.3713,1.4663,.0113,2.6706-1.2722,3.481-1.0347,.6559-2.1391,.6314-3.1531-.0528-1.2043-.8142-1.5473-1.9827-1.1948-3.383-.4788,.2186-.9348,.4749-1.3589,.7784-.3223,.2318-.6276,.4825-.9367,.7313-.1451,.115-.2638,.1282-.36,.0207-.098-.1074-.081-.2337,.0565-.3562,1.0328-.9046,2.1995-1.5737,3.5093-1.9959,.7351-.2375,1.4814-.3901,2.2541-.3449,1.3589,.081,2.5877,.5352,3.6789,1.3457,.4109,.3053,.7841,.6634,1.1685,1.0027,.1338,.1168,.1414,.2582,.0415,.3581-.1017,.0999-.2281,.0886-.3581-.0415-.5824-.5842-1.2194-1.095-1.9507-1.4814-.0358-.0189-.0735-.0358-.1243-.0622m-3.5809-.5541c-.4618,.0754-.9216,.2111-1.3664,.4015-.0396,.0169-.0716,.0659-.0924,.1074-.2017,.4278-.2695,.882-.2017,1.3457,.1998,1.3739,1.406,2.2824,2.778,2.1071,1.6416-.2111,2.6122-2.0486,1.8564-3.5187-.0263-.0509-.0791-.1055-.1319-.1225-.3185-.1055-.6389-.2054-.9631-.2978-.13-.0358-.2676-.0452-.3996-.066,.9951,.5315,1.1572,1.5718,.8387,2.2616-.3618,.7859-1.2194,1.1761-2.0354,.9273-.7068-.2167-1.2797-.9895-1.1779-1.5869,.4316,.147,.7407,.0358,.8519-.3053,.1131-.3393-.0716-.6182-.5466-.7671,.213-.1753,.4052-.3336,.5899-.4863"/>
</svg>