<?xml version="1.0" encoding="UTF-8"?>
<svg id="uuid-1f8ffcbe-f6a8-4c38-a881-e8501e4fbfe3" data-name="Livello 1" xmlns="http://www.w3.org/2000/svg" width="24" height="24" viewBox="0 0 24 24">
  <defs>
    <style>
      .uuid-838c7f7d-b9cb-488b-9631-fa8af5a4497d {
        fill: #573d6b;
      }
    </style>
  </defs>
  <path class="uuid-838c7f7d-b9cb-488b-9631-fa8af5a4497d" d="M21.52,12.3694c-.0355,.1617-.0677,.3242-.1069,.485-.3942,1.62-1.8731,2.7575-3.5415,2.7338-.0742-.0011-.1787,.0516-.2198,.1125-.5227,.7756-1.1667,1.4274-1.9499,1.9394-.0882,.0577-.1203,.1177-.1182,.2252,.0373,1.895-1.3968,3.4707-3.3091,3.6416-1.8255,.1632-3.5125-1.1628-3.8118-3.0026-.0346-.2127-.0257-.4322-.053-.6466-.0093-.0733-.0492-.168-.1063-.2063-.7826-.5241-1.4352-1.1748-1.9587-1.9579-.0382-.0571-.1363-.1063-.206-.1056-2.0995,.0207-3.7553-1.694-3.6546-3.7914,.091-1.8952,1.7252-3.4213,3.6286-3.3825,.1215,.0025,.1894-.0323,.2552-.1328,.5018-.7667,1.1367-1.4034,1.9031-1.9058,.1125-.0738,.1469-.1519,.1446-.2859-.0302-1.778,1.3312-3.3481,3.0911-3.5753,.0413-.0053,.0811-.0229,.1215-.0348,.2479,0,.4958,0,.7437,0,.0281,.0107,.0554,.0271,.0844,.0313,1.8517,.2679,3.1468,1.7704,3.1344,3.6287-.0005,.0694,.0499,.1664,.1073,.2048,.7821,.5232,1.4328,1.1744,1.9566,1.9559,.0384,.0573,.1353,.1081,.2045,.1074,1.7145-.0167,3.1717,1.1178,3.5687,2.7873,.034,.1428,.0615,.2872,.092,.4309v.7436Zm-4.4219,3.1243c-.0507-.0167-.085-.0292-.12-.0393-.8681-.2499-1.5529-.7512-2.0539-1.502-.2431-.3644-.4054-.7642-.5006-1.191-.029-.1299-.0162-.2682,.1157-.3204,.0896-.0355,.2245-.0339,.3061,.0111,.0694,.0383,.1096,.1579,.132,.2491,.371,1.5094,1.824,2.5069,3.3597,2.3016,1.2222-.1634,2.2373-1.0757,2.5378-2.2808,.2995-1.2014-.174-2.4708-1.1918-3.1951-1.0105-.719-2.3735-.7503-3.4084-.0701-.7255,.4769-1.1593,1.1517-1.331,2.0005-.0398,.1967-.1748,.2856-.3449,.2459-.1555-.0363-.2335-.1749-.193-.3636,.3086-1.4361,1.1681-2.3678,2.5708-2.8008,.0394-.0122,.077-.0299,.1168-.0456-.2962-.5101-1.0952-1.3079-1.5889-1.5871-.0142,.0341-.0313,.0664-.0415,.1007-.532,1.7873-2.1052,2.8283-3.9567,2.6122-.4733-.0552-.9135-.2173-1.3242-.4579-.1628-.0954-.2151-.2489-.1408-.3903,.0768-.146,.2403-.1827,.416-.0929,.0275,.0141,.0541,.03,.0813,.0449,1.9469,1.0677,4.3354-.2437,4.4831-2.4614,.0884-1.3265-.7083-2.5623-1.9539-3.031-1.2395-.4663-2.6454-.0694-3.4567,.9759-.829,1.0681-.8553,2.4678-.0684,3.6336,.1276,.189,.1164,.3585-.03,.4559-.1437,.0956-.2904,.0511-.4235-.1313-.2508-.3435-.4305-.7215-.5467-1.1303-.0124-.0437-.0318-.0853-.049-.1304-.554,.3389-1.3654,1.1585-1.5756,1.5836,1.6726,.5504,2.6988,1.6605,2.7223,3.4555,.0242,1.8488-1.0102,2.9915-2.7361,3.5735,.4293,.6219,.9545,1.1494,1.594,1.5869,.0193-.0561,.0329-.0901,.0426-.1251,.1958-.7063,.5718-1.2989,1.1268-1.7767,.4996-.4303,1.0783-.6952,1.7258-.8139,.1321-.0242,.2654-.0132,.3252,.1121,.0394,.0824,.0505,.2165,.0083,.2892-.0434,.0748-.1618,.1288-.2562,.1477-1.6699,.3342-2.7485,1.8741-2.4534,3.5119,.2979,1.6532,1.8439,2.7427,3.4998,2.4664,1.6406-.2738,2.7809-1.8874,2.4611-3.5164-.2442-1.244-.9978-2.0422-2.2141-2.4003-.2705-.0796-.3725-.1966-.3178-.3868,.0495-.1721,.2049-.2314,.4642-.1558,1.295,.3774,2.1435,1.2117,2.5444,2.5001,.0141,.0452,.0302,.0897,.0462,.1372,.514-.2997,1.3001-1.086,1.5971-1.5993Zm-11.0217-.4652c1.6771-.0068,3.0286-1.3687,3.0238-3.0471-.0047-1.6625-1.3742-3.0218-3.0372-3.0146-1.678,.0072-3.0299,1.3691-3.0244,3.0466,.0055,1.6623,1.3753,3.0219,3.0378,3.0151Z"/>
  <path class="uuid-838c7f7d-b9cb-488b-9631-fa8af5a4497d" d="M12.0028,20.3472c-.8554,.0022-1.6148-.646-1.7405-1.4858-.0431-.2876,.153-.5416,.444-.5439,.8611-.0067,1.7223-.0067,2.5833-.0003,.3001,.0022,.4964,.2607,.4463,.5576-.1424,.8433-.8803,1.4702-1.7331,1.4724Zm-1.1464-1.4661c.0774,.517,.644,.9416,1.1978,.9063,.5483-.035,1.073-.4754,1.0782-.9063h-2.276Z"/>
  <path class="uuid-838c7f7d-b9cb-488b-9631-fa8af5a4497d" d="M11.9513,8.1754c-.5035-.0058-.9687-.1931-1.363-.5566-.1474-.1359-.1686-.3008-.0595-.4243,.1141-.1291,.2664-.1272,.4261,.0053,.6797,.564,1.4141,.5656,2.0854,.0045,.1623-.1357,.3096-.1408,.4267-.0148,.116,.1249,.093,.294-.0634,.4375-.4009,.3678-.874,.5503-1.4523,.5484Z"/>
  <path class="uuid-838c7f7d-b9cb-488b-9631-fa8af5a4497d" d="M17.9954,13.6753c-.346,0-.6921,.0014-1.0381-.0005-.2055-.0012-.3288-.1015-.3353-.2658-.0068-.1691,.1255-.2894,.3343-.2902,.6982-.0025,1.3965-.0027,2.0948,.0002,.2032,.0008,.322,.1104,.3221,.2796,.0001,.1719-.1153,.2745-.3211,.276-.3522,.0025-.7044,.0007-1.0566,.0007Z"/>
  <path class="uuid-838c7f7d-b9cb-488b-9631-fa8af5a4497d" d="M10.7589,4.7046c.251-.0025,.4987,.0955,.7107,.2832,.1419,.1257,.163,.2839,.0615,.4092-.1018,.1256-.2611,.1346-.4113,.0231-.2932-.2176-.4944-.2173-.7896,.0012-.1486,.11-.3129,.1005-.4127-.0237-.0992-.1235-.0833-.2711,.0498-.3959,.2123-.1992,.4656-.2981,.7917-.297Z"/>
  <path class="uuid-838c7f7d-b9cb-488b-9631-fa8af5a4497d" d="M13.2798,4.7046c.2918-.0004,.545,.0993,.7567,.299,.1305,.1231,.1443,.2754,.0443,.3969-.0969,.1176-.2596,.1299-.3991,.0302-.3263-.2333-.4826-.2326-.8179,.0039-.1334,.0941-.2855,.0836-.3847-.0266-.1053-.117-.0988-.2773,.028-.3973,.2156-.204,.4736-.3089,.7729-.3061Z"/>
  <path class="uuid-838c7f7d-b9cb-488b-9631-fa8af5a4497d" d="M19.2832,11.5071c-.2152,.1417-.3365,.1476-.4524,.0262-.1078-.1129-.0974-.2477,.0334-.4325-.1328-.2133-.1391-.3519-.0209-.4606,.1168-.1074,.2481-.0951,.4354,.0438,.1376-.1126,.2861-.1806,.4443-.0381,.122,.1099,.1114,.2367-.0292,.4523,.1171,.1365,.1769,.2853,.0311,.4407-.1116,.1189-.2375,.1086-.4416-.0318Z"/>
  <path class="uuid-838c7f7d-b9cb-488b-9631-fa8af5a4497d" d="M16.5877,10.6835c.1839-.1413,.3208-.1514,.4368-.0375,.1142,.1122,.1047,.2528-.0302,.446,.1357,.2016,.1445,.3354,.0296,.4478-.1176,.115-.2379,.1075-.4389-.0329-.1424,.1031-.3,.1905-.4541,.0241-.1358-.1465-.0894-.2946,.0351-.4231-.1393-.2378-.1439-.3576-.022-.4692,.1132-.1037,.2412-.0924,.4438,.0448Z"/>
  <path class="uuid-838c7f7d-b9cb-488b-9631-fa8af5a4497d" d="M10.9249,17.0354c-.0002,.1175,.006,.2355-.0017,.3525-.0103,.1578-.1007,.2517-.2591,.2613-.1609,.0097-.2735-.0814-.2846-.2327-.019-.2583-.0173-.5196-.0023-.7784,.0089-.1536,.1195-.2421,.2765-.2469,.1461-.0045,.2617,.1133,.2701,.273,.0065,.1234,.0013,.2474,.0011,.3711Z"/>
  <path class="uuid-838c7f7d-b9cb-488b-9631-fa8af5a4497d" d="M13.0758,17.0172c-.0001-.1175-.0052-.2353,.0011-.3525,.0086-.1601,.1234-.2776,.2696-.2734,.1572,.0045,.2677,.0934,.2768,.2466,.0152,.2587,.0165,.52-.0022,.7783-.011,.1517-.1234,.2425-.2842,.233-.1583-.0094-.2493-.103-.2593-.2609-.0078-.1232-.0016-.2473-.0017-.3711Z"/>
  <path class="uuid-838c7f7d-b9cb-488b-9631-fa8af5a4497d" d="M6.0758,12.7838c.5345,.0141,1.0049,.1901,1.3995,.5556,.1595,.1478,.1804,.3083,.0606,.4363-.1136,.1215-.2695,.1151-.4275-.0173-.6617-.5549-1.4176-.5562-2.0714-.0035-.1642,.1388-.3285,.1432-.4412,.0119-.1106-.129-.0888-.2818,.0636-.4228,.3995-.3696,.8749-.5489,1.4164-.5602Z"/>
  <path class="uuid-838c7f7d-b9cb-488b-9631-fa8af5a4497d" d="M4.7909,11.9609c-.2804-.0087-.5252-.0981-.7332-.2812-.1479-.1302-.1728-.298-.0658-.4234,.1027-.1204,.2618-.1247,.4134-.0113,.2809,.2101,.4995,.2108,.7747,.0025,.1539-.1165,.307-.114,.413,.0069,.1114,.127,.0903,.2898-.06,.4235-.2124,.1888-.464,.2773-.7422,.283Z"/>
  <path class="uuid-838c7f7d-b9cb-488b-9631-fa8af5a4497d" d="M7.357,11.9613c-.2997-.0079-.5557-.1015-.7684-.3006-.13-.1216-.1469-.2763-.0499-.397,.1011-.1258,.2626-.1353,.4116-.0242,.2931,.2185,.4956,.2189,.7889,.0015,.1496-.1108,.3133-.103,.4129,.0198,.0988,.1218,.0764,.2884-.0605,.4114-.2113,.1898-.4622,.2803-.7346,.2891Z"/>
</svg>