<?xml version="1.0" encoding="UTF-8"?>
<svg id="uuid-0d001c8a-b2f0-49b0-b67f-95c0b4d9e9d2" data-name="Livello 1" xmlns="http://www.w3.org/2000/svg" width="24" height="24" viewBox="0 0 24 24">
  <defs>
    <style>
      .uuid-a0a0e956-08ce-4e85-8942-11368f377961 {
        fill: #fff;
      }
    </style>
  </defs>
  <path class="uuid-a0a0e956-08ce-4e85-8942-11368f377961" d="M20.9023,6.4168c.069-.0759,.1116-.1266,.1581-.1733,.2303-.2317,.4659-.4582,.6908-.6949,.1359-.1431,.1263-.3234-.0043-.4462-.1251-.1177-.2887-.1172-.4326,.0059-.0579,.0496-.1093,.1069-.1631,.1611-.2225,.2243-.4448,.4488-.701,.7073-.0066-.1167-.0092-.1766-.0136-.2363-.0427-.5793-.324-1.0236-.7812-1.3638-.1587-.118-.3352-.0903-.4433,.0517-.1039,.1365-.0858,.2962,.0517,.4286,.055,.0529,.1156,.0999,.1722,.1512,.3886,.3526,.5064,.9946,.233,1.5102-.0188-.007-.0401-.0108-.0565-.0218-.774-.5228-1.5743-.5065-2.3911-.1146-.5717,.2743-1.0485,.6759-1.4871,1.1266-.1426,.1465-.2802,.2978-.4245,.4517l-.4093-.6769c.0587-.0447,.1139-.0863,.1685-.1285,.4895-.3785,.9142-.8103,1.1593-1.393,.0846-.201,.0483-.356-.1298-.4922-.4312-.33-.925-.5138-1.4519-.5878-1.7764-.2495-2.4661,.4579-2.4661,.4579-.1539,.1435-.2847,.3163-.3905,.5186-.0599,.1146-.1329,.1569-.2549,.1669-.0925,.0076-.1836,.0201-.2739,.0347,.0426-.0879,.0745-.1819,.094-.2828l.0033-.0167-.0078-.1987-.0064-.0375c-.0861-.2768-.271-.4621-.5349-.5359-.1646-.0459-.3334-.0619-.5063-.0754l-.0344-.003-.0024-.0121c-.1165-.6384-.6582-1.1172-1.3175-1.1641-.0775-.0056-.0949-.0215-.1233-.082-.141-.301-.383-.5217-.7191-.6558-.1688-.0673-.3233-.0164-.3947,.1299-.0329,.067-.0382,.1405-.0148,.207,.0185,.0527,.064,.1267,.1762,.1793l.0305,.0125c.2014,.084,.3382,.2135,.4181,.3961,.1023,.234,.2915,.3598,.562,.374,.3032,.016,.531,.1438,.6771,.38,.061,.0986,.1028,.2139,.1468,.336l.0207,.0567c-.1527,.0976-.2765,.2222-.3746,.3767-.4611-.4229-1.0028-.7305-1.6125-.9154-.072-.2614-.1883-.4648-.3552-.6215-.0961-.0902-.202-.1695-.3043-.2463l-.0074-.0054c.0773-.0637,.1769-.1162,.3013-.1588,.1166-.0399,.1696-.1082,.1934-.1584,.0309-.0647,.0331-.1373,.0064-.2097-.0553-.1512-.2082-.2177-.3801-.1656-.2889,.0872-.5287,.2531-.7068,.4865-.4953-.0539-.9241,.0936-1.2767,.4355-.021,.0201-.0309,.0301-.0984,.0167l-.0495-.0101c-.1722-.0353-.3498-.0714-.5327-.0621-.5559,.0298-.9901,.2834-1.2904,.7536-.0262,.0409-.0368,.0415-.0627,.0426-.1066,.0054-.2205,.0204-.3388,.0449-.814,.1689-1.4031,.8909-1.4007,1.7164,.0011,.3632,.1159,.6976,.3412,.9941,.0627,.0825,.0734,.1545,.0382,.2567-.1475,.4279-.0879,.8244,.1766,1.1802-.0315,.0446-.063,.0892-.0981,.1311-.2734,.3274-.2784,.7359-.0125,1.0166,.258,.2725,.5965,.3853,1.003,.3344,.0366-.0046,.1127-.0135,.129-.0084,.0048,.0029,.0205,.0165,.0624,.083,.066,.1045,.1293,.2105,.1927,.3166,.0795,.1331,.1622,.2698,.2492,.4035-.1392,.0008-.2604,.0015-.358,.0023-.7148,.0057-1.2595,.5082-1.3201,1.1934-.0563,.6372,.3938,1.2302,1.0428,1.3614,.1407,.0284,.2878,.0252,.4228,.0358,.0731,.4025,.1191,.8036,.2208,1.19,.4543,1.7274,1.507,3.0228,2.9541,4.0244,.2105,.1457,.5152,.2353,.619,.4334,.1091,.2081,.0287,.5153,.032,.7792,.0045,.3553,.1224,.6658,.3683,.9252,.3042,.321,.6883,.4155,1.1161,.4148,2.2657-.0038,4.5314-.0016,6.797-.0023,.0971,0,.1946-.0039,.2913-.0129,.5573-.0522,1.0197-.4254,1.1415-.9714,.058-.2599,.0584-.5385,.0457-.8068-.0117-.2481,.0632-.3881,.286-.5238,1.5261-.9295,2.6711-2.1886,3.2267-3.9152,.1579-.4909,.229-1.0097,.347-1.5479,.0439,0,.1253,.0023,.2065-.0004,.5913-.019,1.1006-.4573,1.2152-1.0445,.1131-.5796-.2005-1.1954-.7497-1.4131-.1947-.0772-.4165-.1067-.6279-.1166-.3846-.018-.7707-.0051-1.1911-.0051,.9505-1.1226,1.6381-2.2624,.7398-3.7048,.511-.2899,1.1722-.1569,1.5823,.3162,.2459,.2836,.4074,.2844,.6326,.003v-.2085c-.3948-.5617-.9197-.8888-1.659-.8837Zm-8.5902-.4121c.1782-.3745,.4712-.6184,.8753-.7032,.7718-.162,1.5159-.0562,2.2299,.2727,.0495,.0228,.0939,.0563,.2108,.1276-.2658,.286-.4894,.5684-.7551,.8029-.4139,.3654-.8774,.6627-1.4441,.7309-.3859,.0464-.7184-.085-1.0304-.3805,.3633-.093,.6942-.1767,1.0246-.2629,.0665-.0174,.1368-.0337,.1946-.0684,.1365-.082,.1807-.2131,.131-.3594-.0573-.1686-.1926-.2379-.3632-.2002-.311,.0688-.6191,.1507-.9286,.2262-.0591,.0144-.1192,.0247-.2162,.0445,.029-.0954,.0414-.1669,.0714-.2301Zm-.7567,.4512c.3569,1.2845,1.2944,1.6762,2.8233,1.1482,.1495,.2895,.3075,.5855,.4524,.8878,.0187,.039-.017,.1192-.0492,.1651-.464,.6619-.8542,1.3643-1.1828,2.1025-.0273,.0613-.1263,.1289-.1923,.1293-1.397,.0074-2.794,.0035-4.191,.0092-.1344,.0005-.1785-.0615-.2192-.1674-.3733-.9709-.2971-1.905,.2277-2.8013,.0194-.0331,.036-.0645,.0509-.0948,.0791-.0812,.0988-.1627,.0696-.2819-.0029-.0278-.0104-.0536-.0217-.0775-.1002-.3134-.1251-.577-.0757-.8262,.0406-.206,.1326-.3618,.2808-.4759,.1089-.0837,.1715-.186,.197-.3221,.0478-.2537,.14-.4065,.2992-.4955,.2165-.1204,.4446-.1202,.6785,.0016,.106,.0552,.0832,.1628,.0603,.2219-.0592,.1518-.1665,.2574-.3189,.314-.208,.0771-.3407,.2125-.392,.3964-.0348,.0197-.0698,.0386-.1042,.0594-.2085,.1263-.2697,.2997-.1702,.4657,.1001,.167,.2784,.1949,.4907,.0702,.3995-.2348,.8217-.3965,1.2866-.4287Zm-3.2278,4.4242c-.0999,0-.4989,.0007-1.0374,.002l.0063-.012c.2241-.3822,.5262-.6491,.8991-.7957,.0404,.3181,.0999,.5982,.132,.8057ZM3.7193,4.6924c.0761-.1296,.175-.2332,.3028-.317,.1948-.1281,.3925-.1923,.5905-.1923,.0959,0,.1919,.015,.2876,.0452,.2926,.0921,.5354,.0334,.764-.1846,.2204-.2101,.5406-.2889,.8552-.2118,.2271,.0559,.4169,.1853,.5374,.3595-.0503-.0058-.1006-.0111-.1511-.0154-1.0009-.0824-1.9213,.1641-2.7317,.7338-.9194,.6464-1.4734,1.5165-1.6465,2.5859-.0332,.2051-.0355,.4125-.0378,.6132-.0007,.0703-.0016,.1405-.0037,.2108-.1686-.205-.2121-.4262-.1328-.6753,.0533-.1682,.1032-.3649,.0185-.5699-.0386-.0934-.0946-.1749-.1441-.2466-.21-.3055-.2641-.6255-.1655-.9785,.1287-.4603,.5435-.8031,1.0323-.8531l.0151-.0016c.0376-.004,.0754-.0081,.1129-.0087,.2141-.003,.3859-.1046,.4969-.2936Zm2.8098,6.1915c-.0554-.0686-.1106-.1378-.1704-.2034-.2704-.2963-.559-.4919-.8894-.6001-.0671-.022-.1427-.0468-.2311-.0549l-.0021-.0063c-.1356-.4292-.3501-.7592-.6557-1.0089-.2004-.1638-.4374-.2673-.704-.3075-.0217-.0033-.0505-.0174-.0667-.0324-.2342-.2168-.4816-.3465-.7533-.3944-.0968-1.4845,.828-2.8185,2.3319-3.3435,1.3497-.4714,2.7886-.1327,3.706,.8609-.0188,.0178-.0373,.0359-.0553,.0547-.2922,.3087-.4218,.7034-.385,1.1732,.009,.1135,.0311,.2232,.0525,.3294,.0115,.0565,.0227,.1137,.0313,.178l-.0218,.0372c-.2899,.2803-.4652,.6462-.5194,1.0897-.0189,.1549-.0237,.3107-.0254,.4636-.0123,.1245-.0176,.248-.0169,.3692-.3487,.114-.6564,.2995-.9304,.5631-.0021-.4565-.0574-.9209-.1651-1.3832-.0207-.0892-.0017-.2057,.0178-.3079,.148-.776,.5448-1.3478,1.2233-1.7544,.0215-.013,.043-.0261,.063-.0405,.1433-.1029,.178-.2671,.0847-.3994-.0915-.1296-.2681-.1586-.4022-.0663l-.1166,.0794c-.1501,.1015-.3053,.2065-.4456,.3298-.3622,.3181-.6327,.7074-.8065,1.1598-.0609-.1153-.1222-.2309-.1836-.3465l-.0093-.0178c-.0178-.0345-.0399-.0773-.0768-.1156-.0566-.0587-.0781-.1194-.0295-.2714,.1488-.4647,.3683-.828,.6704-1.1102,.0121-.0111,.0239-.0225,.0348-.0344,.1187-.1289,.1196-.2963,.0021-.4072-.1157-.109-.2794-.1052-.4071,.0101-.2539,.2285-.4557,.4895-.5997,.7758-.059,.1173-.1075,.2385-.1542,.3556l-.0104,.0259c-.0842-.0914-.1675-.1807-.254-.2673-.259-.259-.5391-.4806-.8393-.6629-.0269-.0165-.0603-.0369-.1033-.0493-.1394-.0399-.2678,.0108-.3358,.1311-.0708,.1253-.0439,.2628,.0688,.3504,.0321,.0251,.0669,.047,.1016,.0687,.0239,.015,.048,.0298,.0706,.0466,.072,.0537,.1437,.1078,.2154,.1621-.0527,.0029-.1058,.0068-.1588,.013-.1403,.016-.2748,.0525-.4047,.0877l-.02,.0054c-.1108,.0301-.1658,.0936-.1926,.1418-.0352,.0631-.0425,.1383-.0207,.2115,.0476,.1595,.2027,.2356,.376,.1849,.3608-.1051,.694-.1253,1.0193-.0626,.0217,.0041,.051,.0202,.065,.0358,.1511,.1666,.2896,.3496,.4191,.5545-.3124-.0617-.6531-.0607-1.0477,.0019-.3251,.0516-.6397,.1377-.9349,.2561-.0961,.0385-.1648,.1039-.1936,.1844-.0255,.0714-.0182,.1498,.0207,.2208,.0326,.0596,.1356,.1914,.373,.1233,.0748-.0212,.1494-.0435,.2241-.0659,.1863-.0557,.3789-.1133,.5689-.1504,.4859-.0954,.8756-.0636,1.2263,.0998,.117,.0546,.1719,.11,.2027,.2047,.0855,.2634,.1458,.4798,.1872,.6739l-.0091-.0026c-.1839-.0503-.3739-.1023-.5687-.1338-.1671-.0269-.3352-.022-.4979-.0172-.0455,.0013-.0909,.0027-.136,.0033-.0877,.001-.1658,.0341-.2199,.0931-.0513,.0557-.0765,.1291-.071,.207,.0111,.1535,.131,.2564,.3055,.2623,.2206,.0071,.443-.0091,.6394,.0308,.17,.0344,.3348,.0972,.5093,.1639,.0456,.0175,.0912,.0349,.1368,.0517,.0302,.3625,.015,.7546-.0432,1.1915l-.0628,.0002Zm-2.2837,.0073c-.104-.1195-.198-.2535-.2894-.3847l-.0296-.0426c-.0822-.1177-.1547-.2402-.2313-.3697-.0475-.0802-.0949-.1605-.1447-.2393-.0422-.067-.0968-.1222-.1515-.1775-.1281-.1297-.2912-.1816-.4704-.1505-.1314,.0228-.2708,.0379-.3998-.0074-.0096-.0034-.0194-.006-.0275-.0076-.132-.0465-.2139-.1166-.2311-.1973-.017-.0808,.0324-.1827,.1354-.2797,.0131-.0124,.0265-.0242,.0399-.0355l.3501,.2459-.2291-.3291c.2524-.1403,.5429-.1052,.7795,.1068l.0135,.012c.0134,.0118,.0272,.0232,.0386,.0368,.1199,.1431,.2678,.1779,.3836,.192,.2928,.0358,.528,.2014,.6991,.4925,.085,.1442,.146,.3033,.2104,.4715l.0443,.1146c.0212,.0539,.0858,.2177,.2846,.2262,.2552,.0105,.4885,.1127,.7297,.3176-.5208,.0015-1.047,.0033-1.5045,.0051Zm11.9853,9.2565c-.0536,.2715-.2723,.4261-.5531,.465-.089,.0123-.1799,.0139-.2699,.0139-2.2566,.0007-4.5133,.0008-6.7699,.0004-.6363-.0001-.8785-.2443-.8786-.8824,0-.1591,0-.3181,0-.5003h8.5266c-.0154,.3059,.0024,.6121-.0551,.9034Zm4.4809-8.627c.1038,0,.2098-.0011,.311,.0179,.3544,.0664,.5744,.3669,.5409,.7258-.0303,.324-.3081,.574-.6508,.585-.0625,.002-.1251,.0007-.1876,.0007-2.5783,0-5.1566,0-7.7349,.0002-.0764,0-.1544-.0064-.2288,.0065-.1726,.0297-.2718,.1378-.2772,.3137-.0051,.1658,.1261,.2902,.3072,.3034,.0622,.0045,.125,.0017,.1876,.0017,2.2725,0,4.545,0,6.8175,0h.2714c-.0376,.7385-.2178,1.4048-.5194,2.0367-.6422,1.3456-1.6712,2.3211-2.9536,3.0474-.062,.0352-.1447,.0476-.2177,.0477-2.905,.0023-5.8099,.0022-8.7148,.0004-.0669,0-.1434-.0063-.1993-.0381-1.485-.8439-2.6333-1.9924-3.2014-3.6368-.1571-.4546-.2282-.9388-.3501-1.4573h7.1599c.0556,0,.1112,.0002,.1668,0,.2802-.0011,.4298-.1098,.4289-.3112-.001-.2005-.1544-.3139-.4311-.314-2.6686-.0004-5.3373-.0014-8.0059,.0018-.2269,.0003-.4265-.045-.5852-.2154-.3374-.3622-.1718-.9568,.3071-1.0824,.1187-.0311,.2474-.0331,.3715-.0331,5.796-.0015,11.5919-.0014,17.3879-.0006Zm-1.1612-1.5753c-.1342-.1472-.26-.2958-.3971-.4329-.1611-.161-.3437-.1698-.477-.0367-.1308,.1307-.1194,.3171,.0385,.4781,.1457,.1485,.2987,.2899,.464,.4492-.2515,.2635-.4374,.5173-.8728,.5045-1.2706-.0372-2.543-.0132-3.8147-.0132h-.2712l.5016-.9951c.1759,.1288,.3285,.2443,.4849,.3543,.1869,.1314,.3635,.1126,.4753-.045,.103-.1453,.0661-.323-.1013-.4531-.1691-.1314-.3428-.2568-.5209-.3896,.429-.6605,.9083-1.2597,1.5066-1.7919,.2146,.171,.4137,.3331,.6166,.4902,.1832,.142,.3584,.1345,.4796-.0135,.1165-.1423,.0834-.3268-.0875-.4718-.0794-.0674-.1627-.1303-.2438-.1957-.0755-.0609-.1504-.1224-.226-.1839,.6203-.6414,1.7023-.6305,2.4122,.0195,.7766,.711,.8576,1.6668,.0331,2.7264Z"/>
</svg>