<?xml version="1.0" encoding="UTF-8"?>
<svg id="uuid-22e85f9e-6a31-4740-91a5-719604d9db6f" data-name="Livello 1" xmlns="http://www.w3.org/2000/svg" width="24" height="24" viewBox="0 0 24 24">
  <defs>
    <style>
      .uuid-7876ff00-0c27-463b-8bfc-bc7c59fa244b {
        fill: #fff;
      }

      .uuid-54665c67-23af-4e58-bd2e-3e939b83f904 {
        fill: none;
        stroke: #fff;
        stroke-linecap: round;
        stroke-linejoin: round;
        stroke-width: .6301px;
      }
    </style>
  </defs>
  <g>
    <path class="uuid-7876ff00-0c27-463b-8bfc-bc7c59fa244b" d="M16.9255,21.7942c-.1042-.0897-.2145-.1733-.3117-.2701-.7361-.7325-1.4716-1.4656-2.2016-2.204-.1053-.1065-.2086-.1536-.3612-.1532-1.2105,.0035-4.9431,.0377-6.1516-.0144-2.0632-.089-3.6579-1.0429-4.782-2.7704-.5269-.8098-.811-1.7082-.8832-2.6726-.0028-.0379-.0164-.075-.0249-.1125v-.7664c.0508-.2998,.0926-.6015,.1545-.8991,.1067-.5132,.2935-.9987,.5403-1.4612,.1268-.2376,.3099-.322,.4943-.2239,.1798,.0957,.2227,.2914,.1017,.5207-.2903,.5497-.4845,1.1296-.5688,1.746-.1603,1.1718,.0418,2.2794,.6236,3.3068,.6642,1.173,1.645,1.9763,2.9219,2.4138,.5728,.1963,1.1643,.2718,1.7681,.2709,1.1605-.0019,4.8414,.0022,6.0019-.0031,.2033-.0009,.3575,.0635,.5005,.2091,.5876,.5981,1.1839,1.1875,1.7756,1.7816,.0428,.043,.0737,.0978,.1101,.147l.047-.0244c.0034-.0447,.0096-.0893,.0096-.134,.0007-.5497,.0001-1.0994,.0006-1.6491,.0002-.3013,.068-.3937,.3643-.464,1.14-.2703,2.0906-.8516,2.8365-1.7523,.8834-1.0667,1.3071-2.2972,1.2144-3.6838-.1134-1.696-.8881-3.0353-2.2716-4.0109-.8958-.6317-1.9092-.9234-3.0056-.9241-.1277,0-.2561,.0068-.3829-.0044-.2071-.0183-.3326-.1611-.3228-.3506,.0094-.1812,.1411-.3036,.3461-.3103,1.9923-.0651,3.6754,.614,4.9567,2.154,1.0895,1.3095,1.5485,2.8411,1.2997,4.5334-.3465,2.3574-1.6779,3.9515-3.8916,4.8164-.0309,.0121-.0628,.0216-.0945,.0315q-.3824,.1202-.3824,.5311c0,.6552-.0038,1.3105,.0022,1.9656,.0019,.2076-.0699,.3538-.2665,.4309h-.1666Z"/>
    <path class="uuid-7876ff00-0c27-463b-8bfc-bc7c59fa244b" d="M13.0015,11.9223c1.3099,0,2.6199,0,3.9298,0,.0444,0,.0888-.001,.1332,.0004,.2232,.0068,.3673,.1307,.3739,.3204,.0067,.193-.1422,.3326-.3693,.3451-.0387,.0021-.0777,.0006-.1165,.0006-2.631,0-7.7824,.0002-10.4134-.0008-.077,0-.156-.0039-.2305-.0213-.1575-.0369-.2586-.1749-.2514-.3273,.0072-.1525,.1221-.284,.2779-.3086,.0652-.0103,.1328-.0081,.1993-.0082,1.3155-.0004,5.1514-.0003,6.4669-.0003Z"/>
    <path class="uuid-7876ff00-0c27-463b-8bfc-bc7c59fa244b" d="M13.0116,14.3618c-1.3099,0-5.1403,0-6.4502,0-.05,0-.1,.0014-.1498-.0008-.2083-.0093-.3499-.1387-.3545-.3226-.0045-.1792,.136-.3214,.339-.3412,.0385-.0038,.0776-.0018,.1165-.0018,2.6477,0,7.8157-.0002,10.4633,.0008,.0714,0,.1449,.0044,.2138,.0214,.1563,.0386,.2568,.1782,.2482,.3302-.0087,.1532-.1239,.2828-.2804,.3063-.0654,.0098-.1328,.0074-.1993,.0074-1.3155,.0004-2.631,.0003-3.9465,.0003Z"/>
    <path class="uuid-7876ff00-0c27-463b-8bfc-bc7c59fa244b" d="M14.9408,15.4748c.6772,0,1.3544-.0004,2.0316,.0002,.307,.0003,.4641,.1124,.4663,.33,.0022,.218-.1579,.3363-.4603,.3364-1.3711,.0005-7.9493-.0005-7.977-.0005-.2604,0-.3772-.1428-.3739-.3382,.0032-.1906,.1405-.318,.3679-.3256,.2162-.0072,.4329-.0022,.6494-.0023,.5051-.0001,4.7908,0,5.2959,0Z"/>
  </g>
  <g>
    <circle class="uuid-54665c67-23af-4e58-bd2e-3e939b83f904" cx="8.6515" cy="6.2229" r="4.0171"/>
    <path class="uuid-54665c67-23af-4e58-bd2e-3e939b83f904" d="M6.9601,8.2103s1.8089-3.6506,3.3828,0"/>
    <circle class="uuid-7876ff00-0c27-463b-8bfc-bc7c59fa244b" cx="7.6038" cy="5.1423" r=".3383"/>
    <circle class="uuid-7876ff00-0c27-463b-8bfc-bc7c59fa244b" cx="9.7954" cy="5.1423" r=".3383"/>
  </g>
</svg>