<?xml version="1.0" encoding="UTF-8"?>
<svg id="uuid-5d016d34-d1f1-44df-80a5-8e1a17cd5d18" data-name="Livello 1" xmlns="http://www.w3.org/2000/svg" width="36" height="36" viewBox="0 0 36 36">
  <defs>
    <style>
      .uuid-e09a4af5-9a06-402b-aab0-f8a822c67c48 {
        fill: none;
        stroke: #f0b300;
        stroke-linecap: round;
        stroke-linejoin: round;
        stroke-width: 2.787px;
      }

      .uuid-7584d06f-4bf4-4c1d-b74d-6f8fed506500 {
        fill: #f0b300;
      }
    </style>
  </defs>
  <path class="uuid-7584d06f-4bf4-4c1d-b74d-6f8fed506500" d="M18.1836,8.2833c1.732-.288,3.059,.25,3.894,1.083,2.27,2.266,4.537,4.535,6.803,6.804,.69,.691,1.117,1.516,1.247,2.49,.008,.054,.03,.107,.045,.16v.882c-.072,.299-.122,.605-.222,.895-1.05,3.071-4.803,3.955-7.154,1.689-.064-.062-.109-.143-.137-.181-.303,.279-.561,.538-.842,.769-.812,.671-1.76,.977-2.805,.979-3.174,.004-6.349,.011-9.523-.002-2.171-.009-3.929-1.468-4.314-3.54-.472-2.543,1.419-4.943,4.002-5.076,.243-.012,.487-.001,.769-.001h5.928s-2.309-2.044-.577-4.93c.577-.866,1.443-1.732,2.886-2.021m-3.541,14.816c.061,.008,.108,.02,.156,.02,1.436,0,2.872,.009,4.308-.004,.943-.008,1.783-.324,2.455-.993,1.07-1.065,1.389-2.34,.909-3.771-.462-1.377-1.718-2.332-3.142-2.373-1.517-.043-3.035-.019-4.553-.023-.039,0-.079,.012-.133,.021v7.123Zm-.768-7.124c-.056-.009-.095-.02-.135-.02-1.525,.006-3.052-.027-4.576,.032-2.147,.083-3.718,2.197-3.245,4.292,.385,1.699,1.792,2.826,3.569,2.839,1.387,.01,2.774,.002,4.161,.001,.072,0,.143-.008,.226-.013v-7.131Zm6.784-6.265c.643,.631,1.259,1.232,1.87,1.837,.611,.606,1.218,1.216,1.796,1.794,.14-.117,.251-.211,.393-.33-.222-.211-.437-.409-.645-.614-.931-.916-1.822-1.875-2.797-2.74-1.605-1.425-4.21-.973-5.31,.867-.914,1.529-.625,3.42,.71,4.601,.069,.061,.19,.088,.287,.089,.669,.008,1.338,.007,2.007,.004,.834-.004,1.617,.179,2.335,.612,.123,.075,.245,.152,.327,.203,.735-.736,1.447-1.449,2.0919-2.095-1.136-1.177-2.291-2.372-3.462-3.585,.111-.179,.233-.377,.397-.643m1.577,6.857c.058,.069,.111,.13,.162,.193,1.026,1.28,1.272,2.7,.753,4.251-.15,.45-.164,.445,.173,.766,1.108,1.056,2.656,1.346,3.981,.745,2.325-1.054,2.858-4,1.049-5.84-.99-1.006-1.994-1.998-2.993-2.995-.044-.043-.095-.079-.131-.108-1.003,1-1.99,1.985-2.994,2.988"/>
  <path class="uuid-7584d06f-4bf4-4c1d-b74d-6f8fed506500" d="M21.6476,17.809c-.197,.134-.384,.261-.589,.4-.3-.385-.639-.727-1.104-.856-.44-.121-.902-.163-1.379-.243v-.627c1.124-.183,2.375,.272,3.072,1.326"/>
  <rect class="uuid-7584d06f-4bf4-4c1d-b74d-6f8fed506500" x="17.1657" y="16.459" width=".67" height=".697"/>
  <path class="uuid-7584d06f-4bf4-4c1d-b74d-6f8fed506500" d="M6.3443,19.5065h.705c.044,.762,.322,1.395,.92,1.875,.6,.482,1.304,.549,2.049,.51v.697c-1.712,.505-3.809-1.243-3.674-3.082"/>
  <rect class="uuid-7584d06f-4bf4-4c1d-b74d-6f8fed506500" x="10.9547" y="21.911" width=".618" height=".699"/>
  <path class="uuid-7584d06f-4bf4-4c1d-b74d-6f8fed506500" d="M18.8522,9.3051c.283,.019,.529,.036,.799,.054-.054,.258-.099,.478-.149,.715-.201-.01-.391-.019-.606-.029-.014-.237-.028-.462-.044-.74"/>
  <path class="uuid-7584d06f-4bf4-4c1d-b74d-6f8fed506500" d="M24.0624,20.7947c.884,.861,1.8849,1.051,3.028,.475,.121,.198,.243,.397,.364,.594-1.1,.818-3.081,.519-3.906-.589,.165-.153,.33-.308,.514-.48"/>
  <path class="uuid-7584d06f-4bf4-4c1d-b74d-6f8fed506500" d="M28.242,21.235c-.197-.164-.376-.313-.565-.47,.1-.155,.194-.302,.302-.468,.21,.103,.416,.203,.6559,.32-.133,.209-.256,.403-.3929,.618"/>
  <path class="uuid-7584d06f-4bf4-4c1d-b74d-6f8fed506500" d="M18,1.2755C8.763,1.2755,1.276,8.7635,1.276,18.0005s7.487,16.724,16.724,16.724,16.724-7.487,16.724-16.724S27.237,1.2755,18,1.2755m0,30.662c-7.697,0-13.937-6.24-13.937-13.937S10.303,4.0635,18,4.0635s13.937,6.24,13.937,13.937-6.24,13.937-13.937,13.937"/>
  <line class="uuid-e09a4af5-9a06-402b-aab0-f8a822c67c48" x1="6.6274" y1="8.6348" x2="28.0344" y2="28.0348"/>
</svg>