<?xml version="1.0" encoding="UTF-8"?>
<svg id="uuid-b9fcb8a5-6519-4347-9322-b9247a7543ad" data-name="Livello 1" xmlns="http://www.w3.org/2000/svg" width="24" height="24" viewBox="0 0 24 24">
  <defs>
    <style>
      .uuid-004b874f-a312-4e6d-beb4-11025164f8f2 {
        fill: #573e6c;
      }
    </style>
  </defs>
  <path class="uuid-004b874f-a312-4e6d-beb4-11025164f8f2" d="M5.3473,9.9358v-.2469c0-2.0325,0-4.065,0-6.0974,0-.3535,.083-.4354,.4416-.4354,3.3344,0,6.6687,0,10.0031,0,.3634,0,.448,.0812,.4483,.4293,.0002,.244,0,.4879,0,.7498,.2871,0,.5564-.001,.8257,.0003,.2815,.0014,.3842,.1021,.3843,.3805,.0007,1.3632,.0003,2.7264,.0003,4.0895v.246c.0755,0,.1418,0,.2082,0,.5231,0,1.0463-.0023,1.5694,.0005,.9669,.0052,1.7128,.6381,1.8381,1.5691,.0182,.1353,.0007,.2836-.0367,.4162-.7716,2.7367-1.5488,5.4719-2.3231,8.2078-.035,.1237-.0548,.2516-.0773,.3783-.1215,.6844-.7208,1.1961-1.4344,1.2164-.2645,.0075-.5294,.0024-.7941,.0024-3.9647,0-7.9294,.0006-11.894-.0004-.8214-.0002-1.4341-.4983-1.5633-1.2679-.0151-.0902-.0161-.1834-.0162-.2752-.0008-2.6035-.0013-5.2071-.0003-7.8106,.0003-.9225,.6442-1.5499,1.589-1.5523,.2698-.0007,.5396-.0001,.8313-.0001Zm5.4483,10.3171c2.08,0,4.1601,.0002,6.2401,0,.6575,0,1.0199-.3511,1.02-.9886,.0004-2.0877,.0003-4.1755,0-6.2632,0-.6535-.3566-1.0017-1.0252-1.0017-2.4456-.0002-4.8912-.0011-7.3368,.0023-.1635,.0002-.2872-.0465-.4018-.1606-.4057-.4036-.8212-.7978-1.2265-1.2018-.0874-.0872-.1763-.1165-.2977-.116-1.0652,.0038-2.1304,.0021-3.1957,.0022-.685,0-1.0401,.3432-1.0402,1.0055-.0001,2.5728-.0002,5.1457,0,7.7185,0,.6525,.3578,1.0033,1.0237,1.0034,2.08,.0002,4.1601,0,6.2401,0ZM5.9563,9.9358h.2003c.6051,0,1.2102,.0034,1.8152-.0023,.1571-.0015,.2756,.0469,.385,.1554,.4063,.403,.8207,.7982,1.2269,1.2013,.0854,.0848,.1708,.1224,.2952,.1221,1.853-.0038,3.706-.0026,5.559-.003,.061,0,.122-.0052,.1846-.0081V3.7598H5.9563v6.176Zm12.7047,7.1301l.0288,.001c.008-.022,.0175-.0435,.0238-.0659,.5809-2.0492,1.1618-4.0983,1.7407-6.148,.0162-.0573,.0205-.1219,.0129-.1809-.0643-.4975-.439-.9042-.948-.9971-.214-.0391-.4382-.0306-.6579-.0326-.4643-.0043-.9287-.0013-1.4018-.0013v1.792c.8503,.2775,1.2013,.7535,1.2014,1.62,0,.3069,0,.6137,0,.9206v3.0922Zm-1.8285-5.6647V4.9396h-.5825v6.4616h.5825Z"/>
  <path class="uuid-004b874f-a312-4e6d-beb4-11025164f8f2" d="M9.2809,14.6522c0-.4801-.0008-.9337,.0003-1.3874,.0007-.2788,.1023-.3805,.3833-.3809,.7498-.0011,1.4997-.0009,2.2495,0,.2931,.0003,.392,.0993,.3926,.3908,.0008,.4527,.0002,.9055,.0002,1.3775,.4683,0,.92-.0001,1.3717,0,.3597,.0001,.4437,.0821,.4437,.4335,.0002,.7121,.0008,1.4241-.0003,2.1362-.0004,.2766-.1037,.377-.3873,.3777-.466,.0012-.932,.0003-1.4278,.0003,0,.0648,0,.123,0,.1811,0,.4113,.0017,.8226-.0007,1.2338-.0014,.2425-.1104,.3522-.3553,.3529-.7687,.0021-1.5375,.0019-2.3062,.0002-.2554-.0006-.3622-.1089-.3632-.3636-.0017-.4596-.0005-.9193-.0005-1.3955-.0701-.0033-.1306-.0084-.191-.0085-.4222-.0007-.8444,.0013-1.2665-.0011-.2389-.0014-.3559-.1079-.3568-.3322-.0028-.7612-.0029-1.5223,0-2.2835,.0009-.2237,.1182-.3294,.3581-.3305,.4777-.0022,.9554-.0007,1.4562-.0007Zm4.2279,.5894c-.4934,0-.971,.0017-1.4487-.0007-.2465-.0012-.3555-.109-.3579-.3498-.0026-.2577-.0006-.5154-.0006-.7731,0-.2121,0-.4242,0-.63h-1.8155c0,.4444,0,.8737,0,1.3031,0,.3747-.0781,.4504-.4641,.4505-.4451,0-.8903,0-1.3392,0v1.7687c.4898,0,.9675-.0017,1.4451,.0007,.2462,.0012,.3552,.109,.3575,.3502,.0026,.2699,.0006,.5399,.0007,.8099,0,.1998,0,.3996,0,.5926h1.8155c0-.4507-.0002-.8862,0-1.3217,.0002-.3504,.0838-.4316,.4448-.4317,.4515-.0002,.9029,0,1.3624,0v-1.7687Z"/>
  <path class="uuid-004b874f-a312-4e6d-beb4-11025164f8f2" d="M8.634,7.2639c-.1208,.2896-.3312,.5124-.6752,.5834-.0914,.0188-.1871,.0234-.2809,.0241-.4609,.0033-.515,.0557-.515,.5122,0,.2141,0,.4283,0,.6552h-.5957c0-.3371-.028-.6753,.007-1.0072,.0451-.4281,.4297-.735,.8722-.7479,.1007-.0029,.2087,.021,.3006-.007,.1045-.0318,.2366-.0876,.2793-.1708,.0417-.0812,.0182-.2285-.0336-.3142-.1345-.2226-.2298-.45-.2239-.7101,.0061-.2694-.0141-.5442,.0342-.8067,.109-.5922,.6703-.987,1.2808-.9361,.606,.0505,1.0847,.5423,1.1026,1.1386,.0065,.2147,.0316,.4349-.0065,.6431-.042,.2292-.1542,.4454-.2215,.6713-.0306,.1027-.0666,.2325-.0272,.3182,.0365,.0794,.1637,.1394,.2628,.166,.1056,.0283,.2252,.0037,.3385,.0086,.4516,.0196,.8245,.3677,.8628,.8048,.0059,.0671,.0034,.135,.0035,.2025,.0003,.2448,.0001,.4896,.0001,.747h-.6052c0-.2639,.001-.5258-.0003-.7877-.0013-.2774-.1032-.3801-.3864-.3775-.2414,.0022-.4919,.0149-.6881-.1399-.1614-.1273-.2899-.2943-.4579-.4698h-.6272Zm-.2598-1.4807c0,.1166-.0055,.2335,.0011,.3498,.0173,.3094,.2783,.554,.5911,.5597,.3219,.0059,.5982-.2374,.6137-.5548,.0107-.2204,.0112-.4422-.0003-.6626-.0161-.3091-.2855-.549-.5994-.5501-.3235-.001-.5881,.2435-.6054,.5635-.0053,.0979-.0008,.1963-.0007,.2945Z"/>
  <path class="uuid-004b874f-a312-4e6d-beb4-11025164f8f2" d="M13.5169,6.1037c-.3782,0-.7564,.0012-1.1346-.0004-.2713-.0011-.3766-.1038-.3778-.3683-.0016-.35-.0023-.7,.0003-1.05,.0018-.2411,.1111-.3486,.3585-.3492,.769-.0019,1.538-.0019,2.3069,0,.2471,.0006,.3571,.1085,.3589,.3492,.0026,.3561,.0026,.7123,0,1.0684-.0018,.2405-.1121,.348-.3589,.3496-.3845,.0025-.769,.0007-1.1535,.0007Zm-.8978-1.1715v.5711h1.7925v-.5711h-1.7925Z"/>
  <path class="uuid-004b874f-a312-4e6d-beb4-11025164f8f2" d="M15.0215,6.7062v.567h-3.0019v-.567h3.0019Z"/>
  <path class="uuid-004b874f-a312-4e6d-beb4-11025164f8f2" d="M12.016,7.8756h2.9988v.5737h-2.9988v-.5737Z"/>
  <path class="uuid-004b874f-a312-4e6d-beb4-11025164f8f2" d="M12.0131,9.6286v-.5679h3.0019v.5679h-3.0019Z"/>
  <path class="uuid-004b874f-a312-4e6d-beb4-11025164f8f2" d="M15.0216,10.2436v.5668h-3.0019v-.5668h3.0019Z"/>
</svg>