<?xml version="1.0" encoding="UTF-8"?>
<svg id="uuid-0da5736f-1c0e-40c4-8f38-5a24e4bba97f" data-name="Livello 1" xmlns="http://www.w3.org/2000/svg" width="16" height="16" viewBox="0 0 16 16">
  <defs>
    <style>
      .uuid-238b0db8-bd7a-4f3b-83f4-b031dc13403d {
        fill: #f1b300;
      }
    </style>
  </defs>
  <path class="uuid-238b0db8-bd7a-4f3b-83f4-b031dc13403d" d="M8.1584,1.5227c.2507,.0652,.4337,.2228,.6125,.3945,.4781,.4591,.962,.9126,1.4491,1.3629,.0495,.0457,.1359,.076,.2056,.0768,.5445,.0062,1.0892,.0008,1.6338,.0044,.4493,.0029,.787,.2308,.8688,.6262,.0462,.2233,.0287,.4606,.0221,.6912-.0029,.1006-.0967,.1474-.1984,.1476-.1027,.0002-.1853-.0837-.1892-.1917-.005-.1389-.001-.2781-.0018-.4172-.0017-.2917-.188-.4706-.494-.4706-2.7099-.0004-5.4199-.0004-8.1298,0-.3141,0-.497,.1771-.4972,.48-.0005,1.0411-.0016,2.0822,.0033,3.1232,.0003,.0618,.0349,.1389,.0807,.1829,1.1376,1.0959,2.2793,2.1878,3.4178,3.2829,.0638,.0614,.11,.0749,.1893,.0281,.1381-.0814,.2838-.1507,.4254-.2267,.2916-.1567,.5843-.1585,.8777-.0067,.1505,.0778,.3008,.1561,.4484,.2388,.0613,.0343,.1018,.038,.1581-.0162,1.1543-1.1096,2.3115-2.2165,3.4648-3.3271,.0364-.035,.0529-.1035,.0532-.1565,.0036-.6154,.0018-1.2307,.0034-1.8461,.0001-.0491-.018-.2426,.1491-.2426,.3227,0-.0292,.3232,.9953,1.3064,.1946,.1867,.2926,.4051,.2926,.6664,.0002,2.1243-.0012,4.2486,.0009,6.373,.0006,.5924-.4915,.8824-.9127,.8706-.6846-.0191-1.3702-.0058-2.0554-.0046-.1059,.0002-.1809-.0416-.2079-.1386-.0266-.0954,.0059-.1786,.1034-.2211,.0414-.0181,.0933-.019,.1405-.0191,.672-.0011,1.344-.0013,2.016-.0004,.172,.0002,.3197-.0465,.4246-.1854,.0876-.1159,.0825-.138-.0488-.2072-1.5024-.7922-3.0049-1.5842-4.5073-2.3763-.2305-.1216-.4623-.2411-.6908-.3661-.1764-.0965-.344-.0942-.5227,.0004-1.7347,.9179-3.4703,1.8342-5.2082,2.7463-.1099,.0577-.1115,.1064-.0489,.1914,.103,.1397,.2459,.1965,.4189,.1966,.3206,0,.6412,0,.9619,0,2.0643,0,4.1286,0,6.1929,0,.0439,0,.0893-.0056,.1314,.003,.1023,.0207,.1603,.0833,.1604,.1863,.0002,.1031-.0582,.1655-.1602,.1866-.0421,.0087-.0875,.0031-.1314,.0031-2.3805,0-4.7611-.0058-7.1416,.0056-.4226,.002-.9157-.2822-.9139-.8697,.0035-1.1212,.0008-2.2423,.0017-3.3635,0-.0416-.0056-.0963,.0182-.1222,.0478-.052,.1123-.1192,.1733-.1225,.0616-.0034,.1422,.0511,.1865,.1025,.0329,.0381,.028,.1118,.028,.1696,.0015,.9652,.001,1.9304,.001,2.8957v.164l4.211-2.2203L2.426,7.0649c-.0056,.058-.016,.1162-.0161,.1743-.0011,.6744-.0003,1.3488-.0017,2.0232-.0001,.0538-.0043,.1105-.0221,.1607-.0303,.0857-.1066,.137-.1944,.112-.0656-.0186-.1285-.0742-.1712-.1288-.0269-.0344-.0185-.0972-.0186-.1473-.001-.6617,.0022-1.3235-.002-1.9852-.0018-.2904,.0958-.5326,.32-.7319,.2029-.1804,.3918-.3753,.5957-.5545,.0959-.0843,.1287-.1735,.1269-.2964-.0068-.4804,.0109-.9614-.0065-1.4413-.0181-.4988,.3779-.9062,.9311-.8922,.5399,.0137,1.0804,.0056,1.6206-.0004,.0654-.0007,.1459-.0324,.193-.076,.4896-.4539,.9766-.9104,1.458-1.3723,.1759-.1688,.3573-.3218,.6034-.386h.3163Zm5.4133,11.7969V7.0598l-4.1957,4.0476,4.1957,2.2122ZM9.7059,3.3555c-.0229-.0296-.0313-.044-.0431-.0551-.4443-.4188-.8871-.8391-1.3343-1.2551-.212-.1972-.4559-.189-.6736,.0153-.4265,.4002-.8516,.8017-1.2768,1.2032-.0256,.0242-.0471,.0522-.0824,.0917h3.4102ZM3.0347,6.4147l-.3035,.301,.3035,.3327v-.6337Zm9.9305,.6259l.3005-.2755-.3005-.3041v.5796Z"/>
  <path class="uuid-238b0db8-bd7a-4f3b-83f4-b031dc13403d" d="M8.4915,7.5622c-.6192,.5138-1.3463,.0958-1.4897-.5966-.0575-.2778-.025-.5456,.1154-.796,.2608-.4649,.7399-.5948,1.2989-.3513,.0034-.0299,.0041-.058,.0101-.0851,.0239-.108,.0893-.1745,.2094-.1691,.1202,.0054,.1831,.0745,.1877,.1876,.0041,.1009,.0008,.2022,.0003,.3033-.002,.3834-.0037,.7668-.0068,1.1502-.0009,.1108,.015,.2351,.1319,.2634,.0928,.0225,.2224-.0007,.3048-.0506,.2201-.1332,.2529-.3713,.3023-.5928,.1502-.6735-.4219-1.4327-1.2287-1.5859-1.0141-.1926-1.9536,.5809-1.9078,1.5717,.0346,.7502,.6615,1.3771,1.4447,1.445,.0306,.0027,.0611,.0063,.0915,.0108,.1464,.0219,.2147,.0941,.203,.2138-.0109,.1118-.1031,.1755-.2473,.1709-.8945-.0281-1.7184-.7229-1.8599-1.5682-.1817-1.0855,.5201-2.0522,1.6508-2.2354,1.0843-.1758,2.1061,.5462,2.2638,1.5516,.0604,.3849-.0272,.7552-.2352,1.0917-.119,.1925-.299,.3203-.5285,.3684-.3031,.0634-.5448-.0275-.7105-.2973Zm-.0652-.905c-.0158-.0623-.0308-.1809-.076-.2877-.1503-.3549-.572-.4059-.8196-.1046-.2264,.2755-.193,.7665,.0688,1.0096,.2049,.1903,.4754,.1728,.6502-.0439,.1228-.1523,.1669-.3298,.1767-.5734Z"/>
</svg>