<?xml version="1.0" encoding="UTF-8"?>
<svg id="uuid-1ba97919-b7dd-4b2b-8b1d-fe30aeb48115" data-name="Livello 1" xmlns="http://www.w3.org/2000/svg" width="24" height="24" viewBox="0 0 24 24">
  <defs>
    <style>
      .uuid-5c037d85-e4bd-4b8f-b073-a079ff9c7488 {
        stroke-width: .5351px;
      }

      .uuid-5c037d85-e4bd-4b8f-b073-a079ff9c7488, .uuid-24408b10-57e0-43cd-a7d0-75fdc13f5f73 {
        fill: none;
        stroke: #573d6b;
        stroke-linecap: round;
        stroke-linejoin: round;
      }

      .uuid-00d92293-3045-4f6a-93dd-68ff5abb09a9 {
        fill: #573e6c;
      }

      .uuid-24408b10-57e0-43cd-a7d0-75fdc13f5f73 {
        stroke-width: .5952px;
      }
    </style>
  </defs>
  <path class="uuid-00d92293-3045-4f6a-93dd-68ff5abb09a9" d="M12.5113,4.736c1.6235-.2705,2.8676,.2336,3.651,1.0155,2.1279,2.1237,4.2527,4.2507,6.3772,6.378,.6469,.648,1.0475,1.4217,1.1697,2.3341,.0066,.0513,.0279,.1006,.0422,.1508v.8261c-.0684,.2801-.1153,.5677-.2082,.8393-.9844,2.879-4.503,3.7078-6.7073,1.583-.0598-.0577-.1017-.1338-.1279-.169-.2846,.2611-.5267,.5038-.7897,.721-.7616,.629-1.6497,.916-2.6297,.9174-2.976,.0038-5.9517,.0107-8.9278-.002-2.0355-.0085-3.6836-1.3762-4.0442-3.3188-.4425-2.3834,1.3301-4.6337,3.7514-4.7584,.228-.0118,.4572-.0016,.721-.0016h5.5577s-2.1648-1.9155-.5413-4.6216c.5413-.8118,1.353-1.6232,2.7058-1.894m-3.3196,13.8899c.0576,.0074,.1017,.0182,.1459,.0182,1.3464,.0006,2.6928,.0089,4.0393-.0033,.8837-.008,1.6712-.3038,2.3016-.9311,1.0028-.9982,1.3017-2.194,.8517-3.5355-.4332-1.291-1.6108-2.186-2.9454-2.2241-1.4217-.0403-2.8453-.0179-4.2681-.022-.0369-.0003-.0739,.0113-.1249,.0199v6.678Zm-.7202-6.6791c-.0518-.0083-.0888-.019-.126-.019-1.4302,.0063-2.8619-.0251-4.2902,.0301-2.0126,.078-3.4858,2.0603-3.0419,4.0235,.3604,1.5935,1.6795,2.6498,3.3452,2.6617,1.3004,.0094,2.601,.0022,3.9014,.0014,.067,0,.1337-.0075,.2115-.0122v-6.6855Zm10.1658-2.7783c-.2085-.1979-.4097-.3841-.605-.5763-.8724-.8581-1.7082-1.7575-2.622-2.5688-1.5047-1.3351-3.9474-.9121-4.9787,.8132-.8564,1.433-.5857,3.206,.6665,4.3133,.0645,.0574,.1776,.0827,.2683,.0838,.6273,.0072,1.2546,.0061,1.8819,.0033,.7814-.0036,1.5157,.1679,2.1888,.5741,.1155,.0697,.2294,.1423,.3066,.1902m.5664,.5004c.0546,.0651,.1042,.1222,.1517,.1812,.9626,1.1994,1.1926,2.5312,.7062,3.9855-.1409,.4213-.1533,.4172,.1619,.7174,1.0392,.9899,2.4907,1.2618,3.7321,.6987,2.1802-.9882,2.6801-3.7503,.9841-5.4747-.9278-.9436-1.87-1.8731-2.8064-2.8081-.0405-.0405-.0888-.0736-.123-.1014-.9394,.938-1.8648,1.8615-2.8064,2.8014"/>
  <path class="uuid-24408b10-57e0-43cd-a7d0-75fdc13f5f73" d="M2.0449,15.3782s.1442,2.228,2.6081,2.359"/>
  <path class="uuid-5c037d85-e4bd-4b8f-b073-a079ff9c7488" d="M17.9762,16.5252s1.1236,1.6634,3.0948,.6462"/>
</svg>