<?xml version="1.0" encoding="UTF-8"?>
<svg id="uuid-d2c92ef3-fcbe-4ea2-94c9-089a79138d73" data-name="Livello 1" xmlns="http://www.w3.org/2000/svg" width="76" height="76" viewBox="0 0 76 76">
  <defs>
    <style>
      .uuid-e0b7e0bb-0b9b-4606-ab76-05235d803c42 {
        fill: #bcb2c4;
      }

      .uuid-e81a98df-576c-476e-9af5-275d48173be1 {
        fill: #9a8ba7;
      }

      .uuid-8d5ecae5-1f5b-4cc9-af43-4d7c0475253a {
        fill: #796589;
      }

      .uuid-1cd5c612-713e-412d-8c36-f11a03bfd6cb {
        fill: #573e6c;
      }
    </style>
  </defs>
  <path class="uuid-e81a98df-576c-476e-9af5-275d48173be1" d="M37.5652,67.6677c-1.4137-.348-2.5885-1.0317-3.2357-2.3992-.7588-1.6032-.6171-3.1529,.4748-4.5459,1.1284-1.4395,2.6623-1.9478,4.4198-1.5028,1.7357,.4395,2.8225,1.6115,3.1461,3.382,.4075,2.2296-.8728,4.2362-3.0432,4.8885-.1887,.0567-.3759,.1182-.5638,.1775h-1.198Z"/>
  <path class="uuid-1cd5c612-713e-412d-8c36-f11a03bfd6cb" d="M38.1769,6.3323c3.9407,.0066,7.1623,3.2311,7.1637,7.1704,.0015,3.9336-3.2235,7.1687-7.1604,7.183-3.9492,.0143-7.2099-3.254-7.1928-7.2096,.017-3.9405,3.2475-7.1504,7.1894-7.1438Z"/>
  <path class="uuid-1cd5c612-713e-412d-8c36-f11a03bfd6cb" d="M14.083,20.7789c.0133-3.5654,2.9306-6.4462,6.5068-6.4254,3.5188,.0204,6.4267,2.9589,6.4089,6.4762-.0178,3.5176-2.9463,6.436-6.4598,6.4376-3.5502,.0016-6.4692-2.932-6.4559-6.4884Z"/>
  <path class="uuid-8d5ecae5-1f5b-4cc9-af43-4d7c0475253a" d="M7.5,38.4287c.0087-3.1229,2.5793-5.7026,5.7105-5.7306,3.1118-.0279,5.7711,2.6239,5.7609,5.7444-.0102,3.1353-2.6751,5.7796-5.7747,5.7302-3.1469-.0502-5.7053-2.6299-5.6967-5.7439Z"/>
  <path class="uuid-8d5ecae5-1f5b-4cc9-af43-4d7c0475253a" d="M20.5624,61.0781c-2.7226,.0205-5.0016-2.2231-5.0395-4.9612-.0378-2.7314,2.2448-5.0591,4.986-5.0845,2.7147-.0252,5.0545,2.3074,5.0483,5.0326-.0062,2.7218-2.2687,4.9925-4.9948,5.0131Z"/>
  <path class="uuid-e81a98df-576c-476e-9af5-275d48173be1" d="M59.3703,56.0393c.0095,1.9682-1.5919,3.5885-3.5582,3.6001-1.957,.0116-3.585-1.5959-3.6067-3.5613-.0214-1.9365,1.6119-3.5878,3.5678-3.6072,1.9452-.0192,3.5877,1.6101,3.5972,3.5684Z"/>
  <path class="uuid-e0b7e0bb-0b9b-4606-ab76-05235d803c42" d="M65.9553,38.4044c.0162,1.557-1.2555,2.8633-2.8186,2.8953-1.5647,.032-2.9128-1.2958-2.9119-2.8682,.0009-1.5523,1.2994-2.8546,2.8548-2.8631,1.5561-.0085,2.8595,1.2769,2.8757,2.836Z"/>
  <path class="uuid-e0b7e0bb-0b9b-4606-ab76-05235d803c42" d="M57.9329,20.7791c.0112,1.1943-.9604,2.1807-2.1456,2.1785-1.1514-.0021-2.13-.9712-2.1482-2.1273-.0186-1.1811,.9632-2.1666,2.1562-2.1644,1.1753,.0022,2.1266,.9426,2.1375,2.1132Z"/>
</svg>