<?xml version="1.0" encoding="UTF-8"?>
<svg id="uuid-aadc2ff0-ed25-4910-bc08-158cb81bc9dc" data-name="Livello 1" xmlns="http://www.w3.org/2000/svg" width="24" height="24" viewBox="0 0 24 24">
  <defs>
    <style>
      .uuid-8ed31292-7357-498f-962b-fe6f5d94c767 {
        fill: #573e6c;
      }
    </style>
  </defs>
  <path class="uuid-8ed31292-7357-498f-962b-fe6f5d94c767" d="M5.3156,22.2437c-.3586-.1265-.6622-.319-.7711-.7106-.0385-.1397-.0583-.2893-.0583-.4334-.0033-6.0677-.0033-12.1352-.0022-18.2028,0-.7238,.4202-1.1385,1.1473-1.1385,3.3275,0,6.655,.0011,9.9825-.0022,.1936,0,.3432,.0572,.4807,.1958,1.0714,1.078,2.1461,2.1527,3.2241,3.2252,.1386,.1375,.198,.2893,.1969,.4807-.0011,5.1469-.0022,10.2949,.0011,15.4418,0,.5929-.2849,.9603-.8349,1.144H5.3156ZM15.4103,2.4393H5.6654c-.3916,.0011-.4983,.1078-.4983,.5005-.0011,6.0401-.0011,12.0802,0,18.1203,0,.3949,.1067,.5016,.4961,.5016,4.2207,.0011,8.4414,.0011,12.6621,.0011,.4026-.0011,.506-.1045,.506-.5137V5.8526h-.242c-.6798,0-1.3596,.0077-2.0394-.0044-.1826-.0021-.3795-.0264-.5434-.1001-.429-.1936-.5962-.5632-.5962-1.0208,.0011-.7524,0-1.5059,0-2.288m2.8325,2.7302c-.7139-.7127-1.4355-1.4333-2.145-2.1417,0,.572-.0077,1.1825,.0033,1.7919,.0044,.231,.1397,.3444,.3773,.3476,.352,.0066,.7051,.0021,1.0571,.0021h.7073"/>
  <rect class="uuid-8ed31292-7357-498f-962b-fe6f5d94c767" x="10.3008" y="11.6713" width="6.8112" height=".6578"/>
  <rect class="uuid-8ed31292-7357-498f-962b-fe6f5d94c767" x="10.2997" y="8.2558" width="6.8112" height=".6567"/>
  <rect class="uuid-8ed31292-7357-498f-962b-fe6f5d94c767" x="10.2997" y="15.089" width="6.8112" height=".6556"/>
  <rect class="uuid-8ed31292-7357-498f-962b-fe6f5d94c767" x="10.2997" y="18.499" width="6.8112" height=".6567"/>
  <path class="uuid-8ed31292-7357-498f-962b-fe6f5d94c767" d="M8.9199,12.0099c-.0033,.5599-.4642,1.0164-1.0219,1.0131-.5588-.0022-1.0186-.462-1.0197-1.0208-.0011-.5654,.4741-1.034,1.0362-1.0231,.5654,.0122,1.0087,.4664,1.0054,1.0307m-1.0098,.3245c.1826-.0044,.3267-.1507,.3267-.3321,.0011-.1893-.154-.3399-.3454-.3356-.1793,.0055-.3289,.1562-.3289,.3333-.0011,.187,.1573,.3388,.3476,.3344"/>
  <path class="uuid-8ed31292-7357-498f-962b-fe6f5d94c767" d="M8.9201,8.5886c-.0011,.5643-.4521,1.0153-1.0153,1.0175-.5698,.0011-1.034-.4642-1.0263-1.0306,.0066-.5566,.4752-1.0176,1.0285-1.012,.5599,.0044,1.0142,.4653,1.0131,1.0252m-1.0274,.3333c.1881,.0044,.3454-.1496,.3443-.3366,0-.1771-.1518-.3322-.3278-.3377-.1793-.0055-.3487,.1595-.3476,.341,.0011,.1749,.154,.3289,.3311,.3333"/>
  <path class="uuid-8ed31292-7357-498f-962b-fe6f5d94c767" d="M8.9204,15.4249c-.0033,.5577-.4664,1.0175-1.023,1.0142-.5555-.0022-1.0197-.4675-1.0197-1.023,0-.5677,.4653-1.0263,1.0373-1.0197,.5632,.0066,1.0087,.462,1.0054,1.0285m-1.0109-.3444c-.1859-.0044-.3487,.1529-.3476,.3366,.0011,.1727,.1573,.3322,.3311,.3377,.1815,.0055,.3454-.1562,.3443-.341-.0011-.1793-.1474-.3289-.3278-.3333"/>
  <path class="uuid-8ed31292-7357-498f-962b-fe6f5d94c767" d="M8.9202,18.8381c-.0033,.5632-.4587,1.012-1.023,1.0109-.561-.0011-1.0175-.4576-1.0197-1.0175-.0011-.5632,.4763-1.0351,1.0373-1.0252,.5599,.0099,1.0098,.4708,1.0054,1.0318m-.6831-.0022c.0033-.1848-.1573-.3487-.3399-.3464-.1716,.0021-.3311,.1606-.3355,.3333-.0044,.1749,.1452,.3333,.3234,.341,.1881,.0088,.3487-.1397,.352-.3278"/>
</svg>