<?xml version="1.0" encoding="UTF-8"?>
<svg id="uuid-328689f5-a339-43f3-973e-ceecf698bfa6" data-name="Livello 1" xmlns="http://www.w3.org/2000/svg" width="36" height="36" viewBox="0 0 36 36">
  <defs>
    <style>
      .uuid-b44b966c-e3da-4fd6-9a51-0dd0ecdfa494 {
        fill: #f0b300;
      }
    </style>
  </defs>
  <path class="uuid-b44b966c-e3da-4fd6-9a51-0dd0ecdfa494" d="M18.7573,7.2487c2.402-.401,4.244,.346,5.403,1.503,3.15,3.143,6.295,6.291,9.439,9.44,.958,.959,1.551,2.104,1.731,3.455,.01,.076,.042,.149,.063,.223v1.223c-.101,.414-.171,.84-.308,1.242-1.457,4.261-6.665,5.488-9.928,2.343-.088-.085-.15-.198-.189-.25-.421,.386-.78,.745-1.169,1.067-1.127,.931-2.442,1.356-3.892,1.358-4.405,.006-8.81,.016-13.214-.003-3.013-.013-5.452-2.037-5.986-4.912-.655-3.528,1.968-6.859,5.552-7.043,.338-.017,.677-.002,1.068-.002H15.5533s-3.204-2.836-.801-6.841c.801-1.201,2.002-2.403,4.005-2.803m-4.914,20.558c.085,.011,.15,.027,.216,.027,1.993,.001,3.986,.013,5.978-.005,1.309-.011,2.474-.449,3.407-1.378,1.484-1.477,1.927-3.247,1.261-5.233-.641-1.911-2.384-3.235-4.36-3.292-2.104-.059-4.211-.026-6.317-.032-.055-.001-.11,.017-.185,.029v9.884Zm-1.066-9.886c-.077-.012-.132-.028-.186-.028-2.117,.01-4.236-.037-6.351,.045-2.978,.115-5.159,3.049-4.502,5.955,.534,2.359,2.486,3.922,4.951,3.94,1.925,.014,3.85,.003,5.775,.002,.099,0,.198-.011,.313-.018v-9.896Zm9.414-8.693c.892,.875,1.747,1.709,2.595,2.55,.848,.84,1.689,1.687,2.491,2.489,.195-.163,.349-.293,.546-.458-.308-.293-.606-.568-.895-.853-1.291-1.27-2.528-2.601-3.881-3.802-2.227-1.976-5.842-1.35-7.369,1.204-1.267,2.121-.867,4.745,.987,6.384,.095,.085,.262,.122,.397,.124,.928,.01,1.857,.009,2.785,.005,1.157-.005,2.244,.248,3.24,.85,.171,.103,.34,.21,.454,.281,1.02-1.021,2.008-2.011,2.903-2.907-1.577-1.633-3.179-3.292-4.804-4.975,.154-.248,.323-.523,.551-.892m2.188,9.515c.081,.096,.154,.181,.225,.268,1.424,1.776,1.765,3.747,1.045,5.899-.209,.624-.227,.617,.239,1.062,1.539,1.465,3.687,1.867,5.524,1.034,3.227-1.463,3.967-5.551,1.457-8.103-1.374-1.397-2.768-2.772-4.154-4.156-.06-.06-.132-.109-.182-.151-1.391,1.389-2.76,2.756-4.154,4.147"/>
  <path class="uuid-b44b966c-e3da-4fd6-9a51-0dd0ecdfa494" d="M23.5634,20.4656c-.274,.186-.533,.362-.817,.555-.417-.534-.887-1.009-1.532-1.187-.611-.169-1.252-.227-1.913-.339v-.869c1.558-.253,3.294,.377,4.262,1.84"/>
  <rect class="uuid-b44b966c-e3da-4fd6-9a51-0dd0ecdfa494" x="17.3432" y="18.5909" width=".93" height=".968"/>
  <path class="uuid-b44b966c-e3da-4fd6-9a51-0dd0ecdfa494" d="M2.3287,22.821h.978c.061,1.058,.448,1.936,1.276,2.601,.834,.669,1.81,.763,2.844,.708v.967c-2.376,.701-5.285-1.725-5.098-4.276"/>
  <rect class="uuid-b44b966c-e3da-4fd6-9a51-0dd0ecdfa494" x="8.7272" y="26.1579" width=".857" height=".97"/>
  <path class="uuid-b44b966c-e3da-4fd6-9a51-0dd0ecdfa494" d="M19.6847,8.6656c.393,.027,.735,.05,1.108,.075l-.205,.992c-.28-.013-.544-.026-.842-.04-.02-.328-.038-.641-.061-1.027"/>
  <path class="uuid-b44b966c-e3da-4fd6-9a51-0dd0ecdfa494" d="M26.9142,24.6085c1.227,1.195,2.615,1.458,4.201,.66,.169,.274,.338,.55,.506,.824-1.527,1.135-4.275,.719-5.42-.817,.228-.213,.458-.428,.713-.667"/>
  <path class="uuid-b44b966c-e3da-4fd6-9a51-0dd0ecdfa494" d="M32.7139,25.2194c-.274-.228-.522-.435-.783-.653,.138-.214,.269-.418,.418-.648l.91,.444c-.184,.289-.355,.558-.545,.857"/>
</svg>