<?xml version="1.0" encoding="UTF-8"?>
<svg id="uuid-6a765f11-a291-4d20-b2dc-686f5a7d147d" data-name="Livello 1" xmlns="http://www.w3.org/2000/svg" width="20" height="20" viewBox="0 0 20 20">
  <defs>
    <style>
      .uuid-f34a5fa7-da86-4626-9e4c-afd5341d7b7d {
        fill: #fff;
      }

      .uuid-3e220ae7-c4dd-41a6-8f2b-f26ef37d1f84 {
        fill: #bbb1c4;
      }
    </style>
  </defs>
  <path class="uuid-3e220ae7-c4dd-41a6-8f2b-f26ef37d1f84" d="M18.7204,10c0,4.8166-3.9039,8.7204-8.7204,8.7204S1.2796,14.8166,1.2796,10,5.1834,1.2796,10,1.2796s8.7204,3.9038,8.7204,8.7204"/>
  <path class="uuid-f34a5fa7-da86-4626-9e4c-afd5341d7b7d" d="M11.0047,8.0394v6.0695c0,.3909,.0669,.6555,.202,.795,.1352,.1395,.3649,.2093,.6904,.2093v.2936c-.1759-.0087-.4389-.0203-.7877-.0349s-.7049-.0204-1.0668-.0204c-.3634,0-.731,.0058-1.1032,.0204-.372,.0145-.6511,.0262-.8371,.0349v-.2936c.3256,0,.5566-.0698,.6904-.2093,.1351-.1395,.2034-.4041,.2034-.795v-4.3951c0-.4186-.0639-.7267-.1889-.9273-.1265-.2006-.3605-.3009-.705-.3009v-.2921c.298,.0276,.5857,.0407,.8648,.0407,.3909,0,.7557-.016,1.0958-.0479s.6526-.0814,.9418-.1468m-1.0885-3.446c.3909,0,.7005,.0959,.9287,.2864,.2267,.1904,.3415,.4534,.3415,.7877s-.1148,.5974-.3415,.7877c-.2282,.1919-.5378,.2864-.9287,.2864s-.7006-.0945-.9273-.2864c-.2282-.1904-.343-.4534-.343-.7877s.1148-.5974,.343-.7877c.2267-.1904,.5362-.2864,.9273-.2864"/>
</svg>