<?xml version="1.0" encoding="UTF-8"?>
<svg id="uuid-45925eb1-edb6-4fc5-b0d6-b0c4f23557ac" data-name="Livello 1" xmlns="http://www.w3.org/2000/svg" width="24" height="24" viewBox="0 0 24 24">
  <defs>
    <style>
      .uuid-f9cc833f-627c-4ff1-8302-952fd7a010a4 {
        fill: #fff;
      }
    </style>
  </defs>
  <path class="uuid-f9cc833f-627c-4ff1-8302-952fd7a010a4" d="M20.9314,16.1777c-.3663-.0022-.7315,0-1.1132,0-.1386-.4832-.2596-.9441-.4048-1.3983-.2167-.683-.8668-1.1093-1.5466-1.0022-1.7578,.2757-3.5145,.5591-5.2701,.8482-.605,.0993-1.0065,.635-.9504,1.2365,.0099,.1016,.033,.2009,.0517,.3158-.0792,0-.1397,.0067-.1969-.0011-.4796-.067-.8965,.067-1.2606,.3883-.2992,.2645-.6391,.4085-1.045,.3459-.0176-.0033-.0385,.0145-.0572,.0234v.7098c.3971-.067,.7447,.0189,1.0406,.289,.4004,.365,.8668,.4922,1.4036,.4375,.3256-.0335,.6941-.0904,.9757,.029,.2816,.1182,.4884,.4341,.7095,.6807,.0935,.1038,.1727,.2455,.2013,.3828,.1364,.635,.4829,1.1003,1.0483,1.3971,.1452,.077,.2981,.1462,.4554,.1898,.2057,.0558,.275,.164,.2662,.385l.0066,.9809h.0011c.0055,.1931,.1606,.3471,.352,.3471,.1903,0,.3454-.154,.352-.3471h.0011c0-.7231-.0011-.7622,0-1.4675,.0011-.1898-.088-.3158-.2574-.3861-.2629-.1082-.5291-.2087-.7887-.3236-.4433-.1964-.6952-.548-.7392-1.0301-.0187-.2065-.0891-.356-.2299-.4955-.3597-.3538-.7106-.7176-1.0659-1.0759-.132-.135-.1958-.2868-.1188-.4731,.0803-.1931,.2343-.2757,.4312-.2545,.1232,.0134,.2519,.0424,.3619,.0971,.8041,.4006,1.606,.8091,2.4057,1.2198,.0979,.0502,.1903,.1206,.2684,.1987,.3036,.3013,.6006,.6104,.8888,.905,.1837-.1763,.3487-.3359,.5214-.5022-.1408-.1495-.275-.2913-.4246-.4498h1.9877v4.0443h.0022c.0121,.1897,.1661,.3404,.3564,.3404,.1969,0,.3564-.1618,.3564-.3627,0-.0123,0-.0257-.0022-.0379v-3.9985c.3597,0,.6952,.0022,1.0307-.0011,.6369-.0045,1.1165-.4698,1.1209-1.0825,.0044-.625-.4774-1.0981-1.1253-1.1026m-8.9067,1.4541c-.517-.02-1.0758,.1496-1.4817-.3605,.3993-.5111,.9669-.3404,1.4817-.3626v.7231Zm.7887-1.4541c-.2101,0-.363-.0904-.4312-.2946-.0627-.1875-.0044-.3504,.1507-.462,.0759-.0536,.1771-.0826,.2706-.0971,1.7039-.2756,3.4089-.5491,5.1139-.8202,.3476-.0547,.6688,.1071,.7832,.4297,.1408,.3973,.2431,.8091,.3674,1.232h-1.8799c.176-.1518,.3212-.2767,.4785-.4118-.2156-.1953-.385-.3493-.5753-.5222-.2508,.2555-.5302,.5479-.8217,.8291-.0616,.0603-.1639,.1116-.2475,.1116-1.0692,.0078-2.1384,.0045-3.2087,.0056m3.7708,1.453c-.121,0-.2508-.0346-.3608-.087-.3949-.1897-.7821-.3939-1.1726-.5926l.0176-.0334h4.8235v.7075c-.0704,.0033-.1419,.0089-.2145,.0101-1.0307,0-2.0625,.0022-3.0932-.0045m4.0502-.0134v-.7019c.506-.029,.7073,.0781,.7029,.3605-.0044,.2857-.2233,.394-.7029,.3415"/>
  <path class="uuid-f9cc833f-627c-4ff1-8302-952fd7a010a4" d="M10.2047,12.0551c.0011-.9263,0-1.8525,0-2.7788,0-.9408,.0011-1.8827,0-2.8235,0-.3571-.1199-.4776-.4719-.4787H4.2108c-.352,.0011-.4708,.1205-.4708,.4776-.0011,1.8682-.0011,3.7352,0,5.6033,0,.3571,.1188,.4776,.4708,.4776,1.8403,.0012,3.6817,.0012,5.522,0,.352,0,.4708-.1205,.4719-.4776m-2.1681-.26h-2.1274c-.0616-.5134,.0242-.9631,.4708-1.2633,.3773-.2522,.7777-.2578,1.1594-.0156,.4642,.2935,.5566,.751,.4972,1.2789m-1.782-2.8937c-.0044-.4073,.3212-.7421,.7227-.7399,.3905,.0022,.7117,.3304,.7117,.7265,.0011,.3973-.3179,.7243-.7106,.7287-.3872,.0056-.7194-.3225-.7238-.7153m3.2175,2.8903h-.7018c.0484-.7354-.1463-1.3849-.781-1.8558,.3278-.394,.495-.8291,.3861-1.3436-.0748-.356-.2519-.6462-.5379-.8649-.5753-.4408-1.3794-.3828-1.8832,.1328-.55,.5624-.5555,1.3213-.0022,2.0757-.6182,.4698-.8349,1.1015-.7711,1.8558h-.7051V6.7196h4.9962v5.0721Z"/>
  <path class="uuid-f9cc833f-627c-4ff1-8302-952fd7a010a4" d="M3.9948,16.1033c-.242,.4352-.3982,.9185-.5962,1.3928,.2442,.0982,.451,.1819,.6732,.2712,.1386-.347,.2717-.6796,.4224-1.0579,.0627,.1227,.1056,.2075,.1474,.2924,.275,.5557,.6193,.6472,1.1374,.3024,.1408-.0949,.2827-.1898,.4466-.2991,.1067,.1172,.1925,.2355,.3014,.3236,.1364,.1116,.2871,.269,.4422,.2812,.4719,.0368,.9493,.0134,1.4234,.0134v-.7176c-.2101,0-.4059-.0179-.5973,.0044-.4499,.0524-.8129-.0491-1.1132-.4352-.2222-.2857-.5379-.2857-.847-.0859-.1694,.1082-.3344,.2232-.517,.3459-.0979-.1953-.1826-.3806-.2816-.5557-.2332-.4096-.8217-.4721-1.0417-.0759"/>
  <rect class="uuid-f9cc833f-627c-4ff1-8302-952fd7a010a4" x="11.6535" y="8.1772" width="5.72" height=".7008"/>
  <rect class="uuid-f9cc833f-627c-4ff1-8302-952fd7a010a4" x="11.6601" y="9.6223" width="5.7101" height=".7097"/>
  <rect class="uuid-f9cc833f-627c-4ff1-8302-952fd7a010a4" x="11.6524" y="11.0876" width="5.7189" height=".7008"/>
  <rect class="uuid-f9cc833f-627c-4ff1-8302-952fd7a010a4" x="13.0945" y="6.7163" width="4.2823" height=".7064"/>
  <rect class="uuid-f9cc833f-627c-4ff1-8302-952fd7a010a4" x="5.5463" y="13.2738" width="4.2812" height=".7008"/>
  <rect class="uuid-f9cc833f-627c-4ff1-8302-952fd7a010a4" x="11.6557" y="6.7152" width=".693" height=".7075"/>
  <rect class="uuid-f9cc833f-627c-4ff1-8302-952fd7a010a4" x="4.1152" y="13.2772" width=".6886" height=".702"/>
  <rect class="uuid-f9cc833f-627c-4ff1-8302-952fd7a010a4" x="3.3991" y="2.6999" width=".6831" height=".7087"/>
  <rect class="uuid-f9cc833f-627c-4ff1-8302-952fd7a010a4" x="4.8335" y="2.7055" width=".6908" height=".7008"/>
  <rect class="uuid-f9cc833f-627c-4ff1-8302-952fd7a010a4" x="6.2657" y="2.7122" width=".6919" height=".7008"/>
  <path class="uuid-f9cc833f-627c-4ff1-8302-952fd7a010a4" d="M11.9849,19.0948c0-.0011-.2211-.0022-.2816-.0022H3.4874c-.5445,0-.825-.2868-.825-.8437V4.8918h15.8059V13.2426l-.0011,.0045,.0011,.0056v.0011c.0033,.1975,.1617,.3571,.3575,.3571s.3553-.1596,.3586-.3571V2.825c0-.9887-.5918-1.5881-1.5664-1.5881H3.5215c-.99,0-1.5774,.5948-1.5774,1.5981-.0011,5.1313-.0011,10.2625,0,15.3938,0,.9887,.5918,1.5925,1.5609,1.5925H11.7429c.033,0,.1562-.0011,.187-.0011,.2024,0,.3652-.154,.3652-.3583,0-.1864-.1287-.3671-.3102-.3671M2.6745,2.5917c.0154-.3314,.3179-.5937,.6468-.6227,.066-.0056,.1342-.0033,.2013-.0033h14.0723c.6094,0,.8712,.2678,.8712,.8883v1.2878H2.6679c0-.5234-.0176-1.0378,.0066-1.5501"/>
</svg>