<?xml version="1.0" encoding="UTF-8"?>
<svg id="uuid-2f466545-24e5-4122-8123-759c6c06decc" data-name="Livello 1" xmlns="http://www.w3.org/2000/svg" width="24" height="24" viewBox="0 0 24 24">
  <defs>
    <style>
      .uuid-ebca731d-ecf1-4792-8df3-c5f09473db55 {
        fill: none;
        fill-rule: evenodd;
        stroke: #573d6b;
        stroke-linecap: round;
        stroke-linejoin: round;
        stroke-width: .6805px;
      }
    </style>
  </defs>
  <g>
    <path class="uuid-ebca731d-ecf1-4792-8df3-c5f09473db55" d="M3.8962,8.1282s-.4315-3.0059,3.1084-3.0059,3.6198,3.3536,3.6198,3.3536"/>
    <path class="uuid-ebca731d-ecf1-4792-8df3-c5f09473db55" d="M3.6528,9.7858s.4899-.0189,2.3716,1.1157c2.2762,.8882,3.5747-3.3826,.2743-4.3362"/>
    <path class="uuid-ebca731d-ecf1-4792-8df3-c5f09473db55" d="M20.3237,9.8993s-.4899-.0189-2.3716,1.1157c-2.2762,.8882-3.5747-3.3826-.2743-4.3362"/>
    <path class="uuid-ebca731d-ecf1-4792-8df3-c5f09473db55" d="M7.6256,5.1223s1.9164-2.3067,4.4005-.2129"/>
    <path class="uuid-ebca731d-ecf1-4792-8df3-c5f09473db55" d="M11.3519,6.6483s.0776-2.4321,2.5196-2.6173c1.9873-.1507,2.7681,1.0913,2.7681,1.0913"/>
    <path class="uuid-ebca731d-ecf1-4792-8df3-c5f09473db55" d="M13.3747,8.4759s1.0646-3.1801,3.7617-3.1426c2.6971,.0374,3.0875,2.5216,3.0875,2.5216"/>
    <path class="uuid-ebca731d-ecf1-4792-8df3-c5f09473db55" d="M9.8247,13.462H1.6991S-.0753,8.955,4.0059,8.1033c.9582-.1065,2.0938-.071,2.8745,1.3131"/>
    <path class="uuid-ebca731d-ecf1-4792-8df3-c5f09473db55" d="M17.1719,9.3734s.7487-1.4981,3.052-1.3073c2.131,.1765,3.0041,2.3491,2.1171,4.6834,0,0-1.5173,3.186-5.0387,2.5533"/>
  </g>
  <polyline class="uuid-ebca731d-ecf1-4792-8df3-c5f09473db55" points="12.4559 13.4692 9.7923 13.4692 15.6342 19.9817 14.5265 15.314 17.1554 15.314 14.5735 10.8209 10.7549 10.8209 12.4559 13.4692"/>
</svg>