<?xml version="1.0" encoding="UTF-8"?>
<svg id="uuid-92520871-ce22-4775-9f44-42861e7aed60" data-name="Livello 1" xmlns="http://www.w3.org/2000/svg" width="24" height="24" viewBox="0 0 24 24">
  <defs>
    <style>
      .uuid-c6a2e261-ffda-4017-a0af-97724903da91 {
        fill: #fff;
      }

      .uuid-068c89a3-b0b8-42c4-8c8a-15bc135456bb {
        fill: #573e6c;
      }
    </style>
  </defs>
  <path class="uuid-c6a2e261-ffda-4017-a0af-97724903da91" d="M13.2889,4.1975c.2092,.3613,.4417,.6912,.5981,1.049,.2571,.589,.2459,1.2051,.037,1.8045-.1425,.4085-.2275,.8204-.2983,1.2431-.271,1.6165-.9882,3.0386-2.2683,4.2035-.0471,.0432-.0734,.1446-.0545,.2042,.3435,1.0901,1.1449,1.7211,2.3515,1.9242,.6622,.1115,1.2843,.2958,1.7938,.7199,.7014,.5837,1.0387,1.3118,1.0351,2.1777-.0037,.8676,0,1.7353-.0011,2.6026-.0003,.3181-.0844,.3949-.4321,.3951-2.023,.0006-4.0459,.0003-6.0689,.0003H2.1678c-.4146,0-.4835-.0632-.4835-.4415,0-.8488-.0011-1.6979,.0003-2.547,.0023-1.483,1.0272-2.6038,2.62-2.8651,.4612-.0756,.914-.1724,1.3136-.4108,.6184-.3691,1.0421-.87,1.2428-1.5267,.0344-.1124,.0082-.1793-.0785-.2593-1.374-1.2689-2.1079-2.8095-2.3013-4.5764-.0539-.4928-.1106-.9861-.1344-1.4806-.0356-.7405,.011-1.476,.337-2.1701,.3302-.7037,.9128-1.1177,1.7393-1.2454,.0737-.0113,.166-.0342,.2094-.0823,.6255-.6898,1.45-.8998,2.391-.8755,.4872,.0127,.9221,.1634,1.3639,.3204,.5747,.2048,1.1615,.3699,1.7887,.3682,.3605-.0012,.6935-.0788,1.0001-.2578,.2563-.1501,.4491-.0721,.5281,.2028,.1719,.5962,.0878,1.1316-.4155,1.5229m-6.9987,1.027c-.1976,.6846-.4005,1.339-.571,2.0004-.0819,.3178-.1795,.5843-.6006,.6-.0048,.0003-.0093,.0078-.0192,.0165,0,.0568-.0082,.1191,.0011,.179,.269,1.6884,.956,3.1829,2.4229,4.3011,.4925,.3754,1.0689,.5759,1.7263,.5287,.7152-.0516,1.2803-.3853,1.7644-.832,1.124-1.0374,1.7396-2.3127,2.0024-3.7397,.0844-.4577,.0728-.4676-.4183-.5695-.2292-.0475-.3565-.1573-.4415-.3569-.245-.5765-.5157-1.1437-.763-1.7194-.0604-.1405-.1403-.1785-.2984-.1773-.9269,.007-1.8542,.0003-2.7811,.0043-.6774,.0032-1.3549,.0159-2.0241-.2352m3.1068,10.7577v3.968h6.4494c.0042-.0504,.0107-.0924,.0107-.1344,.0003-.7996,.0076-1.5991-.0023-2.3987-.0127-1.0447-.7881-1.9166-1.9016-2.1565-.3286-.071-.6684-.1139-.9834-.2187-.3621-.1208-.7028-.2961-1.0613-.4511-.5752,.8106-1.4082,1.2816-2.5116,1.3914m-7.0955,3.9668h6.4432c.0096-.0269,.0209-.0437,.0209-.0605,.0017-1.2645,.0017-2.5288,.0045-3.793,.0003-.0994-.0483-.1205-.1459-.1301-.4494-.0437-.8694-.1732-1.2614-.3795-.4728-.2489-.8442-.5945-1.1491-1.0186-.5603,.3966-1.2072,.553-1.8779,.6701-1.1386,.1987-1.9654,.996-2.0235,2.0175-.0505,.8894-.0107,1.7828-.0107,2.6942M5.0234,7.2379l.0508,.007c.0209-.0634,.0435-.1266,.0618-.1906,.2173-.7599,.4324-1.5203,.6517-2.2796,.0824-.2859,.3017-.3445,.5634-.1683,.1011,.0684,.2188,.1379,.3384,.1576,.3511,.0576,.7065,.1228,1.061,.1275,1.2174,.0151,2.4354,.0084,3.6527,.0035,.2252-.0009,.3616,.0721,.4474,.2706,.2667,.615,.553,1.2228,.8225,1.837,.0514,.117,.118,.1834,.2569,.197,.0912,.009,.1801,.0379,.2659,.0571,.5064-.8563,.2665-2.0583-.5487-2.7999-.2693-.2451-.2464-.405,.0818-.5753,.3077-.1596,.4691-.4383,.4288-.7208-.2907,.0426-.5803,.1095-.8728,.1234-.8239,.0394-1.59-.1938-2.3326-.4829-.4245-.1654-.8558-.2132-1.3057-.195-.6743,.0272-1.2239,.2688-1.6354,.7706-.0644,.0782-.195,.1483-.3003,.155-.8482,.0556-1.3464,.4887-1.5781,1.2075-.2653,.8242-.1987,1.662-.1095,2.4989m6.4183,6.978c-.2693-.4392-.5143-.8384-.7618-1.2419-1.0619,.6029-2.1528,.5956-3.1887,.0119-.2351,.3633-.4409,.717-.6873,1.0452-.0954,.1275-.1027,.199-.0119,.3155,.5682,.7297,1.332,1.0829,2.3162,1.0742,1.05-.009,1.8133-.4395,2.3335-1.2049"/>
  <g>
    <ellipse class="uuid-c6a2e261-ffda-4017-a0af-97724903da91" cx="17.3283" cy="16.8416" rx="4.9879" ry="5.1193"/>
    <g>
      <path class="uuid-068c89a3-b0b8-42c4-8c8a-15bc135456bb" d="M19.2991,13.5046c.1043,.0219,.2115,.0348,.3125,.0671,.8618,.2753,1.2293,1.2536,.7605,2.0257-.0551,.0907-.1249,.1746-.1982,.2518-.5384,.5674-1.0797,1.1321-1.6197,1.698-.2909,.3048-.6456,.4608-1.0678,.4466-.3431-.0115-.6411-.1403-.8916-.3752-.1118-.1049-.1178-.2694-.0186-.3819,.0979-.111,.2652-.1266,.3807-.0252,.1859,.1632,.3956,.2507,.6457,.2318,.1886-.0143,.3518-.0864,.4911-.2129,.0396-.0359,.0761-.0754,.1131-.1141,.5271-.5515,1.0549-1.1025,1.5808-1.6552,.3136-.3296,.3218-.815,.0227-1.1392-.3097-.3358-.8359-.3601-1.1642-.042-.2322,.225-.4497,.4653-.6736,.6988-.089,.0928-.1761,.1875-.2669,.2785-.1153,.1155-.2803,.1197-.3919,.0135-.1109-.1056-.1154-.2734-.003-.392,.3112-.328,.6225-.656,.939-.9789,.2073-.2115,.4641-.3325,.757-.3765,.0121-.0018,.0234-.0083,.0351-.0127l.2572-.0059Z"/>
      <path class="uuid-068c89a3-b0b8-42c4-8c8a-15bc135456bb" d="M14.0791,18.7055c.0193-.0937,.0336-.1888,.059-.2809,.0615-.2234,.1802-.4149,.3398-.5818,.4945-.5175,.9876-1.0362,1.4836-1.5522,.4299-.4473,1.0301-.5674,1.5889-.309,.1317,.0609,.2516,.1543,.3639,.2483,.1174,.0983,.1164,.2692,.0159,.3802-.0979,.1081-.2615,.1231-.3761,.025-.1365-.1168-.2845-.2048-.4654-.2283-.2547-.0331-.4797,.033-.6711,.2049-.0557,.05-.106,.1061-.1578,.1603-.462,.4833-.9243,.9663-1.3854,1.4505-.2766,.2905-.3217,.6952-.1167,1.0219,.2749,.4382,.8875,.5211,1.2578,.1596,.2651-.2588,.5151-.5332,.7712-.8012,.0798-.0836,.1722-.1258,.2886-.0949,.1874,.0497,.2645,.2706,.1493,.4263-.0076,.0103-.0154,.0207-.0243,.0299-.2701,.2813-.5321,.571-.8122,.842-.7292,.7058-1.9809,.3582-2.2504-.6198-.0203-.0738-.0352-.149-.0526-.2236l-.0059-.2572Z"/>
    </g>
  </g>
</svg>