<?xml version="1.0" encoding="UTF-8"?>
<svg id="uuid-db222916-f2be-465b-a293-2389a96c024c" data-name="Livello 1" xmlns="http://www.w3.org/2000/svg" width="24" height="24" viewBox="0 0 24 24">
  <defs>
    <style>
      .uuid-fe4abd95-1d98-49df-8d58-d8b81f5596b7 {
        fill: #fff;
      }
    </style>
  </defs>
  <path class="uuid-fe4abd95-1d98-49df-8d58-d8b81f5596b7" d="M20.1159,10.0945c-.1156-1.0586-.7823-1.8764-1.7748-2.1584-.1984-.0564-.4123-.1092-.6122-.0905-.0252,.0024-.0497,.0113-.0738,.0249-.167,.0937-.183,.3301-.0414,.4591,.0211,.0192,.0429,.0374,.0658,.0543,.0499,.0367,.1429,.0127,.216,.0206,1.0864,.1173,1.8752,1.2227,1.632,2.2865-.1985,.8685-.9253,1.4818-1.7998,1.5189-.8402,.0356-1.65-.5439-1.8927-1.3544-.2585-.8631,.0849-1.7333,.8791-2.2105,.1854-.1114,.4043-.2205,.2553-.4729-.1524-.258-.3605-.1053-.5387,.0016-.8141,.4884-1.233,1.2104-1.2202,2.1579,.0133,.9814,.4964,1.687,1.3389,2.1692,.1096,.0627,.2593,.1903,.2597,.2882,.0047,1.3835,.0518,2.7716-.0428,4.1496-.108,1.5719-1.5065,2.7706-3.0867,2.7838-1.6066,.0134-2.9996-1.1617-3.1599-2.7473-.0859-.8495-.0477-1.7121-.0452-2.5688,.0003-.0902,.1227-.2382,.2135-.2614,1.6145-.4112,2.7037-1.479,3.537-2.8463,.4246-.6968,.0196-1.1607,.085-1.3002,.4695-1.0013,.8648-2.0244,1.0332-3.1239,.2191-1.4306-.2368-2.2886-1.5434-2.9063-.0884-.0418-.19-.0646-.2656-.1222-.0978-.0745-.1767-.1741-.2621-.2645-.2626-.2777-.486-.6134-.7956-.8206-.4367-.2922-.8643-.2011-1.2038,.1392-.3657,.3665-.4568,.9756-.2136,1.428,.2216,.4121,.6139,.6054,1.1183,.48,.2882-.0716,.5516-.2414,.8285-.362,.0899-.0391,.2055-.112,.2779-.085,1.1352,.4226,1.674,1.048,1.5345,2.215-.1343,1.1236-.5296,2.1553-1.0047,3.167-.0846,.1803-.1876,.2513-.3969,.2988-.2266,.0514-.4511,.2261-.6171,.4028-.2412,.2568-.4116,.5787-.6428,.8466-1.0629,1.2315-2.4689,1.6055-3.7841,1.0005-.7944-.3654-1.3576-.9922-1.8192-1.7154-.2014-.3155-.4383-.5494-.8422-.569-.0804-.0039-.1875-.1019-.2282-.1835-.4777-.956-.8576-1.9454-1.0271-3.0087-.1985-1.2448,.2577-2.0283,1.4548-2.437,.0885-.0302,.2152,.019,.3141,.0572,.3372,.1304,.6592,.3214,1.007,.397,.3906,.0849,.724-.1061,.9262-.4558,.2481-.4292,.2271-.8699-.0335-1.2881-.21-.3369-.5238-.5392-.9244-.4784-.5247,.0796-.9474,.3667-1.1637,.855-.1054,.2378-.2417,.3545-.467,.4508-1.3443,.5745-1.8147,1.3573-1.6741,2.7895,.114,1.1616,.5434,2.2273,1.0408,3.2688,.0849,.1778,.1189,.319,.039,.5374-.0818,.2236-.0845,.5625,.0328,.7585,.8227,1.3748,1.9101,2.4504,3.5243,2.854,.2057,.0514,.2466,.1499,.2421,.3317-.0082,.3305,.0235,2.5022,.0284,2.516,.2084,2.4984,2.2826,4.4223,4.8171,4.4424,.9337,.0074,1.9034-.293,2.6713-.788,.4574-.2948,.9849-.8501,1.0035-.8716,.6687-.7717,1.1174-1.6581,1.1644-2.6789,.0619-1.3447,.0461-2.6933,.0477-4.0403,.0003-.2812,.0534-.449,.3377-.5947,.8654-.4435,1.3718-1.426,1.2713-2.3463ZM11.927,4.29c-.2836-.0072-.4623-.2262-.4504-.5518,.0119-.3227,.2362-.5806,.4997-.5743,.2987,.0071,.7687,.4005,.7692,.6437,.0005,.2318-.4411,.4921-.8186,.4824Zm-4.6309-1.1274c.2542,.0083,.4777,.2885,.4804,.6022,.0027,.3094-.2003,.5294-.4841,.5249-.3676-.0058-.7939-.2572-.8014-.4726-.0085-.2439,.5086-.6643,.8051-.6546Zm9.583,16.2264c-.0713,.0825-.5973,.5882-.8735,.7616-2.9057,1.8239-6.3667,.0217-6.6515-3.3897-.0378-.9405-.0126-2.0141-.0178-2.3068-.0107-.6077,.1541-.7411-.6701-.86-.0959-.0138-.1886-.0521-.2816-.0828-1.251-.4124-2.1131-1.2879-2.8146-2.357-.1141-.1739-.229-.3619-.0214-.5167,.2289-.1706,.3668,.0111,.5057,.1864,.3412,.4306,.6611,.8868,1.0537,1.2665,1.3347,1.2908,3.279,1.4121,4.7142,.2489,.5412-.4386,.9389-1.0516,1.4224-1.5659,.093-.0989,.1944-.2751,.4254-.159,.2374,.1759,.1199,.3434,.0594,.4392-.8089,1.2808-1.8285,2.301-3.3987,2.5816-.3106,.0555-.4243,.2036-.4161,.5234,.0201,.7834-.014,1.5685,.0154,2.3514,.0154,.4111,.0643,.8364,.1909,1.2251,.5656,1.7365,2.3079,2.7732,4.131,2.493,1.7453-.2683,3.0813-1.8119,3.1078-3.6171,.0169-1.1512,.0045-2.3029,.0052-3.4543v-.1068c0-.1595,.1294-.2888,.2889-.2888h.0071c.1596,0,.2891,.1299,.2889,.2895-.0012,1.1268-.0086,2.2304,.003,3.3338,.0119,1.1377-.3272,2.1416-1.0738,3.0045Z"/>
  <path class="uuid-fe4abd95-1d98-49df-8d58-d8b81f5596b7" d="M18.7627,10.3041c-.0029,.6051-.4878,1.0969-1.0891,1.1048-.6054,.0079-1.1238-.5081-1.1212-1.1161,.0026-.6179,.5066-1.1049,1.1327-1.0945,.6081,.0101,1.0806,.4949,1.0776,1.1058Zm-1.1158,.5389c.3111,.0071,.5679-.2354,.5714-.5398,.0034-.2959-.2625-.5637-.5585-.5626-.2868,.001-.5326,.241-.5445,.5316-.0131,.3183,.2154,.5636,.5317,.5709Z"/>
</svg>