<?xml version="1.0" encoding="UTF-8"?>
<svg id="uuid-bc5abda2-2702-4d1c-b053-28f0c85f45c1" data-name="Livello 1" xmlns="http://www.w3.org/2000/svg" width="24" height="24" viewBox="0 0 24 24">
  <defs>
    <style>
      .uuid-30c35ea1-9764-46e8-8bf8-80c3fa4b9778 {
        stroke-width: .4214px;
      }

      .uuid-30c35ea1-9764-46e8-8bf8-80c3fa4b9778, .uuid-3f9d1c82-9065-4211-b83f-6fba3d1921aa {
        fill: none;
        stroke: #573d6b;
        stroke-linecap: round;
        stroke-linejoin: round;
      }

      .uuid-3f9d1c82-9065-4211-b83f-6fba3d1921aa {
        stroke-width: .7023px;
      }
    </style>
  </defs>
  <g>
    <path class="uuid-30c35ea1-9764-46e8-8bf8-80c3fa4b9778" d="M15.0273,18.0514c-.1886-.0355-.3805-.0586-.5653-.109-.4493-.1224-.8333-.3662-1.1572-.7073-.3452-.3636-.5712-.7958-.6817-1.2914-.1117-.5011-.07-.9905,.1021-1.4713,.1992-.5567,.4861-1.0646,.8166-1.5472,.375-.5477,.7901-1.0612,1.2663-1.5199,.0934-.0899,.195-.1719,.2992-.2485,.0826-.0608,.1661-.0193,.168,.0823,.0094,.5171,.2441,.9283,.5869,1.2774,.3411,.3473,.7038,.6721,1.0526,1.0115,.2508,.244,.4773,.5098,.6435,.8247,.2171,.4112,.2827,.8504,.2284,1.311-.0561,.4761-.2191,.9094-.4994,1.2942-.3757,.5157-.867,.8555-1.4751,1.0103-.156,.0397-.3175,.0561-.4765,.0833h-.3084Zm.0699-6.6445c-.0308,.0275-.0505,.0439-.069,.0616-.5207,.4991-.9805,1.0524-1.3865,1.653-.3296,.4874-.6132,.999-.7832,1.5713-.1217,.4095-.1378,.8232-.0325,1.2352,.2402,.9395,.8159,1.559,1.7232,1.8299,.6249,.1866,1.236,.1068,1.8025-.2195,.6804-.3918,1.0911-.9923,1.2261-1.7862,.0866-.5092,.0107-.9873-.262-1.4274-.1543-.249-.3432-.4685-.5514-.6694-.2735-.2638-.5584-.5152-.8303-.7808-.4113-.4018-.7684-.84-.8368-1.4677Z"/>
    <path class="uuid-30c35ea1-9764-46e8-8bf8-80c3fa4b9778" d="M18.5153,10.9814c.0007,.5656-.4058,1.0149-.9245,1.0517-.5203,.0369-.9818-.3515-1.0535-.8802-.0366-.27,.0374-.5126,.1575-.7445,.1813-.3503,.4112-.6623,.7068-.9203,.0175-.0153,.036-.0298,.0557-.0421,.0799-.0497,.1554-.0177,.1602,.0773,.0092,.1825,.0988,.3192,.2192,.4394,.1363,.136,.2813,.2631,.4143,.4024,.1697,.1777,.2709,.3897,.2644,.6162Zm-1.0624-1.2618l-.0193,.0057c-.2814,.3038-.5354,.6267-.671,1.0307-.0959,.2857-.0083,.6251,.2104,.8258,.3742,.3433,.8933,.2963,1.1953-.1169,.1923-.2631,.2276-.6293-.009-.9046-.0847-.0986-.1798-.1881-.2739-.2776-.1733-.1649-.3541-.3229-.4325-.5631Z"/>
    <path class="uuid-30c35ea1-9764-46e8-8bf8-80c3fa4b9778" d="M16.6514,15.2251c-.0517,.9113-.7831,1.6394-1.6754,1.6633-.0868,.0023-.132-.0284-.136-.0924-.0039-.0632,.0386-.1053,.1245-.1075,.284-.0072,.5477-.0844,.7851-.2442,.4349-.2929,.6686-.7097,.7072-1.2426,.0023-.0316-.0074-.0709,.0075-.0931,.0234-.0348,.0601-.0752,.0966-.0818,.0487-.0088,.0848,.0329,.0899,.0877,.0034,.0365,.0006,.0737,.0006,.1106Z"/>
  </g>
  <g>
    <path class="uuid-3f9d1c82-9065-4211-b83f-6fba3d1921aa" d="M12.9582,18.2565c0,1.6766-1.3213,3.0357-2.9512,3.0357h0c-1.6299,0-2.9512-1.3591-2.9512-3.0357V4.4797h5.9025v7.6391"/>
    <path class="uuid-3f9d1c82-9065-4211-b83f-6fba3d1921aa" d="M13.5691,2.7078H6.4581c-.6622,0-.97,.4034-.9737,.9011-.0037,.4976,.2982,.9011,.9604,.9011h7.111c.6622,0,.97-.4034,.9737-.9011s-.2982-.9011-.9604-.9011Z"/>
    <line class="uuid-3f9d1c82-9065-4211-b83f-6fba3d1921aa" x1="7.0748" y1="9.1148" x2="12.928" y2="9.1148"/>
  </g>
</svg>