<?xml version="1.0" encoding="UTF-8"?>
<svg id="uuid-8cd5e7d4-ec92-4a19-af4f-38ca75572076" data-name="Livello 1" xmlns="http://www.w3.org/2000/svg" width="24" height="24" viewBox="0 0 24 24">
  <defs>
    <style>
      .uuid-03518bfa-874c-4d0a-ba01-8d49d71b5b8d {
        fill: #fff;
      }

      .uuid-95c5d445-a927-415f-b012-565f853b140e {
        fill: none;
        stroke: #fff;
        stroke-linecap: round;
        stroke-linejoin: round;
        stroke-width: .8662px;
      }
    </style>
  </defs>
  <g>
    <path class="uuid-03518bfa-874c-4d0a-ba01-8d49d71b5b8d" d="M7.0378,8.9754l-.9761,1.2854v.0201l1.5515-.2049v.6979l-1.5515-.1848v.0211l.9867,1.2332-.6477,.3696-.6166-1.4391h-.0206l-.6678,1.4491-.586-.3696,.9761-1.2543v-.0201l-1.5209,.1948v-.6979l1.5109,.1948v-.0211l-.9661-1.2533,.6271-.3595,.6372,1.428h.0206l.6266-1.4391,.6166,.3495Z"/>
    <path class="uuid-03518bfa-874c-4d0a-ba01-8d49d71b5b8d" d="M11.2541,8.9754l-.9761,1.2854v.0201l1.5515-.2049v.6979l-1.5515-.1848v.0211l.9867,1.2332-.6477,.3696-.6166-1.4391h-.0206l-.6678,1.4491-.586-.3696,.9761-1.2543v-.0201l-1.5209,.1948v-.6979l1.5109,.1948v-.0211l-.9661-1.2533,.6266-.3595,.6377,1.428h.0201l.6271-1.4391,.6166,.3495Z"/>
    <path class="uuid-03518bfa-874c-4d0a-ba01-8d49d71b5b8d" d="M15.4699,8.9754l-.9761,1.2854v.0201l1.5515-.2049v.6979l-1.5515-.1848v.0211l.9867,1.2332-.6477,.3696-.6166-1.4391h-.0206l-.6678,1.4491-.586-.3696,.9761-1.2543v-.0201l-1.5209,.1948v-.6979l1.5109,.1948v-.0211l-.9661-1.2533,.6266-.3595,.6377,1.428h.0201l.6271-1.4391,.6166,.3495Z"/>
    <path class="uuid-03518bfa-874c-4d0a-ba01-8d49d71b5b8d" d="M19.6861,8.9754l-.9761,1.2854v.0201l1.5515-.2049v.6979l-1.5515-.1848v.0211l.9867,1.2332-.6477,.3696-.6166-1.4391h-.0206l-.6678,1.4491-.586-.3696,.9761-1.2543v-.0201l-1.5209,.1948v-.6979l1.5109,.1948v-.0211l-.9661-1.2533,.6271-.3595,.6372,1.428h.0206l.6266-1.4391,.6166,.3495Z"/>
  </g>
  <path class="uuid-95c5d445-a927-415f-b012-565f853b140e" d="M16.213,3.6581H7.787c-3.4827,0-6.3059,2.8233-6.3059,6.3059v1.3543c0,3.4827,2.8233,6.3059,6.3059,6.3059h5.3691l2.9704,2.7177v-2.7177h.0866c3.4827,0,6.3059-2.8233,6.3059-6.3059v-1.3543c0-3.4827-2.8233-6.3059-6.3059-6.3059Z"/>
</svg>