<?xml version="1.0" encoding="UTF-8"?>
<svg id="uuid-2843550c-5fa1-49df-b78a-e6a2dbae02a3" data-name="Livello 1" xmlns="http://www.w3.org/2000/svg" width="88" height="103" xmlns:xlink="http://www.w3.org/1999/xlink" viewBox="0 0 88 103">
  <defs>
    <style>
      .uuid-d73e6bc5-bdb6-4fbe-b9c4-9e442bf397ca {
        clip-path: url(#uuid-29150fe6-d4ae-479a-9ae0-0689d682548d);
      }

      .uuid-6dd8dde4-ecf8-4ca4-b368-78723a019fa7 {
        fill: url(#uuid-e1646cd4-606b-4128-8a8e-0728d1d62172);
      }

      .uuid-f1ef9e71-37eb-4042-8937-243a1e79c671 {
        fill: url(#uuid-7fdc3c45-2eb4-4a6b-89fe-55edf52a472a);
      }

      .uuid-2671f44a-6df2-4a7b-aa1a-9bd1e2d8fbb5 {
        fill: url(#uuid-e91e5f9e-9eb9-45d9-b204-07d6e0801737);
      }

      .uuid-c491466b-1053-40e6-98a4-44cbf307a54d {
        clip-path: url(#uuid-1cd25599-0a1b-41b3-89ff-0c8964046496);
      }

      .uuid-f0715519-b2b6-48a7-8d00-d6bcbfc6b3f8 {
        clip-path: url(#uuid-424f296b-8048-4d34-801f-13f549272e51);
      }

      .uuid-518978fd-dbdd-400d-8410-2421b4281a79 {
        clip-path: url(#uuid-018dc114-b7a2-4fce-bf7a-5722abadc88a);
      }

      .uuid-aa1037e7-e4ca-4221-80bb-dd79133ffe34 {
        clip-path: url(#uuid-8c21a709-8c01-46d5-8fa5-a884b0041dbb);
      }

      .uuid-e548177d-4b44-43cd-b8d2-c9007ae2befd {
        fill: url(#uuid-601dbc46-11e9-4f3c-9404-c03f0019cbb5);
      }

      .uuid-00e65482-efc3-47d8-91ce-bb0184a1b9b8 {
        fill: none;
      }

      .uuid-cb6bcd10-1794-4bf0-9ee1-2ea226ed8bd9 {
        clip-path: url(#uuid-d06e18af-10ec-4b6d-a53f-4cb98b913e29);
      }

      .uuid-d6a6383b-920a-40c2-ab15-04383b69d161 {
        fill: url(#uuid-36b868c1-d221-44d4-bdf9-5d9818daa9f0);
      }

      .uuid-88c8f3b6-6a08-4cc8-82ba-58f1cad2a2ec {
        fill: url(#uuid-e019bb78-a1ad-4e8d-9214-6350e2a8381c);
      }

      .uuid-e158d53a-f248-4356-aa8c-9f50981e212d {
        fill: #f0b300;
      }

      .uuid-91c65685-58d8-4f51-b3c9-3c405d680b98 {
        fill: url(#uuid-ce52adea-f0bc-4a8d-b201-df2a686f99df);
      }
    </style>
    <linearGradient id="uuid-601dbc46-11e9-4f3c-9404-c03f0019cbb5" data-name="Sfumatura senza nome 656" x1="6" y1="38" x2="82" y2="38" gradientTransform="matrix(1, 0, 0, 1, 0, 0)" gradientUnits="userSpaceOnUse">
      <stop offset="0" stop-color="#ededed"/>
      <stop offset="0" stop-color="#ededed"/>
      <stop offset=".317" stop-color="#e9e9e9"/>
      <stop offset=".6301" stop-color="#ddd"/>
      <stop offset=".9407" stop-color="#cbcac9"/>
      <stop offset=".9972" stop-color="#c7c6c5"/>
      <stop offset="1" stop-color="#c7c6c5"/>
    </linearGradient>
    <clipPath id="uuid-d06e18af-10ec-4b6d-a53f-4cb98b913e29">
      <path class="uuid-00e65482-efc3-47d8-91ce-bb0184a1b9b8" d="M42.532,19.105c4.803,1.497,13.559,20.984,15.1021,33.991,1.045,8.806,1.762,7.727,4.205,6.575,3.054-1.441,4.886-5.002,3.561-11.408-2.017-9.752-7.884-24.111-13.973-30.507-1.26-1.323-2.796-1.917-4.248-1.917-2.082,0-3.989,1.223-4.647,3.266"/>
    </clipPath>
    <linearGradient id="uuid-7fdc3c45-2eb4-4a6b-89fe-55edf52a472a" data-name="Sfumatura senza nome 5" x1="-3982.2884" y1="3051.4269" x2="-3981.2884" y2="3051.4269" gradientTransform="translate(-116829.6487 152553.7049) rotate(90) scale(38.3048 -38.3048)" gradientUnits="userSpaceOnUse">
      <stop offset="0" stop-color="#cec5d5"/>
      <stop offset=".2826" stop-color="#9887a5"/>
      <stop offset=".5561" stop-color="#69517b"/>
      <stop offset=".6887" stop-color="#573d6b"/>
      <stop offset="1" stop-color="#573d6b"/>
    </linearGradient>
    <clipPath id="uuid-424f296b-8048-4d34-801f-13f549272e51">
      <path class="uuid-00e65482-efc3-47d8-91ce-bb0184a1b9b8" d="M24.51,51.43c-.566,5.03,1.126,7.069,3.254,7.78,1.337,.445,6.6559-1.59,8.431-5.377-3.513,.842-4.188-2.715-3.608-7.206-1.947-1.454-4.512-3.563-6.205-5.019-.779,3.034-1.584,7.26-1.872,9.822"/>
    </clipPath>
    <linearGradient id="uuid-e91e5f9e-9eb9-45d9-b204-07d6e0801737" data-name="Sfumatura senza nome 5" x1="-3833.6931" y1="2791.2618" x2="-3832.6931" y2="2791.2618" gradientTransform="translate(77027.5612 56114.1531) scale(20.0854 -20.0854)" xlink:href="#uuid-7fdc3c45-2eb4-4a6b-89fe-55edf52a472a"/>
    <clipPath id="uuid-018dc114-b7a2-4fce-bf7a-5722abadc88a">
      <path class="uuid-00e65482-efc3-47d8-91ce-bb0184a1b9b8" d="M25.178,40.512c11.2029,10.189,31.212,23.28,37.878,20.136,3.016-1.423,3.347-7.257,2.073-13.041,1.081,8.943-18.706,1.104-26.565-3.761-8.228-5.092-16.996-11.737-16.324-15.143-2.04,3.851-1.159,8.774,2.938,11.809"/>
    </clipPath>
    <linearGradient id="uuid-ce52adea-f0bc-4a8d-b201-df2a686f99df" data-name="Sfumatura senza nome 4" x1="-4003.6769" y1="2865.6617" x2="-4002.6769" y2="2865.6617" gradientTransform="translate(136229.8677 -190201.2278) rotate(-90) scale(47.5236 -47.5236)" gradientUnits="userSpaceOnUse">
      <stop offset="0" stop-color="#573d6b"/>
      <stop offset=".927" stop-color="#bbb1c6"/>
      <stop offset="1" stop-color="#bbb1c6"/>
    </linearGradient>
    <clipPath id="uuid-8c21a709-8c01-46d5-8fa5-a884b0041dbb">
      <path class="uuid-00e65482-efc3-47d8-91ce-bb0184a1b9b8" d="M18.346,28.087c-1.403,3.207,.919,8.322,6.914,12.434-3.203-3.105-3.688-8.395,1.162-11.142,5.991-3.393,15.648-.353,18.799,.83,1.745,.654,2.648,1.204,2.531,.279-.117-.92-1.532-2.036-2.828-2.624-3.933-1.787-11.205-3.807-17.223-3.806-4.356,0-8.056,1.058-9.355,4.029"/>
    </clipPath>
    <linearGradient id="uuid-e019bb78-a1ad-4e8d-9214-6350e2a8381c" data-name="Sfumatura senza nome 4" x1="-3827.7646" y1="2963.622" x2="-3826.7646" y2="2963.622" gradientTransform="translate(110504.6432 85574.2726) scale(28.864 -28.864)" xlink:href="#uuid-ce52adea-f0bc-4a8d-b201-df2a686f99df"/>
    <clipPath id="uuid-1cd25599-0a1b-41b3-89ff-0c8964046496">
      <path class="uuid-00e65482-efc3-47d8-91ce-bb0184a1b9b8" d="M42.547,13.011c-4.734,.996-10.971,12.211-14.568,23.442,1.563,1.268,4.188,3.163,6.027,4.428,.491-1.943,.625-2.84,1.304-5.159,3.558-12.168,9.88-21.904,16.117-17.965-2.664-2.8-4.638-4.895-7.508-4.895-.435,0-.891,.048-1.372,.149"/>
    </clipPath>
    <linearGradient id="uuid-36b868c1-d221-44d4-bdf9-5d9818daa9f0" data-name="Sfumatura senza nome 5" x1="-3831.5597" y1="2877.0567" x2="-3830.5597" y2="2877.0567" gradientTransform="translate(102836.0205 77224.4269) scale(26.8321 -26.8321)" xlink:href="#uuid-7fdc3c45-2eb4-4a6b-89fe-55edf52a472a"/>
    <clipPath id="uuid-29150fe6-d4ae-479a-9ae0-0689d682548d">
      <path class="uuid-00e65482-efc3-47d8-91ce-bb0184a1b9b8" d="M70.123,27.499c0,.118,.025,.229,.036,.344-3.844,9.389-29.275,20.308-34.929,24.073-7.204,4.801-10.754,.49-10.754,.49,0,0-.041-.028-.045-.001-.593,5.239-.345,8.424,1.867,9.082,3.505,1.042,14.914-7.081,25.636-15.206,10.22-7.743,19.817-15.488,21.351-15.292,.1219,.012,.24,.037,.365,.037,1.946,0,3.525-1.579,3.525-3.527,0-1.946-1.579-3.525-3.525-3.525-1.948,0-3.527,1.579-3.527,3.525"/>
    </clipPath>
    <linearGradient id="uuid-e1646cd4-606b-4128-8a8e-0728d1d62172" data-name="Sfumatura senza nome 6" x1="-3906.2242" y1="2990.466" x2="-3905.2242" y2="2990.466" gradientTransform="translate(207133.7283 158598.9596) scale(53.0204 -53.0204)" gradientUnits="userSpaceOnUse">
      <stop offset="0" stop-color="#4f3863"/>
      <stop offset=".1747" stop-color="#4f3863"/>
      <stop offset=".2753" stop-color="#7a5947"/>
      <stop offset=".502" stop-color="#e9ad04"/>
      <stop offset=".5153" stop-color="#f0b300"/>
      <stop offset="1" stop-color="#f0b300"/>
    </linearGradient>
  </defs>
  <g>
    <rect class="uuid-e548177d-4b44-43cd-b8d2-c9007ae2befd" x="6" width="76" height="76" rx="20.4362" ry="20.4362"/>
    <g>
      <g class="uuid-cb6bcd10-1794-4bf0-9ee1-2ea226ed8bd9">
        <rect class="uuid-f1ef9e71-37eb-4042-8937-243a1e79c671" x="32.9175" y="12.8609" width="43.422" height="52.0193" transform="translate(-11.977 31.1962) rotate(-28.8608)"/>
      </g>
      <g class="uuid-f0715519-b2b6-48a7-8d00-d6bcbfc6b3f8">
        <rect class="uuid-2671f44a-6df2-4a7b-aa1a-9bd1e2d8fbb5" x="20.5103" y="43.6852" width="19.1184" height="13.8927" transform="translate(-23.1638 75.8098) rotate(-84.6075)"/>
      </g>
      <g class="uuid-518978fd-dbdd-400d-8410-2421b4281a79">
        <rect class="uuid-91c65685-58d8-4f51-b3c9-3c405d680b98" x="16.4777" y="17.4436" width="53.6476" height="57.6078" transform="translate(-18.5013 60.1856) rotate(-59.5933)"/>
      </g>
      <g class="uuid-aa1037e7-e4ca-4221-80bb-dd79133ffe34">
        <rect class="uuid-88c8f3b6-6a08-4cc8-82ba-58f1cad2a2ec" x="14.8885" y="17.6953" width="35.0348" height="29.1875" transform="translate(-11.4545 19.2896) rotate(-28.3876)"/>
      </g>
      <g class="uuid-c491466b-1053-40e6-98a4-44cbf307a54d">
        <rect class="uuid-d6a6383b-920a-40c2-ab15-04383b69d161" x="21.8453" y="9.9717" width="35.7154" height="33.7995" transform="translate(-2.5678 49.4896) rotate(-62.2409)"/>
      </g>
      <g class="uuid-d73e6bc5-bdb6-4fbe-b9c4-9e442bf397ca">
        <rect class="uuid-6dd8dde4-ecf8-4ca4-b368-78723a019fa7" x="23.838" y="23.974" width="53.337" height="38.555"/>
      </g>
    </g>
  </g>
  <g>
    <path class="uuid-e158d53a-f248-4356-aa8c-9f50981e212d" d="M6.762,99.2852c-.9282,0-1.7705-.1807-2.5264-.5439s-1.4048-.8457-1.9463-1.4463c-.542-.6016-.9614-1.2891-1.2588-2.0625-.2979-.7734-.4463-1.5654-.4463-2.375,0-.8447,.1572-1.6543,.4731-2.4287,.3149-.7734,.75-1.458,1.3032-2.0527,.5537-.5957,1.2114-1.0684,1.9731-1.4199s1.5894-.5273,2.4819-.5273c.9165,0,1.7529,.1875,2.5088,.5625s1.4019,.8662,1.9375,1.4736,.9521,1.2979,1.25,2.0713c.2974,.7734,.4463,1.5596,.4463,2.3574,0,.8447-.1548,1.6514-.4644,2.4189s-.7383,1.4463-1.2856,2.0361c-.5479,.5889-1.2026,1.0596-1.9639,1.4102-.7622,.3516-1.5894,.5264-2.4824,.5264Zm-3.6782-6.4277c0,.5479,.0835,1.0771,.25,1.5889,.1665,.5127,.4077,.9648,.7231,1.3574s.7021,.708,1.1606,.9463c.458,.2383,.979,.3574,1.5625,.3574,.5952,0,1.1221-.1221,1.5801-.3662,.4585-.2441,.8452-.5684,1.1606-.9736,.3154-.4043,.5537-.8594,.7144-1.3652s.2412-1.0215,.2412-1.5449c0-.5479-.0864-1.0771-.2588-1.5889-.1729-.5117-.417-.9648-.7324-1.3574s-.7026-.7051-1.1606-.9375c-.4585-.2324-.9731-.3477-1.5444-.3477-.5952,0-1.125,.1221-1.5894,.3652-.4639,.2441-.8511,.5654-1.1606,.9648-.3096,.3984-.5444,.8506-.7051,1.3564-.1606,.5068-.2412,1.0215-.2412,1.5449Z"/>
    <path class="uuid-e158d53a-f248-4356-aa8c-9f50981e212d" d="M23.7434,99.1963h-2.3926v-5.25c0-.75-.1313-1.2969-.3931-1.6426-.2622-.3447-.625-.5176-1.0894-.5176-.2383,0-.4819,.0479-.7319,.1426-.25,.0957-.4854,.2295-.7051,.4023-.2207,.1719-.4199,.3779-.5986,.6152-.1782,.2383-.3096,.5-.3926,.7861v5.4639h-2.3926v-9.3564h2.1606v1.7314c.3447-.5947,.8447-1.0586,1.4995-1.3926,.6548-.333,1.3931-.5,2.2144-.5,.583,0,1.0591,.1074,1.4282,.3213,.3691,.2148,.6548,.4941,.8574,.8398,.2021,.3447,.3418,.7383,.4194,1.1787,.0771,.4404,.1162,.8867,.1162,1.3389v5.8389Z"/>
    <path class="uuid-e158d53a-f248-4356-aa8c-9f50981e212d" d="M31.7957,98.7139c-.3213,.1436-.7139,.2861-1.1782,.4287s-.9526,.2148-1.4644,.2148c-.3335,0-.646-.042-.9375-.125-.2915-.084-.5474-.2178-.7676-.4023-.2207-.1846-.396-.4219-.5269-.7139-.1313-.292-.1963-.6455-.1963-1.0625v-5.375h-1.2319v-1.8389h1.2319v-3.0361h2.3926v3.0361h1.9644v1.8389h-1.9644v4.5713c0,.333,.0864,.5684,.2588,.7051,.1724,.1377,.3838,.2061,.6338,.2061s.4941-.042,.7324-.125c.2378-.084,.4282-.1553,.5713-.2148l.4819,1.8926Z"/>
    <path class="uuid-e158d53a-f248-4356-aa8c-9f50981e212d" d="M37.5808,99.375c-.7617,0-1.4463-.1309-2.0532-.3926s-1.1221-.6162-1.5444-1.0625c-.4229-.4463-.7471-.9619-.9731-1.5449-.2266-.583-.3394-1.1963-.3394-1.8389,0-.6553,.1128-1.2734,.3394-1.8574,.2261-.583,.5503-1.0977,.9731-1.5449,.4224-.4463,.9375-.7998,1.5444-1.0615s1.2915-.3936,2.0532-.3936,1.4434,.1318,2.0449,.3936c.6006,.2617,1.1128,.6152,1.5352,1.0615,.4229,.4473,.7471,.9619,.9731,1.5449,.2261,.584,.3394,1.2021,.3394,1.8574,0,.6426-.1133,1.2559-.3394,1.8389s-.5474,1.0986-.9639,1.5449c-.417,.4463-.9287,.8008-1.5356,1.0625-.6074,.2617-1.292,.3926-2.0537,.3926Zm-2.4463-4.8389c0,.417,.0625,.7939,.1875,1.1338,.125,.3389,.2979,.6338,.5181,.8838s.479,.4434,.7769,.5801c.2974,.1367,.6187,.2051,.9639,.2051s.6665-.0684,.9644-.2051c.2974-.1367,.5562-.3301,.7769-.5801,.2202-.25,.3926-.5479,.5176-.8926,.125-.3457,.1875-.7266,.1875-1.1436,0-.4043-.0625-.7793-.1875-1.125-.125-.3447-.2974-.6426-.5176-.8926-.2207-.25-.4795-.4434-.7769-.5801-.2979-.1367-.6191-.2051-.9644-.2051s-.6665,.0713-.9639,.2139c-.2979,.1426-.5566,.3398-.7769,.5898s-.3931,.5469-.5181,.8926c-.125,.3447-.1875,.7197-.1875,1.125Z"/>
    <path class="uuid-e158d53a-f248-4356-aa8c-9f50981e212d" d="M43.6516,97.7324l5.2139-6.2139h-4.9995v-1.6787h7.5171v1.4639l-5.1782,6.2139h5.2676v1.6787h-7.8208v-1.4639Z"/>
    <path class="uuid-e158d53a-f248-4356-aa8c-9f50981e212d" d="M57.3645,86.5186h2.1782l4.8213,12.6777h-2.5356l-1.1782-3.1602h-4.4282l-1.1606,3.1602h-2.5356l4.8389-12.6777Zm2.8389,7.7852l-1.7495-4.9814-1.8213,4.9814h3.5708Z"/>
    <path class="uuid-e158d53a-f248-4356-aa8c-9f50981e212d" d="M71.5598,99.375c-.7383,0-1.3809-.1641-1.9282-.4912-.5479-.3271-.9761-.7705-1.2856-1.3301v5.4463h-2.3926v-13.1602h2.0889v1.6064c.3452-.5469,.7915-.9785,1.3394-1.2939,.5474-.3154,1.1782-.4736,1.8926-.4736,.6309,0,1.2144,.1279,1.75,.3838,.5356,.2568,.9971,.6016,1.3838,1.0361s.6904,.9463,.9106,1.5352c.2202,.5898,.3306,1.2119,.3306,1.8662,0,.6787-.1016,1.3154-.3037,1.9111-.2026,.5947-.4854,1.1133-.8481,1.5527-.3633,.4404-.7944,.7861-1.2944,1.0361s-1.0479,.375-1.6431,.375Zm-.8032-2.0361c.3569,0,.6875-.0771,.9907-.2314,.3037-.1553,.5625-.3633,.7769-.625s.3809-.5654,.5-.9111c.1187-.3447,.1787-.7021,.1787-1.0713,0-.3926-.0659-.7588-.1968-1.0977-.1309-.3398-.3125-.6338-.5444-.8838s-.5059-.4473-.8213-.5898-.6577-.2139-1.0269-.2139c-.2261,0-.4585,.0381-.6963,.1162-.2383,.0771-.4585,.1875-.6606,.3301-.2026,.1426-.3838,.3096-.5444,.5-.1611,.1904-.2832,.3984-.3662,.625v2.1963c.2144,.5352,.5415,.9795,.9819,1.3301,.4404,.3516,.9165,.5264,1.4287,.5264Z"/>
    <path class="uuid-e158d53a-f248-4356-aa8c-9f50981e212d" d="M83.3264,99.375c-.7383,0-1.3809-.1641-1.9282-.4912-.5479-.3271-.9761-.7705-1.2856-1.3301v5.4463h-2.3926v-13.1602h2.0889v1.6064c.3452-.5469,.7915-.9785,1.3394-1.2939,.5474-.3154,1.1782-.4736,1.8926-.4736,.6309,0,1.2144,.1279,1.75,.3838,.5356,.2568,.9971,.6016,1.3838,1.0361s.6904,.9463,.9106,1.5352c.2202,.5898,.3306,1.2119,.3306,1.8662,0,.6787-.1016,1.3154-.3037,1.9111-.2026,.5947-.4854,1.1133-.8481,1.5527-.3633,.4404-.7944,.7861-1.2944,1.0361s-1.0479,.375-1.6431,.375Zm-.8032-2.0361c.3569,0,.6875-.0771,.9907-.2314,.3037-.1553,.5625-.3633,.7769-.625s.3809-.5654,.5-.9111c.1187-.3447,.1787-.7021,.1787-1.0713,0-.3926-.0659-.7588-.1968-1.0977-.1309-.3398-.3125-.6338-.5444-.8838s-.5059-.4473-.8213-.5898-.6577-.2139-1.0269-.2139c-.2261,0-.4585,.0381-.6963,.1162-.2383,.0771-.4585,.1875-.6606,.3301-.2026,.1426-.3838,.3096-.5444,.5-.1611,.1904-.2832,.3984-.3662,.625v2.1963c.2144,.5352,.5415,.9795,.9819,1.3301,.4404,.3516,.9165,.5264,1.4287,.5264Z"/>
  </g>
</svg>