<?xml version="1.0" encoding="UTF-8"?>
<svg id="uuid-729987d1-0c77-4ca5-b218-b6fe93ec5014" data-name="Livello 1" xmlns="http://www.w3.org/2000/svg" width="88" height="103" xmlns:xlink="http://www.w3.org/1999/xlink" viewBox="0 0 88 103">
  <defs>
    <style>
      .uuid-d8186a0a-5298-44ee-8ad7-7c5395a3e24b {
        fill: url(#uuid-e1538b28-1fbf-4e66-a027-e68b723c376f);
      }

      .uuid-cb50c7b2-f7f8-4073-9750-242e7b894620 {
        fill: url(#uuid-8d28fbfe-43e8-45d2-af54-da92e9eee4ff);
      }

      .uuid-78711d43-936e-46ac-b9d4-9b2b297b91fb {
        clip-path: url(#uuid-53b67adb-6ed4-409d-aa6e-3696c41926a7);
      }

      .uuid-9cbb9206-cd8d-4542-9f27-18a0eae1a697 {
        fill: url(#uuid-646c4892-5084-4713-ade2-046e3f58cd6f);
      }

      .uuid-c3c35c89-ef27-40cf-a402-c1d6d46cd8de {
        clip-path: url(#uuid-3a266d5c-b236-4196-bcd3-ea794673264d);
      }

      .uuid-f7902c5b-18ef-4dca-ad95-77075f6c0f12 {
        clip-path: url(#uuid-b68b5a7d-cb01-470d-a326-2ec95c0804f2);
      }

      .uuid-6efa9d2b-a3cf-42eb-9ac9-62ac11b596d0 {
        fill: url(#uuid-07cd83e8-bf80-48b5-8924-c4f6785c3d87);
      }

      .uuid-08954e39-0da1-4871-a58f-f93e3dc81785 {
        clip-path: url(#uuid-eede8f98-298b-4d49-9764-524af517f026);
      }

      .uuid-a6bcfc5c-ea27-48c9-bfd8-89525695b2f1 {
        fill: url(#uuid-99eb0859-d7bf-415a-b40a-6855949166fb);
      }

      .uuid-5f345824-45bc-408f-a380-c8a1b0b3b504 {
        fill: url(#uuid-f02169c9-43a2-4389-b606-4a763a659bdc);
      }

      .uuid-55d3323f-c75a-4b2e-9cf6-3eb724573a0a {
        fill: none;
      }

      .uuid-6e67ab1e-6e58-4fab-80ea-3b65c181abc8 {
        clip-path: url(#uuid-8e5374de-1e55-4c21-a12c-1706a127d968);
      }

      .uuid-00620211-b10b-4cdd-917d-99aff378a269 {
        fill: url(#uuid-3264ac17-9d81-4034-8e5f-47daa397b1d4);
      }

      .uuid-3bb50dcc-61b5-46f9-95f7-869363ca640e {
        fill: #f0b300;
      }

      .uuid-15f7868a-ba68-4265-9f8b-32f7c17c5c29 {
        clip-path: url(#uuid-4f1e9b32-7444-4dc1-a4ec-1a3d80089b86);
      }
    </style>
    <linearGradient id="uuid-8d28fbfe-43e8-45d2-af54-da92e9eee4ff" data-name="Sfumatura senza nome 656" x1="6" y1="38" x2="82" y2="38" gradientTransform="matrix(1, 0, 0, 1, 0, 0)" gradientUnits="userSpaceOnUse">
      <stop offset="0" stop-color="#ededed"/>
      <stop offset="0" stop-color="#ededed"/>
      <stop offset=".317" stop-color="#e9e9e9"/>
      <stop offset=".6301" stop-color="#ddd"/>
      <stop offset=".9407" stop-color="#cbcac9"/>
      <stop offset=".9972" stop-color="#c7c6c5"/>
      <stop offset="1" stop-color="#c7c6c5"/>
    </linearGradient>
    <clipPath id="uuid-eede8f98-298b-4d49-9764-524af517f026">
      <path class="uuid-55d3323f-c75a-4b2e-9cf6-3eb724573a0a" d="M42.532,19.105c4.803,1.497,13.559,20.984,15.1021,33.991,1.045,8.806,1.762,7.727,4.205,6.575,3.054-1.441,4.886-5.002,3.561-11.408-2.017-9.752-7.884-24.111-13.973-30.507-1.26-1.323-2.796-1.917-4.248-1.917-2.082,0-3.989,1.223-4.647,3.266"/>
    </clipPath>
    <linearGradient id="uuid-f02169c9-43a2-4389-b606-4a763a659bdc" data-name="Sfumatura senza nome 5" x1="-3982.2884" y1="3051.4269" x2="-3981.2884" y2="3051.4269" gradientTransform="translate(-116829.6487 152553.7049) rotate(90) scale(38.3048 -38.3048)" gradientUnits="userSpaceOnUse">
      <stop offset="0" stop-color="#cec5d5"/>
      <stop offset=".2826" stop-color="#9887a5"/>
      <stop offset=".5561" stop-color="#69517b"/>
      <stop offset=".6887" stop-color="#573d6b"/>
      <stop offset="1" stop-color="#573d6b"/>
    </linearGradient>
    <clipPath id="uuid-3a266d5c-b236-4196-bcd3-ea794673264d">
      <path class="uuid-55d3323f-c75a-4b2e-9cf6-3eb724573a0a" d="M24.51,51.43c-.566,5.03,1.126,7.069,3.254,7.78,1.337,.445,6.6559-1.59,8.431-5.377-3.513,.842-4.188-2.715-3.608-7.206-1.947-1.454-4.512-3.563-6.205-5.019-.779,3.034-1.584,7.26-1.872,9.822"/>
    </clipPath>
    <linearGradient id="uuid-3264ac17-9d81-4034-8e5f-47daa397b1d4" data-name="Sfumatura senza nome 5" x1="-3833.6931" y1="2791.2618" x2="-3832.6931" y2="2791.2618" gradientTransform="translate(77027.5612 56114.1531) scale(20.0854 -20.0854)" xlink:href="#uuid-f02169c9-43a2-4389-b606-4a763a659bdc"/>
    <clipPath id="uuid-53b67adb-6ed4-409d-aa6e-3696c41926a7">
      <path class="uuid-55d3323f-c75a-4b2e-9cf6-3eb724573a0a" d="M25.178,40.512c11.2029,10.189,31.212,23.28,37.878,20.136,3.016-1.423,3.347-7.257,2.073-13.041,1.081,8.943-18.706,1.104-26.565-3.761-8.228-5.092-16.996-11.737-16.324-15.143-2.04,3.851-1.159,8.774,2.938,11.809"/>
    </clipPath>
    <linearGradient id="uuid-07cd83e8-bf80-48b5-8924-c4f6785c3d87" data-name="Sfumatura senza nome 4" x1="-4003.6769" y1="2865.6617" x2="-4002.6769" y2="2865.6617" gradientTransform="translate(136229.8677 -190201.2278) rotate(-90) scale(47.5236 -47.5236)" gradientUnits="userSpaceOnUse">
      <stop offset="0" stop-color="#573d6b"/>
      <stop offset=".927" stop-color="#bbb1c6"/>
      <stop offset="1" stop-color="#bbb1c6"/>
    </linearGradient>
    <clipPath id="uuid-4f1e9b32-7444-4dc1-a4ec-1a3d80089b86">
      <path class="uuid-55d3323f-c75a-4b2e-9cf6-3eb724573a0a" d="M18.346,28.087c-1.403,3.207,.919,8.322,6.914,12.434-3.203-3.105-3.688-8.395,1.162-11.142,5.991-3.393,15.648-.353,18.799,.83,1.745,.654,2.648,1.204,2.531,.279-.117-.92-1.532-2.036-2.828-2.624-3.933-1.787-11.205-3.807-17.223-3.806-4.356,0-8.056,1.058-9.355,4.029"/>
    </clipPath>
    <linearGradient id="uuid-e1538b28-1fbf-4e66-a027-e68b723c376f" data-name="Sfumatura senza nome 4" x1="-3827.7646" y1="2963.622" x2="-3826.7646" y2="2963.622" gradientTransform="translate(110504.6432 85574.2726) scale(28.864 -28.864)" xlink:href="#uuid-07cd83e8-bf80-48b5-8924-c4f6785c3d87"/>
    <clipPath id="uuid-b68b5a7d-cb01-470d-a326-2ec95c0804f2">
      <path class="uuid-55d3323f-c75a-4b2e-9cf6-3eb724573a0a" d="M42.547,13.011c-4.734,.996-10.971,12.211-14.568,23.442,1.563,1.268,4.188,3.163,6.027,4.428,.491-1.943,.625-2.84,1.304-5.159,3.558-12.168,9.88-21.904,16.117-17.965-2.664-2.8-4.638-4.895-7.508-4.895-.435,0-.891,.048-1.372,.149"/>
    </clipPath>
    <linearGradient id="uuid-646c4892-5084-4713-ade2-046e3f58cd6f" data-name="Sfumatura senza nome 5" x1="-3831.5597" y1="2877.0567" x2="-3830.5597" y2="2877.0567" gradientTransform="translate(102836.0205 77224.4269) scale(26.8321 -26.8321)" xlink:href="#uuid-f02169c9-43a2-4389-b606-4a763a659bdc"/>
    <clipPath id="uuid-8e5374de-1e55-4c21-a12c-1706a127d968">
      <path class="uuid-55d3323f-c75a-4b2e-9cf6-3eb724573a0a" d="M70.123,27.499c0,.118,.025,.229,.036,.344-3.844,9.389-29.275,20.308-34.929,24.073-7.204,4.801-10.754,.49-10.754,.49,0,0-.041-.028-.045-.001-.593,5.239-.345,8.424,1.867,9.082,3.505,1.042,14.914-7.081,25.636-15.206,10.22-7.743,19.817-15.488,21.351-15.292,.1219,.012,.24,.037,.365,.037,1.946,0,3.525-1.579,3.525-3.527,0-1.946-1.579-3.525-3.525-3.525-1.948,0-3.527,1.579-3.527,3.525"/>
    </clipPath>
    <linearGradient id="uuid-99eb0859-d7bf-415a-b40a-6855949166fb" data-name="Sfumatura senza nome 6" x1="-3906.2242" y1="2990.466" x2="-3905.2242" y2="2990.466" gradientTransform="translate(207133.7283 158598.9596) scale(53.0204 -53.0204)" gradientUnits="userSpaceOnUse">
      <stop offset="0" stop-color="#4f3863"/>
      <stop offset=".1747" stop-color="#4f3863"/>
      <stop offset=".2753" stop-color="#7a5947"/>
      <stop offset=".502" stop-color="#e9ad04"/>
      <stop offset=".5153" stop-color="#f0b300"/>
      <stop offset="1" stop-color="#f0b300"/>
    </linearGradient>
  </defs>
  <g>
    <rect class="uuid-cb50c7b2-f7f8-4073-9750-242e7b894620" x="6" width="76" height="76" rx="20.4362" ry="20.4362"/>
    <g>
      <g class="uuid-08954e39-0da1-4871-a58f-f93e3dc81785">
        <rect class="uuid-5f345824-45bc-408f-a380-c8a1b0b3b504" x="32.9175" y="12.8609" width="43.422" height="52.0193" transform="translate(-11.977 31.1962) rotate(-28.8608)"/>
      </g>
      <g class="uuid-c3c35c89-ef27-40cf-a402-c1d6d46cd8de">
        <rect class="uuid-00620211-b10b-4cdd-917d-99aff378a269" x="20.5103" y="43.6852" width="19.1184" height="13.8927" transform="translate(-23.1638 75.8098) rotate(-84.6075)"/>
      </g>
      <g class="uuid-78711d43-936e-46ac-b9d4-9b2b297b91fb">
        <rect class="uuid-6efa9d2b-a3cf-42eb-9ac9-62ac11b596d0" x="16.4777" y="17.4436" width="53.6476" height="57.6078" transform="translate(-18.5013 60.1856) rotate(-59.5933)"/>
      </g>
      <g class="uuid-15f7868a-ba68-4265-9f8b-32f7c17c5c29">
        <rect class="uuid-d8186a0a-5298-44ee-8ad7-7c5395a3e24b" x="14.8885" y="17.6953" width="35.0348" height="29.1875" transform="translate(-11.4545 19.2896) rotate(-28.3876)"/>
      </g>
      <g class="uuid-f7902c5b-18ef-4dca-ad95-77075f6c0f12">
        <rect class="uuid-9cbb9206-cd8d-4542-9f27-18a0eae1a697" x="21.8453" y="9.9717" width="35.7154" height="33.7995" transform="translate(-2.5678 49.4896) rotate(-62.2409)"/>
      </g>
      <g class="uuid-6e67ab1e-6e58-4fab-80ea-3b65c181abc8">
        <rect class="uuid-a6bcfc5c-ea27-48c9-bfd8-89525695b2f1" x="23.838" y="23.974" width="53.337" height="38.555"/>
      </g>
    </g>
  </g>
  <g>
    <path class="uuid-3bb50dcc-61b5-46f9-95f7-869363ca640e" d="M6.762,99.2852c-.9282,0-1.7705-.1807-2.5264-.5439s-1.4048-.8457-1.9463-1.4463c-.542-.6016-.9614-1.2891-1.2588-2.0625-.2979-.7734-.4463-1.5654-.4463-2.375,0-.8447,.1572-1.6543,.4731-2.4287,.3149-.7734,.75-1.458,1.3032-2.0527,.5537-.5957,1.2114-1.0684,1.9731-1.4199s1.5894-.5273,2.4819-.5273c.9165,0,1.7529,.1875,2.5088,.5625s1.4019,.8662,1.9375,1.4736,.9521,1.2979,1.25,2.0713c.2974,.7734,.4463,1.5596,.4463,2.3574,0,.8447-.1548,1.6514-.4644,2.4189s-.7383,1.4463-1.2856,2.0361c-.5479,.5889-1.2026,1.0596-1.9639,1.4102-.7622,.3516-1.5894,.5264-2.4824,.5264Zm-3.6782-6.4277c0,.5479,.0835,1.0771,.25,1.5889,.1665,.5127,.4077,.9648,.7231,1.3574s.7021,.708,1.1606,.9463c.458,.2383,.979,.3574,1.5625,.3574,.5952,0,1.1221-.1221,1.5801-.3662,.4585-.2441,.8452-.5684,1.1606-.9736,.3154-.4043,.5537-.8594,.7144-1.3652s.2412-1.0215,.2412-1.5449c0-.5479-.0864-1.0771-.2588-1.5889-.1729-.5117-.417-.9648-.7324-1.3574s-.7026-.7051-1.1606-.9375c-.4585-.2324-.9731-.3477-1.5444-.3477-.5952,0-1.125,.1221-1.5894,.3652-.4639,.2441-.8511,.5654-1.1606,.9648-.3096,.3984-.5444,.8506-.7051,1.3564-.1606,.5068-.2412,1.0215-.2412,1.5449Z"/>
    <path class="uuid-3bb50dcc-61b5-46f9-95f7-869363ca640e" d="M23.7434,99.1963h-2.3926v-5.25c0-.75-.1313-1.2969-.3931-1.6426-.2622-.3447-.625-.5176-1.0894-.5176-.2383,0-.4819,.0479-.7319,.1426-.25,.0957-.4854,.2295-.7051,.4023-.2207,.1719-.4199,.3779-.5986,.6152-.1782,.2383-.3096,.5-.3926,.7861v5.4639h-2.3926v-9.3564h2.1606v1.7314c.3447-.5947,.8447-1.0586,1.4995-1.3926,.6548-.333,1.3931-.5,2.2144-.5,.583,0,1.0591,.1074,1.4282,.3213,.3691,.2148,.6548,.4941,.8574,.8398,.2021,.3447,.3418,.7383,.4194,1.1787,.0771,.4404,.1162,.8867,.1162,1.3389v5.8389Z"/>
    <path class="uuid-3bb50dcc-61b5-46f9-95f7-869363ca640e" d="M31.7957,98.7139c-.3213,.1436-.7139,.2861-1.1782,.4287s-.9526,.2148-1.4644,.2148c-.3335,0-.646-.042-.9375-.125-.2915-.084-.5474-.2178-.7676-.4023-.2207-.1846-.396-.4219-.5269-.7139-.1313-.292-.1963-.6455-.1963-1.0625v-5.375h-1.2319v-1.8389h1.2319v-3.0361h2.3926v3.0361h1.9644v1.8389h-1.9644v4.5713c0,.333,.0864,.5684,.2588,.7051,.1724,.1377,.3838,.2061,.6338,.2061s.4941-.042,.7324-.125c.2378-.084,.4282-.1553,.5713-.2148l.4819,1.8926Z"/>
    <path class="uuid-3bb50dcc-61b5-46f9-95f7-869363ca640e" d="M37.5808,99.375c-.7617,0-1.4463-.1309-2.0532-.3926s-1.1221-.6162-1.5444-1.0625c-.4229-.4463-.7471-.9619-.9731-1.5449-.2266-.583-.3394-1.1963-.3394-1.8389,0-.6553,.1128-1.2734,.3394-1.8574,.2261-.583,.5503-1.0977,.9731-1.5449,.4224-.4463,.9375-.7998,1.5444-1.0615s1.2915-.3936,2.0532-.3936,1.4434,.1318,2.0449,.3936c.6006,.2617,1.1128,.6152,1.5352,1.0615,.4229,.4473,.7471,.9619,.9731,1.5449,.2261,.584,.3394,1.2021,.3394,1.8574,0,.6426-.1133,1.2559-.3394,1.8389s-.5474,1.0986-.9639,1.5449c-.417,.4463-.9287,.8008-1.5356,1.0625-.6074,.2617-1.292,.3926-2.0537,.3926Zm-2.4463-4.8389c0,.417,.0625,.7939,.1875,1.1338,.125,.3389,.2979,.6338,.5181,.8838s.479,.4434,.7769,.5801c.2974,.1367,.6187,.2051,.9639,.2051s.6665-.0684,.9644-.2051c.2974-.1367,.5562-.3301,.7769-.5801,.2202-.25,.3926-.5479,.5176-.8926,.125-.3457,.1875-.7266,.1875-1.1436,0-.4043-.0625-.7793-.1875-1.125-.125-.3447-.2974-.6426-.5176-.8926-.2207-.25-.4795-.4434-.7769-.5801-.2979-.1367-.6191-.2051-.9644-.2051s-.6665,.0713-.9639,.2139c-.2979,.1426-.5566,.3398-.7769,.5898s-.3931,.5469-.5181,.8926c-.125,.3447-.1875,.7197-.1875,1.125Z"/>
    <path class="uuid-3bb50dcc-61b5-46f9-95f7-869363ca640e" d="M43.6516,97.7324l5.2139-6.2139h-4.9995v-1.6787h7.5171v1.4639l-5.1782,6.2139h5.2676v1.6787h-7.8208v-1.4639Z"/>
    <path class="uuid-3bb50dcc-61b5-46f9-95f7-869363ca640e" d="M57.3645,86.5186h2.1782l4.8213,12.6777h-2.5356l-1.1782-3.1602h-4.4282l-1.1606,3.1602h-2.5356l4.8389-12.6777Zm2.8389,7.7852l-1.7495-4.9814-1.8213,4.9814h3.5708Z"/>
    <path class="uuid-3bb50dcc-61b5-46f9-95f7-869363ca640e" d="M71.5598,99.375c-.7383,0-1.3809-.1641-1.9282-.4912-.5479-.3271-.9761-.7705-1.2856-1.3301v5.4463h-2.3926v-13.1602h2.0889v1.6064c.3452-.5469,.7915-.9785,1.3394-1.2939,.5474-.3154,1.1782-.4736,1.8926-.4736,.6309,0,1.2144,.1279,1.75,.3838,.5356,.2568,.9971,.6016,1.3838,1.0361s.6904,.9463,.9106,1.5352c.2202,.5898,.3306,1.2119,.3306,1.8662,0,.6787-.1016,1.3154-.3037,1.9111-.2026,.5947-.4854,1.1133-.8481,1.5527-.3633,.4404-.7944,.7861-1.2944,1.0361s-1.0479,.375-1.6431,.375Zm-.8032-2.0361c.3569,0,.6875-.0771,.9907-.2314,.3037-.1553,.5625-.3633,.7769-.625s.3809-.5654,.5-.9111c.1187-.3447,.1787-.7021,.1787-1.0713,0-.3926-.0659-.7588-.1968-1.0977-.1309-.3398-.3125-.6338-.5444-.8838s-.5059-.4473-.8213-.5898-.6577-.2139-1.0269-.2139c-.2261,0-.4585,.0381-.6963,.1162-.2383,.0771-.4585,.1875-.6606,.3301-.2026,.1426-.3838,.3096-.5444,.5-.1611,.1904-.2832,.3984-.3662,.625v2.1963c.2144,.5352,.5415,.9795,.9819,1.3301,.4404,.3516,.9165,.5264,1.4287,.5264Z"/>
    <path class="uuid-3bb50dcc-61b5-46f9-95f7-869363ca640e" d="M83.3264,99.375c-.7383,0-1.3809-.1641-1.9282-.4912-.5479-.3271-.9761-.7705-1.2856-1.3301v5.4463h-2.3926v-13.1602h2.0889v1.6064c.3452-.5469,.7915-.9785,1.3394-1.2939,.5474-.3154,1.1782-.4736,1.8926-.4736,.6309,0,1.2144,.1279,1.75,.3838,.5356,.2568,.9971,.6016,1.3838,1.0361s.6904,.9463,.9106,1.5352c.2202,.5898,.3306,1.2119,.3306,1.8662,0,.6787-.1016,1.3154-.3037,1.9111-.2026,.5947-.4854,1.1133-.8481,1.5527-.3633,.4404-.7944,.7861-1.2944,1.0361s-1.0479,.375-1.6431,.375Zm-.8032-2.0361c.3569,0,.6875-.0771,.9907-.2314,.3037-.1553,.5625-.3633,.7769-.625s.3809-.5654,.5-.9111c.1187-.3447,.1787-.7021,.1787-1.0713,0-.3926-.0659-.7588-.1968-1.0977-.1309-.3398-.3125-.6338-.5444-.8838s-.5059-.4473-.8213-.5898-.6577-.2139-1.0269-.2139c-.2261,0-.4585,.0381-.6963,.1162-.2383,.0771-.4585,.1875-.6606,.3301-.2026,.1426-.3838,.3096-.5444,.5-.1611,.1904-.2832,.3984-.3662,.625v2.1963c.2144,.5352,.5415,.9795,.9819,1.3301,.4404,.3516,.9165,.5264,1.4287,.5264Z"/>
  </g>
</svg>