<?xml version="1.0" encoding="UTF-8"?>
<svg id="uuid-730517f1-f287-47b3-8c70-dfacbdad1ade" data-name="Livello 1" xmlns="http://www.w3.org/2000/svg" width="163.3802" height="34.1851" xmlns:xlink="http://www.w3.org/1999/xlink" viewBox="0 0 163.3802 34.1851">
  <defs>
    <style>
      .uuid-3618a940-63d7-4818-bbfc-312c72e4ac99 {
        fill: url(#uuid-a3932490-c185-46ab-98c9-0518977b7614);
      }

      .uuid-a2aa6795-bd2e-43cd-aeea-8fba2e385d8c {
        fill: url(#uuid-fb085b08-5866-48f9-9129-158aad64f74f);
      }

      .uuid-2e6da12b-ed36-4eaa-bb98-aa17129eca46 {
        clip-path: url(#uuid-15cfc564-dd4f-41ff-a7ca-8a8a9b8c9849);
      }

      .uuid-0ff0155a-7617-4384-a59e-eb6439f5579f {
        fill: url(#uuid-2f945f6f-08c3-4460-ab53-5fdbcaa0d2e7);
      }

      .uuid-fa05b0b2-8383-4d17-a006-424de5020b14 {
        fill: url(#uuid-8e2ab8e6-fca0-4f4c-8ce9-deef0ebe2d11);
      }

      .uuid-93eeddd4-ffcf-4142-b23c-2ce27f9a3beb {
        clip-path: url(#uuid-720929ec-6508-4c16-945c-7caaddd9f87a);
      }

      .uuid-67ef117a-94dc-4b53-9e47-d0093502d9aa {
        clip-path: url(#uuid-747049fd-679e-400f-b2a5-b0514e448694);
      }

      .uuid-53b7aec9-33bc-4dc0-afa0-02b1c2e422f9 {
        clip-path: url(#uuid-dcb7497d-01b0-4445-9c86-b3510fd3b63b);
      }

      .uuid-8f3a8eac-6ced-487d-8957-13d35e5d7674 {
        fill: url(#uuid-57493856-e438-4c18-9199-b28634eb3ec9);
      }

      .uuid-e64ccdcf-17ad-4ecd-b81a-0b659e678021 {
        fill: none;
      }

      .uuid-08f681f5-75c6-4fdd-92bc-f63d16ec4fd4 {
        fill: #f8ad1d;
      }

      .uuid-f6f59b3d-edad-4491-8b1c-cdaa96d72476 {
        fill: #573d6b;
      }

      .uuid-71820025-8395-4e52-a590-57426d681e82 {
        clip-path: url(#uuid-6f783167-4d89-4f77-8fe1-3588d2b3e7fe);
      }

      .uuid-eeb3b7dd-2d25-4b8c-a167-2ab3a4d1e8e3 {
        fill: url(#uuid-cdd5b14f-cfe6-4a33-9b98-c99298b45525);
      }

      .uuid-6e6901c3-6a74-4540-a3cf-d1750f7a19d5 {
        clip-path: url(#uuid-d4ac2ada-8d4d-4442-bf96-6a1af0e08f56);
      }

      .uuid-259656a4-7ca3-4835-9ef3-f739f741281a {
        fill: #f0b300;
      }
    </style>
    <clipPath id="uuid-6f783167-4d89-4f77-8fe1-3588d2b3e7fe">
      <path class="uuid-e64ccdcf-17ad-4ecd-b81a-0b659e678021" d="M107.0557,4.5587c3.35,1.044,9.458,14.638,10.534,23.711,.729,6.141,1.23,5.389,2.933,4.585,2.13-1.004,3.409-3.488,2.484-7.957-1.406-6.803-5.499-16.818-9.747-21.279-.878-.923-1.951-1.338-2.963-1.338-1.453,0-2.782,.853-3.241,2.278"/>
    </clipPath>
    <linearGradient id="uuid-a3932490-c185-46ab-98c9-0518977b7614" data-name="Sfumatura senza nome 5" x1="-4074.6272" y1="3071.4518" x2="-4073.6272" y2="3071.4518" gradientTransform="translate(-81950.5944 108870.2053) rotate(90) scale(26.719 -26.719)" gradientUnits="userSpaceOnUse">
      <stop offset="0" stop-color="#cec5d5"/>
      <stop offset=".2826" stop-color="#9887a5"/>
      <stop offset=".5561" stop-color="#69517b"/>
      <stop offset=".6887" stop-color="#573d6b"/>
      <stop offset="1" stop-color="#573d6b"/>
    </linearGradient>
    <clipPath id="uuid-15cfc564-dd4f-41ff-a7ca-8a8a9b8c9849">
      <path class="uuid-e64ccdcf-17ad-4ecd-b81a-0b659e678021" d="M94.4837,27.1068c-.394,3.509,.786,4.931,2.27,5.427,.933,.311,4.643-1.109,5.882-3.75-2.451,.586-2.922-1.894-2.517-5.027-1.358-1.014-3.147-2.486-4.329-3.502-.543,2.117-1.105,5.064-1.306,6.8521"/>
    </clipPath>
    <linearGradient id="uuid-fb085b08-5866-48f9-9129-158aad64f74f" data-name="Sfumatura senza nome 5" x1="-3889.6132" y1="2633.6939" x2="-3888.6132" y2="2633.6939" gradientTransform="translate(54590.2658 36925.4805) scale(14.0103 -14.0103)" xlink:href="#uuid-a3932490-c185-46ab-98c9-0518977b7614"/>
    <clipPath id="uuid-dcb7497d-01b0-4445-9c86-b3510fd3b63b">
      <path class="uuid-e64ccdcf-17ad-4ecd-b81a-0b659e678021" d="M94.9507,19.4917c7.814,7.106,21.772,16.238,26.421,14.045,2.103-.992,2.335-5.062,1.446-9.097,.754,6.239-13.048,.7711-18.53-2.6219-5.739-3.553-11.856-8.188-11.387-10.564-1.422,2.686-.809,6.12,2.05,8.238"/>
    </clipPath>
    <linearGradient id="uuid-cdd5b14f-cfe6-4a33-9b98-c99298b45525" data-name="Sfumatura senza nome 4" x1="-4143.3132" y1="2782.8796" x2="-4142.3132" y2="2782.8796" gradientTransform="translate(92358.7273 -137309.8044) rotate(-89.9999) scale(33.1495 -33.1495)" gradientUnits="userSpaceOnUse">
      <stop offset="0" stop-color="#573d6b"/>
      <stop offset=".927" stop-color="#bbb1c6"/>
      <stop offset="1" stop-color="#bbb1c6"/>
    </linearGradient>
    <clipPath id="uuid-747049fd-679e-400f-b2a5-b0514e448694">
      <path class="uuid-e64ccdcf-17ad-4ecd-b81a-0b659e678021" d="M90.1847,10.8238c-.978,2.237,.641,5.805,4.823,8.674-2.234-2.166-2.573-5.856,.81-7.772,4.179-2.367,10.916-.247,13.114,.579,1.216,.456,1.847,.839,1.765,.1949-.082-.642-1.068-1.42-1.973-1.832-2.744-1.246-7.816-2.654-12.014-2.654-3.038,0-5.619,.738-6.525,2.81"/>
    </clipPath>
    <linearGradient id="uuid-2f945f6f-08c3-4460-ab53-5fdbcaa0d2e7" data-name="Sfumatura senza nome 4" x1="-3847.7896" y1="2904.0994" x2="-3846.7896" y2="2904.0994" gradientTransform="translate(77561.6108 58483.9696) scale(20.1337 -20.1337)" xlink:href="#uuid-cdd5b14f-cfe6-4a33-9b98-c99298b45525"/>
    <clipPath id="uuid-d4ac2ada-8d4d-4442-bf96-6a1af0e08f56">
      <path class="uuid-e64ccdcf-17ad-4ecd-b81a-0b659e678021" d="M107.0657,.3078c-3.302,.695-7.653,8.518-10.16,16.352,1.088,.884,2.92,2.206,4.202,3.089,.343-1.355,.437-1.981,.91-3.599,2.482-8.488,6.892-15.278,11.242-12.531-1.858-1.952-3.234-3.415-5.236-3.415-.304,0-.621,.034-.958,.104"/>
    </clipPath>
    <linearGradient id="uuid-57493856-e438-4c18-9199-b28634eb3ec9" data-name="Sfumatura senza nome 5" x1="-3870.0856" y1="2768.4372" x2="-3869.0856" y2="2768.4372" gradientTransform="translate(72530.3055 51825.1553) scale(18.7164 -18.7164)" xlink:href="#uuid-a3932490-c185-46ab-98c9-0518977b7614"/>
    <clipPath id="uuid-720929ec-6508-4c16-945c-7caaddd9f87a">
      <path class="uuid-e64ccdcf-17ad-4ecd-b81a-0b659e678021" d="M126.3017,10.4148c0,.081,.016,.159,.024,.239-2.681,6.549-20.42,14.166-24.362,16.792-5.027,3.348-7.503,.342-7.503,.342,0,0-.029-.02-.031-.001-.414,3.655-.241,5.876,1.302,6.335,2.445,.728,10.403-4.939,17.882-10.606,7.129-5.402,13.823-10.804,14.893-10.668,.085,.009,.168,.026,.255,.026,1.358,0,2.459-1.101,2.459-2.459,0-1.359-1.101-2.459-2.459-2.459-1.359,0-2.46,1.1-2.46,2.459"/>
    </clipPath>
    <linearGradient id="uuid-8e2ab8e6-fca0-4f4c-8ce9-deef0ebe2d11" data-name="Sfumatura senza nome 6" x1="-3966.3175" y1="2961.1054" x2="-3965.3175" y2="2961.1054" gradientTransform="translate(146783.1975 109533.9358) scale(36.9837 -36.9837)" gradientUnits="userSpaceOnUse">
      <stop offset="0" stop-color="#4f3863"/>
      <stop offset=".1747" stop-color="#4f3863"/>
      <stop offset=".2753" stop-color="#7a5947"/>
      <stop offset=".502" stop-color="#e9ad04"/>
      <stop offset=".5153" stop-color="#f0b300"/>
      <stop offset="1" stop-color="#f0b300"/>
    </linearGradient>
  </defs>
  <path class="uuid-259656a4-7ca3-4835-9ef3-f739f741281a" d="M11.683,8.5012c1.605,0,3.118,.304,4.542,.915,1.422,.609,2.663,1.444,3.722,2.504,1.06,1.058,1.894,2.299,2.504,3.722,.609,1.423,.915,2.937,.915,4.542s-.306,3.118-.915,4.541c-.61,1.423-1.444,2.664-2.504,3.723-1.059,1.058-2.3,1.893-3.722,2.5031-1.424,.61-2.937,.915-4.542,.915s-3.119-.305-4.542-.915c-1.422-.61-2.663-1.445-3.722-2.5031-1.06-1.059-1.894-2.3-2.504-3.723-.609-1.423-.915-2.936-.915-4.541s.306-3.119,.915-4.542c.61-1.423,1.444-2.664,2.504-3.722,1.059-1.06,2.3-1.895,3.722-2.504,1.423-.611,2.937-.915,4.542-.915m0,3.851c-1.049,0-2.044,.1981-2.985,.5941-.942,.396-1.787,.968-2.535,1.717-.75,.749-1.321,1.594-1.718,2.536-.396,.941-.593,1.937-.593,2.985s.197,2.048,.593,3c.397,.953,.968,1.803,1.718,2.551,.748,.75,1.593,1.317,2.535,1.701,.941,.385,1.936,.578,2.985,.578,1.048,0,2.049-.193,3.001-.578,.952-.384,1.802-.951,2.552-1.701,.748-.748,1.315-1.598,1.7-2.551,.386-.952,.578-1.952,.578-3s-.192-2.044-.578-2.985c-.385-.942-.952-1.787-1.7-2.536-.75-.749-1.6-1.321-2.552-1.717-.952-.396-1.953-.5941-3.001-.5941"/>
  <path class="uuid-08f681f5-75c6-4fdd-92bc-f63d16ec4fd4" d="M35.0073,14.9522c1.048,0,2,.1981,2.857,.593,.855,.396,1.588,.943,2.198,1.637,.61,.696,1.08,1.504,1.412,2.424,.332,.92,.498,1.904,.498,2.952v8.89h-3.851v-8.89c0-1.069-.375-1.958-1.124-2.664-.728-.727-1.604-1.091-2.632-1.091-1.049,0-1.936,.364-2.663,1.091-.728,.728-1.092,1.616-1.092,2.664v8.89h-3.851V15.4013h3.851v1.22c.578-.492,1.23-.893,1.958-1.204,.727-.31,1.541-.465,2.439-.465"/>
  <path class="uuid-259656a4-7ca3-4835-9ef3-f739f741281a" d="M54.1298,30.5905c.109,.436-.221,.858-.67,.858h-2.646c-.728,0-1.412-.139-2.054-.418-.642-.277-1.199-.657-1.669-1.138-.471-.481-.845-1.043-1.124-1.685-.278-.642-.417-1.326-.417-2.055V12.6996c0-.317,.216-.593,.523-.67l2.471-.618c.436-.109,.858,.221,.858,.67v4.555c0,.381,.309,.69,.69,.69h1.017c.317,0,.593,.216,.67,.523l.618,2.471c.109,.435-.221,.858-.67,.858h-1.635c-.381,0-.69,.309-.69,.69v4.284c0,.408,.138,.75,.417,1.027,.278,.278,.61,.418,.995,.418h2.029c.316,0,.593,.215,.669,.522l.618,2.4709Z"/>
  <path class="uuid-259656a4-7ca3-4835-9ef3-f739f741281a" d="M64.3324,14.9527c1.177,0,2.279,.219,3.306,.658,1.027,.439,1.926,1.043,2.695,1.813,.771,.769,1.375,1.668,1.814,2.6949,.438,1.028,.658,2.13,.658,3.306,0,1.156-.22,2.247-.658,3.273-.439,1.028-1.043,1.926-1.814,2.697-.769,.77-1.668,1.375-2.695,1.813-1.027,.439-2.129,.658-3.306,.658s-2.279-.219-3.306-.658c-1.027-.438-1.926-1.043-2.695-1.813-.771-.771-1.376-1.6689-1.814-2.697-.439-1.026-.658-2.117-.658-3.273,0-1.176,.219-2.278,.658-3.306,.438-1.027,1.043-1.926,1.814-2.6949,.769-.77,1.668-1.374,2.695-1.813,1.027-.439,2.129-.658,3.306-.658m0,3.851c-1.284,0-2.375,.449-3.273,1.348-.899,.899-1.349,1.989-1.349,3.273,0,1.263,.45,2.343,1.349,3.242,.427,.449,.925,.786,1.492,1.011,.566,.224,1.16,.337,1.781,.337s1.209-.113,1.765-.337c.556-.225,1.06-.562,1.508-1.011,.899-.899,1.349-1.979,1.349-3.242,0-1.284-.45-2.374-1.349-3.273-.941-.899-2.032-1.348-3.273-1.348"/>
  <polygon class="uuid-259656a4-7ca3-4835-9ef3-f739f741281a" points="87.9932 18.0327 80.2582 27.5967 87.6082 27.5967 87.6082 31.4487 77.1452 31.4487 74.3212 31.4487 74.3212 28.8557 82.0562 19.2847 74.9952 19.2847 74.9952 15.4017 85.2652 15.4017 85.2652 15.4337 87.9932 15.4337 87.9932 18.0327"/>
  <path class="uuid-f6f59b3d-edad-4491-8b1c-cdaa96d72476" d="M137.7521,15.107c1.076,0,2.07,.201,2.981,.6021,.911,.402,1.699,.955,2.365,1.659,.665,.705,1.184,1.528,1.557,2.467,.371,.941,.557,1.95,.557,3.026,0,1.058-.186,2.056-.557,2.996-.373,.941-.892,1.762-1.557,2.468-.666,.704-1.454,1.259-2.365,1.659-.911,.402-1.905,.602-2.981,.602-.935,0-1.588-.137-2.343-.414-.339-.124-.511-.501-.376-.836l.87-2.543c.117-.29,.417-.378,.73-.374,5.041,.065,4.655-3.465,4.611-4.193-.23-3.839-7.395-4.615-7.395,.635v10.022c0,.349-.283,.631-.632,.631h-2.881c-.349,0-.632-.282-.632-.631V16.121c0-.349,.283-.632,.632-.632h2.261c.349,0,.631,.283,.631,.632v.543c.568-.451,1.224-.823,1.968-1.116,.744-.294,1.596-.441,2.556-.441"/>
  <path class="uuid-f6f59b3d-edad-4491-8b1c-cdaa96d72476" d="M155.9443,15.107c1.076,0,2.07,.201,2.981,.6021,.911,.402,1.699,.955,2.365,1.659,.665,.705,1.184,1.528,1.557,2.467,.371,.941,.557,1.95,.557,3.026,0,1.058-.186,2.056-.557,2.996-.373,.941-.892,1.762-1.557,2.468-.666,.704-1.454,1.259-2.365,1.659-.911,.402-1.905,.602-2.981,.602-.935,0-1.588-.137-2.343-.414-.339-.124-.511-.501-.376-.836l.87-2.543c.117-.29,.417-.378,.73-.374,5.041,.065,4.655-3.465,4.611-4.193-.23-3.839-7.395-4.615-7.395,.635v10.022c0,.349-.283,.631-.632,.631h-2.881c-.349,0-.632-.282-.632-.631V16.121c0-.349,.283-.632,.632-.632h2.261c.349,0,.631,.283,.631,.632v.543c.568-.451,1.224-.823,1.968-1.116,.744-.294,1.596-.441,2.556-.441"/>
  <g class="uuid-71820025-8395-4e52-a590-57426d681e82">
    <rect class="uuid-3618a940-63d7-4818-bbfc-312c72e4ac99" x="100.3494" y=".2032" width="30.2885" height="36.2851" transform="translate(5.4897 58.0256) rotate(-28.8608)"/>
  </g>
  <g class="uuid-2e6da12b-ed36-4eaa-bb98-aa17129eca46">
    <rect class="uuid-a2aa6795-bd2e-43cd-aeea-8fba2e385d8c" x="91.694" y="21.7041" width="13.3374" height="9.6913" transform="translate(62.6869 121.9822) rotate(-84.6077)"/>
  </g>
  <g class="uuid-53b7aec9-33bc-4dc0-afa0-02b1c2e422f9">
    <rect class="uuid-eeb3b7dd-2d25-4b8c-a167-2ab3a4d1e8e3" x="88.8821" y="3.4001" width="37.4211" height="40.1833" transform="translate(32.8758 104.3957) rotate(-59.5934)"/>
  </g>
  <g class="uuid-67ef117a-94dc-4b53-9e47-d0093502d9aa">
    <rect class="uuid-0ff0155a-7617-4384-a59e-eb6439f5579f" x="87.7737" y="3.5762" width="24.4379" height="20.3592" transform="translate(5.484 49.194) rotate(-28.3876)"/>
  </g>
  <g class="uuid-6e6901c3-6a74-4540-a3cf-d1750f7a19d5">
    <rect class="uuid-8f3a8eac-6ced-487d-8957-13d35e5d7674" x="92.6264" y="-1.8113" width="24.9126" height="23.5751" transform="translate(47.3117 98.3189) rotate(-62.2409)"/>
  </g>
  <g class="uuid-93eeddd4-ffcf-4142-b23c-2ce27f9a3beb">
    <rect class="uuid-fa05b0b2-8383-4d17-a006-424de5020b14" x="94.0157" y="7.9558" width="37.205" height="26.894"/>
  </g>
</svg>