<?xml version="1.0" encoding="utf-8"?>
<!-- Generator: Adobe Illustrator 27.3.1, SVG Export Plug-In . SVG Version: 6.00 Build 0)  -->
<svg version="1.1" id="uuid-729987d1-0c77-4ca5-b218-b6fe93ec5014"
	 xmlns="http://www.w3.org/2000/svg" xmlns:xlink="http://www.w3.org/1999/xlink" x="0px" y="0px" width="88px" height="103px"
	 viewBox="0 0 88 103" style="enable-background:new 0 0 88 103;" xml:space="preserve">
<style type="text/css">
	
		.st0{clip-path:url(#SVGID_00000117665134163510573100000001667134076149629347_);fill:url(#SVGID_00000044858987012822145280000010615887621688385691_);}
	.st1{fill:url(#SVGID_00000039820169202786110400000011705467275614594710_);}
	.st2{fill:url(#SVGID_00000045591390084679799600000013964557363194673057_);}
	.st3{fill:url(#SVGID_00000043450392975529437820000010963973507888403086_);}
	.st4{fill:url(#SVGID_00000129204717199238835240000006316120444115029384_);}
	.st5{fill:url(#SVGID_00000122716794991541124650000010276209046115814542_);}
	.st6{fill:url(#SVGID_00000149384331432400532470000006814076596050464949_);}
	.st7{fill:#F1B300;}
</style>
<g>
	<g>
		<g>
			<defs>
				<path id="SVGID_1_" d="M24.8,0c-11.6,0-21,9.4-21,21v38.3c0,11.6,9.4,21,21,21H63c11.6,0,21-9.4,21-21V21C84,9.4,74.6,0,63,0
					H24.8z"/>
			</defs>
			<clipPath id="SVGID_00000044177284817276686620000011969085980800038308_">
				<use xlink:href="#SVGID_1_"  style="overflow:visible;"/>
			</clipPath>
			
				<linearGradient id="SVGID_00000000903549913827363490000012628390722589830535_" gradientUnits="userSpaceOnUse" x1="-6635.6831" y1="-1819.9862" x2="-6634.7061" y2="-1819.9862" gradientTransform="matrix(73.8715 101.5884 -101.5884 73.8715 305304.125 808541.125)">
				<stop  offset="0" style="stop-color:#EDEDED"/>
				<stop  offset="1.385230e-07" style="stop-color:#EDEDED"/>
				<stop  offset="0.317" style="stop-color:#E9E9E9"/>
				<stop  offset="0.6301" style="stop-color:#DEDEDD"/>
				<stop  offset="0.9407" style="stop-color:#CACAC9"/>
				<stop  offset="0.9972" style="stop-color:#C6C6C5"/>
			</linearGradient>
			
				<polygon style="clip-path:url(#SVGID_00000044177284817276686620000011969085980800038308_);fill:url(#SVGID_00000000903549913827363490000012628390722589830535_);" points="
				56.3,-38.1 122.1,52.4 31.6,118.3 -34.3,27.7 			"/>
		</g>
	</g>
	<g>
		<g>
			
				<linearGradient id="SVGID_00000044897610369799163950000018075807061920266633_" gradientUnits="userSpaceOnUse" x1="43.1562" y1="87.4602" x2="62.7399" y2="51.9272" gradientTransform="matrix(1 0 0 -1 0 103.89)">
				<stop  offset="0" style="stop-color:#CDC5D5"/>
				<stop  offset="0.2826" style="stop-color:#9787A5"/>
				<stop  offset="0.5561" style="stop-color:#68527B"/>
				<stop  offset="0.6887" style="stop-color:#563D6B"/>
			</linearGradient>
			<path style="fill:url(#SVGID_00000044897610369799163950000018075807061920266633_);" d="M51.9,18.5c-3.2-3.4-8.2-2.2-9.4,1.4
				c5.1,1.6,14.4,22.2,16,36c1.1,9.3,1.9,8.2,4.5,7c3.2-1.5,5.2-5.3,3.8-12.1C64.6,40.5,58.4,25.2,51.9,18.5z"/>
			
				<linearGradient id="SVGID_00000075141497379498203940000002415926596022749868_" gradientUnits="userSpaceOnUse" x1="-43.8477" y1="28.2362" x2="-42.081" y2="49.4371" gradientTransform="matrix(0.9999 1.097317e-02 1.097317e-02 -0.9999 72.8845 86.254)">
				<stop  offset="0" style="stop-color:#CDC5D5"/>
				<stop  offset="0.2826" style="stop-color:#9787A5"/>
				<stop  offset="0.5561" style="stop-color:#68527B"/>
				<stop  offset="0.6887" style="stop-color:#563D6B"/>
			</linearGradient>
			<path style="fill:url(#SVGID_00000075141497379498203940000002415926596022749868_);" d="M32,49.1c-2.1-1.5-4.8-3.8-6.6-5.3
				c-0.8,3.2-1.7,7.7-2,10.4c-0.6,5.3,1.2,7.5,3.4,8.2c1.4,0.5,7-1.7,8.9-5.7C32.1,57.6,31.4,53.8,32,49.1z"/>
			
				<linearGradient id="SVGID_00000023263715556020760490000014007607766048779921_" gradientUnits="userSpaceOnUse" x1="64.1172" y1="44.9507" x2="20.7039" y2="70.428" gradientTransform="matrix(1 0 0 -1 0 103.89)">
				<stop  offset="0" style="stop-color:#563D6B"/>
				<stop  offset="0.927" style="stop-color:#BCB1C6"/>
			</linearGradient>
			<path style="fill:url(#SVGID_00000023263715556020760490000014007607766048779921_);" d="M38.3,46.1c-8.7-5.4-18-12.4-17.3-16
				c-2.2,4.1-1.2,9.3,3.1,12.5C36,53.4,57.2,67.2,64.3,63.9c3.2-1.5,3.5-7.7,2.2-13.8C67.6,59.6,46.6,51.3,38.3,46.1z"/>
			
				<linearGradient id="SVGID_00000047749805433506978490000014117214991825514129_" gradientUnits="userSpaceOnUse" x1="-54.6542" y1="48.0126" x2="-27.9189" y2="62.8423" gradientTransform="matrix(0.9999 1.097317e-02 1.097317e-02 -0.9999 72.8845 86.254)">
				<stop  offset="0" style="stop-color:#563D6B"/>
				<stop  offset="0.927" style="stop-color:#BCB1C6"/>
			</linearGradient>
			<path style="fill:url(#SVGID_00000047749805433506978490000014117214991825514129_);" d="M24.2,42.6c-6.3-4.4-8.8-9.8-7.3-13.2
				c3.3-7.5,21-3.5,28.2-0.2c1.4,0.6,2.9,1.8,3,2.8s-0.8,0.4-2.7-0.3c-3.3-1.3-13.6-4.5-19.9-0.9C20.3,33.7,20.8,39.3,24.2,42.6z"/>
			
				<linearGradient id="SVGID_00000130613289647631730760000000746921305563955336_" gradientUnits="userSpaceOnUse" x1="-40.5304" y1="46.0506" x2="-27.5701" y2="71.3441" gradientTransform="matrix(0.9999 1.097317e-02 1.097317e-02 -0.9999 72.8845 86.254)">
				<stop  offset="0" style="stop-color:#CDC5D5"/>
				<stop  offset="0.2826" style="stop-color:#9787A5"/>
				<stop  offset="0.5561" style="stop-color:#68527B"/>
				<stop  offset="0.6887" style="stop-color:#563D6B"/>
			</linearGradient>
			<path style="fill:url(#SVGID_00000130613289647631730760000000746921305563955336_);" d="M33.5,43c0.5-2.1,0.7-3,1.4-5.5
				c3.8-12.9,10.5-23.2,17.1-19c-3.3-3.4-5.5-5.8-9.4-5c-5,1.1-11.6,12.9-15.4,24.8C28.8,39.6,31.5,41.6,33.5,43z"/>
		</g>
		
			<linearGradient id="SVGID_00000058571342672877014260000017857558828339356578_" gradientUnits="userSpaceOnUse" x1="23.1138" y1="58.8901" x2="79.3" y2="58.8901" gradientTransform="matrix(1 0 0 -1 0 103.89)">
			<stop  offset="0.1747" style="stop-color:#4F3863"/>
			<stop  offset="0.2747" style="stop-color:#7B5948"/>
			<stop  offset="0.5" style="stop-color:#E9AD05"/>
			<stop  offset="0.5153" style="stop-color:#F1B300"/>
		</linearGradient>
		<path style="fill:url(#SVGID_00000058571342672877014260000017857558828339356578_);" d="M75.5,25.1c-2.1,0-3.7,1.7-3.7,3.7
			c0,0.1,0,0.2,0,0.4c-4.1,9.9-31,21.5-37,25.5c-7.6,5.1-11.4,0.5-11.4,0.5l0,0c-0.6,5.5-0.4,8.9,2,9.6c7.3,2.2,46.4-32.7,49.8-32.3
			c0.1,0,0.3,0,0.4,0c2.1,0,3.7-1.7,3.7-3.7C79.2,26.7,77.6,25.1,75.5,25.1z"/>
	</g>
</g>
<g>
	<path class="st7" d="M7.9,93.5H3v3.2h5.5v2.5H0V85.8h8.2v2.5H3V91h4.9V93.5z"/>
	<path class="st7" d="M10.4,92.7c0-1.3,0-2.3-0.1-3.2H13l0.1,1.3l0,0c0.7-1,1.8-1.6,3.2-1.6c2.1,0,4,1.8,4,4.9
		c0,3.5-2.2,5.2-4.4,5.2c-1.2,0-2.1-0.5-2.5-1.1l0,0v4.8h-3C10.4,103,10.4,92.7,10.4,92.7z M13.4,94.9c0,0.2,0,0.5,0.1,0.6
		c0.2,0.8,0.9,1.4,1.8,1.4c1.3,0,2.1-1.1,2.1-2.7c0-1.5-0.7-2.7-2-2.7c-0.8,0-1.6,0.6-1.8,1.5c0,0.2-0.1,0.4-0.1,0.5L13.4,94.9
		L13.4,94.9z"/>
	<path class="st7" d="M25.3,86.8c0,0.8-0.6,1.5-1.6,1.5c-0.9,0-1.6-0.7-1.6-1.5c0-0.9,0.6-1.5,1.6-1.5
		C24.7,85.3,25.3,85.9,25.3,86.8z M22.2,99.1v-9.6h3v9.6H22.2z"/>
	<path class="st7" d="M39.9,92.3c0,4.4-2.6,7-6.5,7s-6.2-3-6.2-6.8c0-4,2.5-7,6.5-7C37.6,85.6,39.9,88.6,39.9,92.3z M30.3,92.5
		c0,2.6,1.2,4.4,3.2,4.4s3.2-1.9,3.2-4.5c0-2.4-1.1-4.4-3.2-4.4C31.5,88,30.3,89.9,30.3,92.5z"/>
	<path class="st7" d="M41.8,92.5c0-1.2,0-2.2-0.1-3.1h2.6l0.1,1.3h0.1c0.4-0.6,1.4-1.5,3-1.5c2,0,3.4,1.3,3.4,4.1V99h-3v-5.3
		c0-1.2-0.4-2.1-1.5-2.1c-0.8,0-1.3,0.6-1.5,1.1c-0.1,0.2-0.1,0.5-0.1,0.7V99h-3V92.5z"/>
	<path class="st7" d="M56.6,95.7l-0.9,3.4h-3.1l4.1-13.3h3.9l4.1,13.3h-3.2l-1-3.4H56.6z M59.9,93.4l-0.8-2.8
		c-0.2-0.8-0.5-1.8-0.7-2.6l0,0c-0.2,0.8-0.4,1.8-0.6,2.6L57,93.4H59.9z"/>
	<path class="st7" d="M66.2,92.7c0-1.3,0-2.3-0.1-3.2h2.6l0.1,1.3l0,0c0.7-1,1.8-1.6,3.2-1.6c2.1,0,4,1.8,4,4.9
		c0,3.5-2.2,5.2-4.4,5.2c-1.2,0-2.1-0.5-2.5-1.1l0,0v4.8h-3V92.7H66.2z M69.2,94.9c0,0.2,0,0.5,0.1,0.6c0.2,0.8,0.9,1.4,1.8,1.4
		c1.3,0,2.1-1.1,2.1-2.7c0-1.5-0.7-2.7-2-2.7c-0.8,0-1.6,0.6-1.8,1.5c0,0.2-0.1,0.4-0.1,0.5L69.2,94.9L69.2,94.9z"/>
	<path class="st7" d="M78,92.7c0-1.3,0-2.3-0.1-3.2h2.6l0.1,1.3l0,0c0.7-1,1.8-1.6,3.2-1.6c2.1,0,4,1.8,4,4.9c0,3.5-2.2,5.2-4.4,5.2
		c-1.2,0-2.1-0.5-2.5-1.1l0,0v4.8h-3V92.7H78z M80.9,94.9c0,0.2,0,0.5,0.1,0.6c0.2,0.8,0.9,1.4,1.8,1.4c1.3,0,2.1-1.1,2.1-2.7
		c0-1.5-0.7-2.7-2-2.7c-0.8,0-1.6,0.6-1.8,1.5c0,0.2-0.1,0.4-0.1,0.5L80.9,94.9L80.9,94.9z"/>
</g>
</svg>
