<?xml version="1.0" encoding="UTF-8"?>
<svg id="uuid-c3a7d85e-b8a3-4bbb-9fe7-f77fc25caee8" data-name="Livello 1" xmlns="http://www.w3.org/2000/svg" width="45.0489" height="18.6489" viewBox="0 0 45.0489 18.6489">
  <defs>
    <style>
      .uuid-ed91c0f8-7ed5-46ec-841e-6f13787ac4f9 {
        fill: #003087;
      }
    </style>
  </defs>
  <g>
    <path class="uuid-ed91c0f8-7ed5-46ec-841e-6f13787ac4f9" d="M3.2633,15.8264c-.6562-.7082-1.1977-1.5519-1.5102-2.4163-.3125-.8332-.5624-2.0934,0-3.3224,.5624-1.1665,1.3748-1.9789,2.5413-2.5725,1.6248-.8124,3.9682-1.1665,6.9781-1.0415v-1.4685c-.8332-.0312-1.6143-.0312-2.3434,0L6.6482-.015h-1.8851L.4096,9.4732c-1.0311,2.2705-.2291,4.7805,1.1665,6.6344,.2604-.0208,1.104-.1042,1.6873-.2812ZM5.7005,1.4743l1.6664,3.6661c-1.4581,.1875-2.6975,.5416-3.7286,1.0623l-.125,.0625L5.7005,1.4743Z"/>
    <path class="uuid-ed91c0f8-7ed5-46ec-841e-6f13787ac4f9" d="M10.9497,9.4732h0l-.8853-1.9476c-.1666,0-.9374,.0312-1.5519,.1562l1.0936,2.4059c.2604,.5624,.3854,1.1769,.3854,1.7914,0,.7186-.1875,2.0934-1.4269,3.2599-1.1873,1.1144-3.0725,1.781-5.5304,1.9685-.1771,.0104-.3541,.0208-.5416,.0312-.5728,.0312-1.1873,.0312-1.8122,.0104v1.4789c.302,.0104,.6041,.0208,.8853,.0208,3.5932,0,6.2907-.8124,8.0092-2.4267,1.2186-1.1457,1.8956-2.6871,1.8956-4.3431,0-.8228-.1771-1.6456-.5208-2.4059Z"/>
  </g>
  <g>
    <path class="uuid-ed91c0f8-7ed5-46ec-841e-6f13787ac4f9" d="M21.5315,7.5984l-.2916-1.1144h-1.6248l-.302,1.1144h-1.104l1.4581-5.0305h1.6039l1.4581,5.0305h-1.1977Zm-1.7081-1.906h1.2186l-.5937-2.3226h-.0104l-.6145,2.3226Z"/>
    <path class="uuid-ed91c0f8-7ed5-46ec-841e-6f13787ac4f9" d="M23.2604,7.5984v-3.5411h.979v.4062h.0104c.25-.3541,.5728-.5312,1.104-.5312,.7291,0,1.2082,.2916,1.2082,1.0207v2.635h-1.0728v-2.3538c0-.3854-.1666-.4999-.4583-.4999-.427,0-.6874,.3125-.6874,.6978v2.1663h-1.0832Z"/>
    <path class="uuid-ed91c0f8-7ed5-46ec-841e-6f13787ac4f9" d="M28.6763,3.9427c.4687,0,.854,.1666,1.0207,.5832h.0104c.0208-.1979,.0417-.3125,.0833-.4687h.9269c-.0208,.25-.0417,.5624-.0417,1.0832v2.583c0,.8436-.6666,1.2394-1.7393,1.2394-1.104,0-1.6456-.3333-1.6873-.9894l1.0519-.0417c.125,.2916,.3333,.3645,.6457,.3645,.427,0,.6666-.1771,.6666-.7082v-.5208h-.0104c-.1771,.3125-.4687,.4895-1.0415,.4895-.8957,0-1.3644-.5208-1.3644-1.7393,.0104-1.229,.5208-1.8747,1.479-1.8747Zm.2396,2.8954c.4062,0,.7082-.2604,.7082-.8436v-.4687c0-.5103-.25-.854-.6666-.854-.427,0-.6978,.2708-.6978,1.1352,0,.7916,.2396,1.0311,.6562,1.0311Z"/>
    <path class="uuid-ed91c0f8-7ed5-46ec-841e-6f13787ac4f9" d="M34.7483,6.057h-2.3955c.0104,.7291,.25,.979,.7395,.979,.2916,0,.5208-.0625,.6353-.3749l.9478,.0312c-.1042,.7499-.677,1.0207-1.6248,1.0207-1.2082,0-1.7185-.6666-1.7185-1.8539,0-1.2082,.5624-1.9164,1.7185-1.9164,1.2394,0,1.7602,.6353,1.6977,2.1143Zm-2.3851-.6353h1.3644c.0104-.6249-.2187-.854-.6457-.854-.4895,.0104-.7186,.3125-.7186,.854Z"/>
    <path class="uuid-ed91c0f8-7ed5-46ec-841e-6f13787ac4f9" d="M35.4461,2.5263h1.0728v3.9994c0,.3125,.0312,.3854,.3854,.3854h.1875l-.0104,.6874c-.1979,.0208-.3958,.0521-.6874,.0521-.7603,0-.9478-.25-.9478-.8332V2.5263h0Z"/>
    <path class="uuid-ed91c0f8-7ed5-46ec-841e-6f13787ac4f9" d="M37.6853,2.9637c0-.3125,.2187-.5416,.6145-.5416,.3749,0,.5937,.2291,.5937,.5416,0,.3229-.2187,.552-.5937,.552-.3854,.0104-.6145-.2291-.6145-.552Zm.0729,1.0936h1.0728v3.5411h-1.0728v-3.5411Z"/>
    <path class="uuid-ed91c0f8-7ed5-46ec-841e-6f13787ac4f9" d="M39.7371,7.5984v-3.5411h.979v.4062h.0104c.2395-.3541,.5728-.5312,1.104-.5312,.7291,0,1.2082,.2916,1.2082,1.0207v2.635h-1.0728v-2.3538c0-.3854-.1666-.4999-.4583-.4999-.427,0-.6874,.3125-.6874,.6978v2.1663h-1.0832Z"/>
    <path class="uuid-ed91c0f8-7ed5-46ec-841e-6f13787ac4f9" d="M43.8407,2.9637c0-.3125,.2187-.5416,.6145-.5416,.3749,0,.5937,.2291,.5937,.5416,0,.3229-.2187,.552-.5937,.552-.3958,.0104-.6145-.2291-.6145-.552Zm.0625,1.0936h1.0728v3.5411h-1.0728v-3.5411Z"/>
    <g>
      <path class="uuid-ed91c0f8-7ed5-46ec-841e-6f13787ac4f9" d="M18.6881,16.0347v-4.9993h1.6143c.9582,0,1.4477,.4062,1.4477,1.4998,0,.9686-.4999,1.4998-1.3644,1.4998h-1.0832v1.9893h-.6145v.0104Zm.6041-2.4684h.9894c.5416,0,.8332-.2708,.8332-.9999,0-.9061-.3229-1.0415-.8853-1.0415h-.9374v2.0414h0Z"/>
      <path class="uuid-ed91c0f8-7ed5-46ec-841e-6f13787ac4f9" d="M22.4376,16.0347v-5.0305h.5937v1.9685h.0104c.2083-.3645,.5312-.552,1.0519-.552,.6145,0,1.1873,.2604,1.1873,1.0103v2.6142h-.5937v-2.4996c0-.5416-.2916-.6562-.677-.6562-.6874,0-.9894,.4791-.9894,.8957v2.2601h-.5832v-.0104Z"/>
      <path class="uuid-ed91c0f8-7ed5-46ec-841e-6f13787ac4f9" d="M27.7181,13.8683l.4687-.0312v-.4687c0-.427-.3125-.5416-.677-.5416-.3958,0-.6666,.1146-.802,.4583l-.5416-.0208c.125-.6145,.6353-.8645,1.3331-.8645,.7082,0,1.2498,.2604,1.2498,.979v1.9685c0,.2291,.0208,.4583,.0312,.6874h-.5208c-.0312-.1771-.0417-.2708-.0521-.3333h-.0104c-.302,.3229-.6249,.4374-1.0519,.4374-.5728,0-1.0832-.3645-1.0832-1.0415,.0104-.677,.4062-1.1457,1.656-1.229Zm-.427,1.8539c.3854,0,.6874-.1979,.8957-.4687v-.9999l-.3541,.0208c-1.0311,.0625-1.1977,.3854-1.1977,.802,0,.3645,.1979,.6457,.6562,.6457Z"/>
      <path class="uuid-ed91c0f8-7ed5-46ec-841e-6f13787ac4f9" d="M30.3948,12.5144c.0208,.2604,.0208,.4583,.0208,.5728h.0104c.125-.3125,.4166-.6666,.9374-.6666,.1042,0,.2083,.0104,.3333,.0417l-.0104,.4895c-.1354-.0104-.1771-.0104-.2604-.0104-.7916,0-.9894,.4687-.9894,1.2811v1.8018h-.5937v-2.8954c0-.2083,0-.4166-.0104-.6249l.5624,.0104h0Z"/>
      <path class="uuid-ed91c0f8-7ed5-46ec-841e-6f13787ac4f9" d="M36.9042,13.4205v2.6142h-.5937v-2.4996c0-.5416-.2187-.6562-.5416-.6562-.5312,0-.854,.4583-.854,.9061v2.2497h-.5937v-2.4996c0-.5416-.2187-.6562-.5416-.6562-.5312,0-.854,.4791-.854,.9269v2.2288h-.5937v-3.5203h.5728v.4479h.0104c.1979-.3229,.4791-.552,.9582-.552,.3958,0,.7811,.1458,.9478,.5312h.0312c.2395-.3229,.5312-.5312,1.0103-.5312,.5312,0,1.0415,.2604,1.0415,1.0103Z"/>
      <path class="uuid-ed91c0f8-7ed5-46ec-841e-6f13787ac4f9" d="M39.3414,13.8683l.4687-.0312v-.4687c0-.427-.3125-.5416-.677-.5416-.3958,0-.6562,.1146-.802,.4583l-.5416-.0208c.125-.6145,.6457-.8645,1.3331-.8645,.7082,0,1.2498,.2604,1.2498,.979v1.9685c0,.2291,.0208,.4583,.0312,.6874h-.5208c-.0312-.1771-.0417-.2708-.0521-.3333h0c-.302,.3229-.6249,.4374-1.0623,.4374-.5728,0-1.0832-.3645-1.0832-1.0415,.0104-.677,.4062-1.1457,1.656-1.229Zm-.427,1.8539c.3854,0,.6874-.1979,.8957-.4687v-.9999l-.3541,.0208c-1.0311,.0625-1.1977,.3854-1.1977,.802,0,.3645,.1979,.6457,.6562,.6457Z"/>
    </g>
  </g>
</svg>